CactusClassicalSerif-Regular.ufo
<glyph name="exclam" format="2">
  <advance width="303" height="1000"/>
  <unicode hex="0021"/>
  <outline>
    <contour>
      <point x="136" y="221" type="line"/>
      <point x="167" y="221" type="line"/>
      <point x="179" y="397" type="line"/>
      <point x="183" y="443"/>
      <point x="190" y="521" type="qcurve"/>
      <point x="203" y="658"/>
      <point x="203" y="689" type="qcurve"/>
      <point x="203" y="747"/>
      <point x="151" y="747" type="qcurve"/>
      <point x="100" y="747"/>
      <point x="100" y="689" type="qcurve"/>
      <point x="100" y="658"/>
      <point x="113" y="521" type="qcurve"/>
      <point x="120" y="443"/>
      <point x="124" y="397" type="qcurve"/>
    </contour>
    <contour>
      <point x="151" y="109" type="qcurve"/>
      <point x="126" y="109"/>
      <point x="90" y="72"/>
      <point x="90" y="23"/>
      <point x="126" y="-13"/>
      <point x="177" y="-13"/>
      <point x="213" y="23"/>
      <point x="213" y="72"/>
      <point x="177" y="109"/>
    </contour>
  </outline>
</glyph>
<glyph name="quotedbl" format="2">
  <advance width="367" height="1000"/>
  <unicode hex="0022"/>
  <outline>
    <contour>
      <point x="258" y="477" type="line"/>
      <point x="289" y="477" type="line"/>
      <point x="300" y="565" type="line"/>
      <point x="302" y="582"/>
      <point x="309" y="632" type="qcurve"/>
      <point x="321" y="720"/>
      <point x="321" y="745" type="qcurve"/>
      <point x="321" y="803"/>
      <point x="273" y="803" type="qcurve"/>
      <point x="226" y="803"/>
      <point x="226" y="745" type="qcurve"/>
      <point x="226" y="712"/>
      <point x="243" y="595" type="qcurve"/>
      <point x="246" y="573"/>
      <point x="247" y="565" type="qcurve"/>
    </contour>
    <contour>
      <point x="79" y="477" type="line"/>
      <point x="111" y="477" type="line"/>
      <point x="122" y="565" type="line"/>
      <point x="123" y="581"/>
      <point x="130" y="630" type="qcurve"/>
      <point x="142" y="719"/>
      <point x="142" y="745" type="qcurve"/>
      <point x="142" y="803"/>
      <point x="48" y="803"/>
      <point x="48" y="745" type="qcurve"/>
      <point x="48" y="716"/>
      <point x="62" y="613" type="qcurve"/>
      <point x="67" y="578"/>
      <point x="68" y="565" type="qcurve"/>
    </contour>
  </outline>
</glyph>
<glyph name="dollar" format="2">
  <advance width="539" height="1000"/>
  <unicode hex="0024"/>
  <outline>
    <contour>
      <point x="261" y="-125" type="line"/>
      <point x="298" y="-125" type="line"/>
      <point x="298" y="-12" type="line"/>
      <point x="388" y="-4"/>
      <point x="494" y="100"/>
      <point x="494" y="180" type="qcurve"/>
      <point x="494" y="249"/>
      <point x="455" y="298" type="qcurve"/>
      <point x="409" y="353"/>
      <point x="305" y="391" type="qcurve"/>
      <point x="299" y="393" type="line"/>
      <point x="299" y="675" type="line"/>
      <point x="335" y="673"/>
      <point x="365" y="663" type="qcurve"/>
      <point x="382" y="591" type="line"/>
      <point x="395" y="532"/>
      <point x="438" y="532" type="qcurve"/>
      <point x="472" y="532"/>
      <point x="480" y="563" type="qcurve"/>
      <point x="473" y="628"/>
      <point x="373" y="713"/>
      <point x="299" y="718" type="qcurve"/>
      <point x="299" y="819" type="line"/>
      <point x="262" y="819" type="line"/>
      <point x="262" y="718" type="line"/>
      <point x="178" y="713"/>
      <point x="70" y="606"/>
      <point x="70" y="527" type="qcurve"/>
      <point x="70" y="452"/>
      <point x="116" y="402" type="qcurve"/>
      <point x="158" y="356"/>
      <point x="245" y="323" type="qcurve"/>
      <point x="261" y="317" type="line"/>
      <point x="261" y="28" type="line"/>
      <point x="212" y="30"/>
      <point x="171" y="43" type="qcurve"/>
      <point x="155" y="113" type="line"/>
      <point x="142" y="174"/>
      <point x="100" y="174" type="qcurve"/>
      <point x="69" y="174"/>
      <point x="55" y="142" type="qcurve"/>
      <point x="63" y="72"/>
      <point x="175" y="-13"/>
      <point x="261" y="-14" type="qcurve"/>
    </contour>
    <contour>
      <point x="298" y="30" type="qcurve"/>
      <point x="298" y="303" type="line"/>
      <point x="365" y="276"/>
      <point x="421" y="213"/>
      <point x="421" y="163" type="qcurve"/>
      <point x="421" y="107"/>
      <point x="355" y="38"/>
    </contour>
    <contour>
      <point x="262" y="407" type="line"/>
      <point x="201" y="430"/>
      <point x="173" y="461" type="qcurve"/>
      <point x="142" y="495"/>
      <point x="142" y="546" type="qcurve"/>
      <point x="142" y="601"/>
      <point x="176" y="635" type="qcurve"/>
      <point x="208" y="667"/>
      <point x="262" y="673" type="qcurve"/>
    </contour>
  </outline>
</glyph>
<glyph name="percent" format="2">
  <advance width="935" height="1000"/>
  <unicode hex="0025"/>
  <outline>
    <contour>
      <point x="233" y="-26" type="line"/>
      <point x="742" y="707" type="line"/>
      <point x="715" y="729" type="line"/>
      <point x="205" y="-4" type="line"/>
    </contour>
    <contour>
      <point x="228" y="268" type="qcurve"/>
      <point x="290" y="268"/>
      <point x="330" y="321" type="qcurve"/>
      <point x="376" y="382"/>
      <point x="376" y="606"/>
      <point x="330" y="666" type="qcurve"/>
      <point x="290" y="719"/>
      <point x="166" y="719"/>
      <point x="125" y="666" type="qcurve"/>
      <point x="79" y="606"/>
      <point x="79" y="382"/>
      <point x="125" y="321" type="qcurve"/>
      <point x="166" y="268"/>
    </contour>
    <contour>
      <point x="228" y="300" type="qcurve"/>
      <point x="148" y="300"/>
      <point x="148" y="494" type="qcurve"/>
      <point x="148" y="687"/>
      <point x="228" y="687" type="qcurve"/>
      <point x="308" y="687"/>
      <point x="308" y="494" type="qcurve"/>
      <point x="308" y="300"/>
    </contour>
    <contour>
      <point x="709" y="-10" type="qcurve"/>
      <point x="771" y="-10"/>
      <point x="811" y="43" type="qcurve"/>
      <point x="857" y="103"/>
      <point x="857" y="327"/>
      <point x="811" y="388" type="qcurve"/>
      <point x="771" y="440"/>
      <point x="647" y="440"/>
      <point x="606" y="388" type="qcurve"/>
      <point x="560" y="327"/>
      <point x="560" y="103"/>
      <point x="606" y="43" type="qcurve"/>
      <point x="647" y="-10"/>
    </contour>
    <contour>
      <point x="709" y="22" type="qcurve"/>
      <point x="628" y="22"/>
      <point x="628" y="215" type="qcurve"/>
      <point x="628" y="409"/>
      <point x="709" y="409" type="qcurve"/>
      <point x="788" y="409"/>
      <point x="788" y="215" type="qcurve"/>
      <point x="788" y="22"/>
    </contour>
  </outline>
</glyph>
<glyph name="quotesingle" format="2">
  <advance width="189" height="1000"/>
  <unicode hex="0027"/>
  <outline>
    <contour>
      <point x="79" y="477" type="line"/>
      <point x="111" y="477" type="line"/>
      <point x="122" y="565" type="line"/>
      <point x="123" y="581"/>
      <point x="130" y="630" type="qcurve"/>
      <point x="142" y="719"/>
      <point x="142" y="745" type="qcurve"/>
      <point x="142" y="803"/>
      <point x="48" y="803"/>
      <point x="48" y="745" type="qcurve"/>
      <point x="48" y="716"/>
      <point x="62" y="613" type="qcurve"/>
      <point x="67" y="578"/>
      <point x="68" y="565" type="qcurve"/>
    </contour>
  </outline>
</glyph>
<glyph name="parenleft" format="2">
  <advance width="361" height="1000"/>
  <unicode hex="0028"/>
  <outline>
    <contour>
      <point x="312" y="-215" type="qcurve"/>
      <point x="333" y="-198" type="line"/>
      <point x="238" y="-59"/>
      <point x="200" y="55" type="qcurve"/>
      <point x="164" y="164"/>
      <point x="164" y="441"/>
      <point x="199" y="549" type="qcurve"/>
      <point x="237" y="663"/>
      <point x="333" y="802" type="qcurve"/>
      <point x="312" y="820" type="line"/>
      <point x="90" y="598"/>
      <point x="90" y="302" type="qcurve"/>
      <point x="90" y="152"/>
      <point x="199" y="-102"/>
    </contour>
  </outline>
</glyph>
<glyph name="parenright" format="2">
  <advance width="361" height="1000"/>
  <unicode hex="0029"/>
  <outline>
    <contour>
      <point x="49" y="-215" type="line"/>
      <point x="162" y="-102"/>
      <point x="271" y="152"/>
      <point x="271" y="302" type="qcurve"/>
      <point x="271" y="598"/>
      <point x="49" y="820" type="qcurve"/>
      <point x="28" y="802" type="line"/>
      <point x="124" y="663"/>
      <point x="161" y="549" type="qcurve"/>
      <point x="197" y="441"/>
      <point x="197" y="163"/>
      <point x="162" y="56" type="qcurve"/>
      <point x="124" y="-59"/>
      <point x="28" y="-198" type="qcurve"/>
    </contour>
  </outline>
</glyph>
<glyph name="asterisk" format="2">
  <advance width="479" height="1000"/>
  <unicode hex="002A"/>
  <outline>
    <contour>
      <point x="124" y="398" type="qcurve"/>
      <point x="141" y="398"/>
      <point x="159" y="421" type="qcurve"/>
      <point x="170" y="436"/>
      <point x="194" y="482" type="qcurve"/>
      <point x="206" y="505"/>
      <point x="213" y="517" type="qcurve"/>
      <point x="240" y="570" type="line"/>
      <point x="267" y="517" type="line"/>
      <point x="274" y="504"/>
      <point x="287" y="480" type="qcurve"/>
      <point x="312" y="434"/>
      <point x="322" y="420" type="qcurve"/>
      <point x="339" y="398"/>
      <point x="357" y="398" type="qcurve"/>
      <point x="369" y="398"/>
      <point x="388" y="416"/>
      <point x="388" y="443"/>
      <point x="373" y="462" type="qcurve"/>
      <point x="364" y="474"/>
      <point x="335" y="504" type="qcurve"/>
      <point x="312" y="526"/>
      <point x="300" y="540" type="qcurve"/>
      <point x="259" y="584" type="line"/>
      <point x="316" y="594" type="line"/>
      <point x="330" y="596"/>
      <point x="355" y="600" type="qcurve"/>
      <point x="415" y="610"/>
      <point x="432" y="616" type="qcurve"/>
      <point x="458" y="626"/>
      <point x="458" y="648" type="qcurve"/>
      <point x="458" y="662"/>
      <point x="440" y="682"/>
      <point x="426" y="682" type="qcurve"/>
      <point x="410" y="682"/>
      <point x="344" y="650" type="qcurve"/>
      <point x="318" y="637"/>
      <point x="304" y="630" type="qcurve"/>
      <point x="251" y="605" type="line"/>
      <point x="260" y="663" type="line"/>
      <point x="262" y="687"/>
      <point x="268" y="729" type="qcurve"/>
      <point x="274" y="769"/>
      <point x="274" y="780" type="qcurve"/>
      <point x="274" y="815"/>
      <point x="240" y="815" type="qcurve"/>
      <point x="207" y="815"/>
      <point x="207" y="780" type="qcurve"/>
      <point x="207" y="752"/>
      <point x="221" y="663" type="qcurve"/>
      <point x="228" y="604" type="line"/>
      <point x="176" y="630" type="line"/>
      <point x="159" y="638"/>
      <point x="130" y="652" type="qcurve"/>
      <point x="70" y="682"/>
      <point x="54" y="682" type="qcurve"/>
      <point x="40" y="682"/>
      <point x="23" y="662"/>
      <point x="23" y="648" type="qcurve"/>
      <point x="23" y="627"/>
      <point x="48" y="617" type="qcurve"/>
      <point x="65" y="610"/>
      <point x="125" y="599" type="qcurve"/>
      <point x="150" y="595"/>
      <point x="164" y="592" type="qcurve"/>
      <point x="222" y="583" type="line"/>
      <point x="180" y="540" type="line"/>
      <point x="167" y="526"/>
      <point x="144" y="502" type="qcurve"/>
      <point x="115" y="474"/>
      <point x="106" y="462" type="qcurve"/>
      <point x="92" y="444"/>
      <point x="92" y="415"/>
      <point x="111" y="398"/>
    </contour>
  </outline>
</glyph>
<glyph name="plus" format="2">
  <advance width="576" height="1000"/>
  <unicode hex="002B"/>
  <outline>
    <contour>
      <point x="262" y="89" type="line"/>
      <point x="315" y="89" type="line"/>
      <point x="315" y="336" type="line"/>
      <point x="542" y="336" type="line"/>
      <point x="542" y="385" type="line"/>
      <point x="315" y="385" type="line"/>
      <point x="315" y="626" type="line"/>
      <point x="262" y="626" type="line"/>
      <point x="262" y="385" type="line"/>
      <point x="35" y="385" type="line"/>
      <point x="35" y="336" type="line"/>
      <point x="262" y="336" type="line"/>
    </contour>
  </outline>
</glyph>
<glyph name="period" format="2">
  <advance width="326" height="1000"/>
  <unicode hex="002E"/>
  <outline>
    <contour>
      <point x="163" y="121" type="qcurve"/>
      <point x="135" y="121"/>
      <point x="97" y="81"/>
      <point x="97" y="26"/>
      <point x="135" y="-13"/>
      <point x="191" y="-13"/>
      <point x="229" y="26"/>
      <point x="229" y="81"/>
      <point x="191" y="121"/>
    </contour>
  </outline>
</glyph>
<glyph name="zero" format="2">
  <advance width="539" height="1000"/>
  <unicode hex="0030"/>
  <outline>
    <contour>
      <point x="271" y="-14" type="qcurve"/>
      <point x="366" y="-14"/>
      <point x="424" y="72" type="qcurve"/>
      <point x="492" y="173"/>
      <point x="492" y="371" type="qcurve"/>
      <point x="492" y="561"/>
      <point x="424" y="659" type="qcurve"/>
      <point x="365" y="744"/>
      <point x="176" y="744"/>
      <point x="116" y="659" type="qcurve"/>
      <point x="47" y="561"/>
      <point x="47" y="371" type="qcurve"/>
      <point x="47" y="173"/>
      <point x="116" y="72" type="qcurve"/>
      <point x="175" y="-14"/>
    </contour>
    <contour>
      <point x="271" y="26" type="qcurve"/>
      <point x="209" y="26"/>
      <point x="174" y="97" type="qcurve"/>
      <point x="130" y="183"/>
      <point x="130" y="371" type="qcurve"/>
      <point x="130" y="550"/>
      <point x="174" y="634" type="qcurve"/>
      <point x="209" y="703"/>
      <point x="271" y="703" type="qcurve"/>
      <point x="331" y="703"/>
      <point x="366" y="634" type="qcurve"/>
      <point x="409" y="550"/>
      <point x="409" y="371" type="qcurve"/>
      <point x="409" y="184"/>
      <point x="366" y="97" type="qcurve"/>
      <point x="331" y="26"/>
    </contour>
  </outline>
</glyph>
<glyph name="two" format="2">
  <advance width="547" height="1000"/>
  <unicode hex="0032"/>
  <outline>
    <contour>
      <point x="54" y="0" type="line"/>
      <point x="499" y="0" type="line"/>
      <point x="499" y="69" type="line"/>
      <point x="109" y="69" type="line"/>
      <point x="115" y="75"/>
      <point x="126" y="88" type="qcurve"/>
      <point x="234" y="206"/>
      <point x="259" y="232" type="qcurve"/>
      <point x="380" y="358"/>
      <point x="420" y="417" type="qcurve"/>
      <point x="468" y="488"/>
      <point x="468" y="552" type="qcurve"/>
      <point x="468" y="640"/>
      <point x="417" y="690" type="qcurve"/>
      <point x="365" y="742"/>
      <point x="267" y="742" type="qcurve"/>
      <point x="189" y="742"/>
      <point x="131" y="705" type="qcurve"/>
      <point x="71" y="666"/>
      <point x="53" y="599" type="qcurve"/>
      <point x="71" y="588" type="line"/>
      <point x="108" y="640"/>
      <point x="145" y="664" type="qcurve"/>
      <point x="189" y="695"/>
      <point x="245" y="695" type="qcurve"/>
      <point x="312" y="695"/>
      <point x="387" y="619"/>
      <point x="387" y="553" type="qcurve"/>
      <point x="387" y="491"/>
      <point x="352" y="427" type="qcurve"/>
      <point x="321" y="370"/>
      <point x="237" y="269" type="qcurve"/>
      <point x="221" y="250"/>
      <point x="183" y="205" type="qcurve"/>
      <point x="99" y="105"/>
      <point x="54" y="52" type="qcurve"/>
    </contour>
  </outline>
</glyph>
<glyph name="three" format="2">
  <advance width="547" height="1000"/>
  <unicode hex="0033"/>
  <outline>
    <contour>
      <point x="256" y="-15" type="qcurve"/>
      <point x="360" y="-15"/>
      <point x="492" y="97"/>
      <point x="492" y="188" type="qcurve"/>
      <point x="492" y="366"/>
      <point x="307" y="394" type="qcurve"/>
      <point x="385" y="413"/>
      <point x="429" y="462" type="qcurve"/>
      <point x="470" y="508"/>
      <point x="470" y="567" type="qcurve"/>
      <point x="470" y="645"/>
      <point x="367" y="742"/>
      <point x="282" y="742" type="qcurve"/>
      <point x="159" y="742"/>
      <point x="89" y="635" type="qcurve"/>
      <point x="106" y="619" type="line"/>
      <point x="148" y="663"/>
      <point x="184" y="682" type="qcurve"/>
      <point x="219" y="700"/>
      <point x="259" y="700" type="qcurve"/>
      <point x="314" y="700"/>
      <point x="350" y="667" type="qcurve"/>
      <point x="389" y="630"/>
      <point x="389" y="564" type="qcurve"/>
      <point x="389" y="492"/>
      <point x="342" y="450" type="qcurve"/>
      <point x="297" y="409"/>
      <point x="222" y="409" type="qcurve"/>
      <point x="181" y="409" type="line"/>
      <point x="181" y="375" type="line"/>
      <point x="227" y="375" type="line"/>
      <point x="317" y="375"/>
      <point x="410" y="280"/>
      <point x="410" y="191" type="qcurve"/>
      <point x="410" y="111"/>
      <point x="317" y="16"/>
      <point x="235" y="16" type="qcurve"/>
      <point x="193" y="16"/>
      <point x="157" y="31" type="qcurve"/>
      <point x="135" y="106" type="line"/>
      <point x="123" y="156"/>
      <point x="88" y="156" type="qcurve"/>
      <point x="58" y="156"/>
      <point x="47" y="126" type="qcurve"/>
      <point x="63" y="57"/>
      <point x="171" y="-15"/>
    </contour>
  </outline>
</glyph>
<glyph name="four" format="2">
  <advance width="539" height="1000"/>
  <unicode hex="0034"/>
  <outline>
    <contour>
      <point x="330" y="0" type="line"/>
      <point x="405" y="0" type="line"/>
      <point x="405" y="234" type="line"/>
      <point x="523" y="234" type="line"/>
      <point x="523" y="290" type="line"/>
      <point x="405" y="290" type="line"/>
      <point x="405" y="740" type="line"/>
      <point x="353" y="740" type="line"/>
      <point x="29" y="280" type="line"/>
      <point x="29" y="234" type="line"/>
      <point x="330" y="234" type="line"/>
    </contour>
    <contour>
      <point x="83" y="290" type="line"/>
      <point x="330" y="645" type="line"/>
      <point x="330" y="290" type="line"/>
    </contour>
  </outline>
</glyph>
<glyph name="five" format="2">
  <advance width="539" height="1000"/>
  <unicode hex="0035"/>
  <outline>
    <contour>
      <point x="241" y="-14" type="qcurve"/>
      <point x="353" y="-14"/>
      <point x="490" y="119"/>
      <point x="490" y="226" type="qcurve"/>
      <point x="490" y="334"/>
      <point x="426" y="395" type="qcurve"/>
      <point x="363" y="454"/>
      <point x="258" y="454" type="qcurve"/>
      <point x="199" y="454"/>
      <point x="145" y="436" type="qcurve"/>
      <point x="160" y="655" type="line"/>
      <point x="472" y="655" type="line"/>
      <point x="472" y="729" type="line"/>
      <point x="121" y="729" type="line"/>
      <point x="98" y="390" type="line"/>
      <point x="126" y="384" type="line"/>
      <point x="174" y="401"/>
      <point x="235" y="401" type="qcurve"/>
      <point x="315" y="401"/>
      <point x="362" y="354" type="qcurve"/>
      <point x="410" y="305"/>
      <point x="410" y="129"/>
      <point x="365" y="78" type="qcurve"/>
      <point x="319" y="26"/>
      <point x="236" y="26" type="qcurve"/>
      <point x="200" y="26"/>
      <point x="161" y="37" type="qcurve"/>
      <point x="141" y="102" type="line"/>
      <point x="131" y="137"/>
      <point x="109" y="163"/>
      <point x="88" y="163" type="qcurve"/>
      <point x="53" y="163"/>
      <point x="41" y="130" type="qcurve"/>
      <point x="76" y="-14"/>
    </contour>
  </outline>
</glyph>
<glyph name="six" format="2">
  <advance width="539" height="1000"/>
  <unicode hex="0036"/>
  <outline>
    <contour>
      <point x="276" y="-14" type="qcurve"/>
      <point x="373" y="-14"/>
      <point x="433" y="49" type="qcurve"/>
      <point x="494" y="114"/>
      <point x="494" y="226" type="qcurve"/>
      <point x="494" y="326"/>
      <point x="385" y="445"/>
      <point x="297" y="445" type="qcurve"/>
      <point x="204" y="445"/>
      <point x="131" y="369" type="qcurve"/>
      <point x="160" y="647"/>
      <point x="466" y="717" type="qcurve"/>
      <point x="461" y="744" type="line"/>
      <point x="267" y="721"/>
      <point x="154" y="592" type="qcurve"/>
      <point x="47" y="470"/>
      <point x="47" y="296" type="qcurve"/>
      <point x="47" y="151"/>
      <point x="169" y="-14"/>
    </contour>
    <contour>
      <point x="278" y="26" type="qcurve"/>
      <point x="207" y="26"/>
      <point x="168" y="98" type="qcurve"/>
      <point x="128" y="172"/>
      <point x="128" y="308" type="qcurve"/>
      <point x="128" y="319"/>
      <point x="128" y="330" type="qcurve"/>
      <point x="189" y="390"/>
      <point x="278" y="390" type="qcurve"/>
      <point x="341" y="390"/>
      <point x="376" y="347" type="qcurve"/>
      <point x="413" y="301"/>
      <point x="413" y="122"/>
      <point x="376" y="73" type="qcurve"/>
      <point x="340" y="26"/>
    </contour>
  </outline>
</glyph>
<glyph name="colon" format="2">
  <advance width="326" height="1000"/>
  <unicode hex="003A"/>
  <outline>
    <contour>
      <point x="163" y="532" type="qcurve"/>
      <point x="135" y="532"/>
      <point x="97" y="492"/>
      <point x="97" y="437"/>
      <point x="135" y="398"/>
      <point x="191" y="398"/>
      <point x="229" y="437"/>
      <point x="229" y="492"/>
      <point x="191" y="532"/>
    </contour>
    <contour>
      <point x="163" y="121" type="qcurve"/>
      <point x="135" y="121"/>
      <point x="97" y="81"/>
      <point x="97" y="26"/>
      <point x="135" y="-13"/>
      <point x="191" y="-13"/>
      <point x="229" y="26"/>
      <point x="229" y="81"/>
      <point x="191" y="121"/>
    </contour>
  </outline>
</glyph>
<glyph name="less" format="2">
  <advance width="576" height="1000"/>
  <unicode hex="003C"/>
  <outline>
    <contour>
      <point x="485" y="93" type="line"/>
      <point x="510" y="137" type="line"/>
      <point x="121" y="360" type="line"/>
      <point x="510" y="583" type="line"/>
      <point x="485" y="626" type="line"/>
      <point x="64" y="379" type="line"/>
      <point x="64" y="340" type="line"/>
    </contour>
  </outline>
</glyph>
<glyph name="equal" format="2">
  <advance width="576" height="1000"/>
  <unicode hex="003D"/>
  <outline>
    <contour>
      <point x="35" y="445" type="line"/>
      <point x="542" y="445" type="line"/>
      <point x="542" y="494" type="line"/>
      <point x="35" y="494" type="line"/>
    </contour>
    <contour>
      <point x="35" y="227" type="line"/>
      <point x="542" y="227" type="line"/>
      <point x="542" y="276" type="line"/>
      <point x="35" y="276" type="line"/>
    </contour>
  </outline>
</glyph>
<glyph name="greater" format="2">
  <advance width="576" height="1000"/>
  <unicode hex="003E"/>
  <outline>
    <contour>
      <point x="91" y="95" type="line"/>
      <point x="512" y="341" type="line"/>
      <point x="512" y="380" type="line"/>
      <point x="91" y="627" type="line"/>
      <point x="66" y="584" type="line"/>
      <point x="455" y="361" type="line"/>
      <point x="66" y="138" type="line"/>
    </contour>
  </outline>
</glyph>
<glyph name="question" format="2">
  <advance width="494" height="1000"/>
  <unicode hex="003F"/>
  <outline>
    <contour>
      <point x="200" y="209" type="qcurve"/>
      <point x="230" y="209" type="line"/>
      <point x="230" y="270" type="line"/>
      <point x="230" y="305"/>
      <point x="250" y="330" type="qcurve"/>
      <point x="265" y="350"/>
      <point x="317" y="390" type="qcurve"/>
      <point x="386" y="443"/>
      <point x="413" y="485" type="qcurve"/>
      <point x="442" y="529"/>
      <point x="442" y="588" type="qcurve"/>
      <point x="442" y="664"/>
      <point x="391" y="707" type="qcurve"/>
      <point x="342" y="748"/>
      <point x="259" y="748" type="qcurve"/>
      <point x="135" y="748"/>
      <point x="66" y="641" type="qcurve"/>
      <point x="84" y="627" type="line"/>
      <point x="142" y="702"/>
      <point x="237" y="702" type="qcurve"/>
      <point x="290" y="702"/>
      <point x="325" y="673" type="qcurve"/>
      <point x="363" y="641"/>
      <point x="363" y="588" type="qcurve"/>
      <point x="363" y="542"/>
      <point x="326" y="476"/>
      <point x="272" y="427" type="qcurve"/>
      <point x="222" y="382"/>
      <point x="207" y="359" type="qcurve"/>
      <point x="189" y="333"/>
      <point x="189" y="302" type="qcurve"/>
      <point x="189" y="281"/>
      <point x="197" y="227" type="qcurve"/>
      <point x="199" y="215"/>
    </contour>
    <contour>
      <point x="220" y="-13" type="qcurve"/>
      <point x="245" y="-13"/>
      <point x="278" y="21"/>
      <point x="278" y="69"/>
      <point x="245" y="101"/>
      <point x="195" y="101"/>
      <point x="161" y="68"/>
      <point x="161" y="21"/>
      <point x="195" y="-13"/>
    </contour>
  </outline>
</glyph>
<glyph name="at" format="2">
  <advance width="901" height="1000"/>
  <unicode hex="0040"/>
  <outline>
    <contour>
      <point x="427" y="-168" type="qcurve"/>
      <point x="544" y="-168"/>
      <point x="633" y="-123" type="qcurve"/>
      <point x="623" y="-98" type="line"/>
      <point x="546" y="-135"/>
      <point x="445" y="-135" type="qcurve"/>
      <point x="293" y="-135"/>
      <point x="195" y="-44" type="qcurve"/>
      <point x="89" y="55"/>
      <point x="89" y="229" type="qcurve"/>
      <point x="89" y="345"/>
      <point x="197" y="548"/>
      <point x="291" y="607" type="qcurve"/>
      <point x="390" y="670"/>
      <point x="509" y="670" type="qcurve"/>
      <point x="643" y="670"/>
      <point x="728" y="588" type="qcurve"/>
      <point x="815" y="504"/>
      <point x="815" y="366" type="qcurve"/>
      <point x="815" y="234"/>
      <point x="757" y="156" type="qcurve"/>
      <point x="707" y="89"/>
      <point x="639" y="89" type="qcurve"/>
      <point x="601" y="89"/>
      <point x="570" y="135"/>
      <point x="579" y="178" type="qcurve"/>
      <point x="642" y="496" type="line"/>
      <point x="625" y="509" type="line"/>
      <point x="577" y="480" type="line"/>
      <point x="546" y="510"/>
      <point x="503" y="510" type="qcurve"/>
      <point x="415" y="510"/>
      <point x="341" y="418" type="qcurve"/>
      <point x="302" y="372"/>
      <point x="280" y="316" type="qcurve"/>
      <point x="254" y="253"/>
      <point x="254" y="190" type="qcurve"/>
      <point x="254" y="120"/>
      <point x="289" y="82" type="qcurve"/>
      <point x="320" y="49"/>
      <point x="370" y="49" type="qcurve"/>
      <point x="441" y="49"/>
      <point x="518" y="138" type="qcurve"/>
      <point x="524" y="97"/>
      <point x="551" y="74" type="qcurve"/>
      <point x="578" y="49"/>
      <point x="623" y="49" type="qcurve"/>
      <point x="676" y="49"/>
      <point x="729" y="82" type="qcurve"/>
      <point x="788" y="118"/>
      <point x="823" y="183" type="qcurve"/>
      <point x="863" y="258"/>
      <point x="863" y="357" type="qcurve"/>
      <point x="863" y="512"/>
      <point x="770" y="607" type="qcurve"/>
      <point x="675" y="704"/>
      <point x="514" y="704" type="qcurve"/>
      <point x="381" y="704"/>
      <point x="270" y="638" type="qcurve"/>
      <point x="163" y="575"/>
      <point x="101" y="465" type="qcurve"/>
      <point x="38" y="353"/>
      <point x="38" y="220" type="qcurve"/>
      <point x="38" y="34"/>
      <point x="151" y="-70" type="qcurve"/>
      <point x="257" y="-168"/>
    </contour>
    <contour>
      <point x="397" y="102" type="qcurve"/>
      <point x="317" y="102"/>
      <point x="317" y="211" type="qcurve"/>
      <point x="317" y="312"/>
      <point x="382" y="401" type="qcurve"/>
      <point x="430" y="468"/>
      <point x="496" y="468" type="qcurve"/>
      <point x="538" y="468"/>
      <point x="566" y="429" type="qcurve"/>
      <point x="515" y="164" type="line"/>
      <point x="445" y="102"/>
    </contour>
  </outline>
</glyph>
<glyph name="B" format="2">
  <advance width="675" height="1000"/>
  <unicode hex="0042"/>
  <outline>
    <contour>
      <point x="52" y="0" type="line"/>
      <point x="346" y="0" type="line"/>
      <point x="485" y="0"/>
      <point x="560" y="61" type="qcurve"/>
      <point x="625" y="115"/>
      <point x="625" y="198" type="qcurve"/>
      <point x="625" y="270"/>
      <point x="576" y="316" type="qcurve"/>
      <point x="522" y="366"/>
      <point x="417" y="380" type="qcurve"/>
      <point x="504" y="399"/>
      <point x="548" y="447" type="qcurve"/>
      <point x="588" y="491"/>
      <point x="588" y="553" type="qcurve"/>
      <point x="588" y="633"/>
      <point x="528" y="680" type="qcurve"/>
      <point x="465" y="729"/>
      <point x="353" y="729" type="qcurve"/>
      <point x="52" y="729" type="line"/>
      <point x="52" y="694" type="line"/>
      <point x="156" y="683" type="line"/>
      <point x="159" y="587"/>
      <point x="159" y="393" type="qcurve"/>
      <point x="159" y="338" type="line"/>
      <point x="159" y="143"/>
      <point x="156" y="47" type="qcurve"/>
      <point x="52" y="36" type="line"/>
    </contour>
    <contour>
      <point x="245" y="41" type="line"/>
      <point x="242" y="139"/>
      <point x="242" y="358" type="qcurve"/>
      <point x="312" y="358" type="line"/>
      <point x="536" y="358"/>
      <point x="536" y="198" type="qcurve"/>
      <point x="536" y="122"/>
      <point x="430" y="41"/>
      <point x="326" y="41" type="qcurve"/>
    </contour>
    <contour>
      <point x="242" y="398" type="line"/>
      <point x="242" y="594"/>
      <point x="245" y="688" type="qcurve"/>
      <point x="326" y="688" type="line"/>
      <point x="418" y="688"/>
      <point x="504" y="622"/>
      <point x="504" y="550" type="qcurve"/>
      <point x="504" y="398"/>
      <point x="305" y="398" type="qcurve"/>
    </contour>
  </outline>
</glyph>
<glyph name="C" format="2">
  <advance width="690" height="1000"/>
  <unicode hex="0043"/>
  <outline>
    <contour>
      <point x="421" y="-16" type="qcurve"/>
      <point x="544" y="-16"/>
      <point x="638" y="38" type="qcurve"/>
      <point x="641" y="196" type="line"/>
      <point x="587" y="196" type="line"/>
      <point x="563" y="60" type="line"/>
      <point x="500" y="29"/>
      <point x="425" y="29" type="qcurve"/>
      <point x="303" y="29"/>
      <point x="229" y="116" type="qcurve"/>
      <point x="153" y="206"/>
      <point x="153" y="365" type="qcurve"/>
      <point x="153" y="522"/>
      <point x="233" y="613" type="qcurve"/>
      <point x="309" y="701"/>
      <point x="432" y="701" type="qcurve"/>
      <point x="495" y="701"/>
      <point x="553" y="670" type="qcurve"/>
      <point x="577" y="535" type="line"/>
      <point x="632" y="535" type="line"/>
      <point x="628" y="692" type="line"/>
      <point x="537" y="746"/>
      <point x="421" y="746" type="qcurve"/>
      <point x="263" y="746"/>
      <point x="55" y="531"/>
      <point x="55" y="365" type="qcurve"/>
      <point x="55" y="196"/>
      <point x="258" y="-16"/>
    </contour>
  </outline>
</glyph>
<glyph name="F" format="2">
  <advance width="629" height="1000"/>
  <unicode hex="0046"/>
  <outline>
    <contour>
      <point x="52" y="0" type="line"/>
      <point x="352" y="0" type="line"/>
      <point x="352" y="36" type="line"/>
      <point x="245" y="47" type="line"/>
      <point x="242" y="143"/>
      <point x="242" y="351" type="qcurve"/>
      <point x="423" y="351" type="line"/>
      <point x="437" y="237" type="line"/>
      <point x="479" y="237" type="line"/>
      <point x="479" y="499" type="line"/>
      <point x="437" y="499" type="line"/>
      <point x="424" y="391" type="line"/>
      <point x="242" y="391" type="line"/>
      <point x="242" y="591"/>
      <point x="245" y="685" type="qcurve"/>
      <point x="519" y="685" type="line"/>
      <point x="545" y="541" type="line"/>
      <point x="595" y="541" type="line"/>
      <point x="587" y="729" type="line"/>
      <point x="52" y="729" type="line"/>
      <point x="52" y="694" type="line"/>
      <point x="156" y="683" type="line"/>
      <point x="159" y="587"/>
      <point x="159" y="392" type="qcurve"/>
      <point x="159" y="337" type="line"/>
      <point x="159" y="142"/>
      <point x="156" y="47" type="qcurve"/>
      <point x="52" y="36" type="line"/>
    </contour>
  </outline>
</glyph>
<glyph name="J" format="2">
  <advance width="402" height="1000"/>
  <unicode hex="004A"/>
  <outline>
    <contour>
      <point x="43" y="-173" type="qcurve"/>
      <point x="117" y="-173"/>
      <point x="173" y="-127" type="qcurve"/>
      <point x="232" y="-78"/>
      <point x="246" y="8" type="qcurve"/>
      <point x="257" y="75"/>
      <point x="257" y="218" type="qcurve"/>
      <point x="257" y="391" type="line"/>
      <point x="257" y="588"/>
      <point x="259" y="683" type="qcurve"/>
      <point x="363" y="694" type="line"/>
      <point x="363" y="729" type="line"/>
      <point x="55" y="729" type="line"/>
      <point x="55" y="694" type="line"/>
      <point x="170" y="682" type="line"/>
      <point x="173" y="358"/>
      <point x="177" y="120" type="qcurve"/>
      <point x="178" y="49"/>
      <point x="178" y="29" type="qcurve"/>
      <point x="178" y="-83"/>
      <point x="119" y="-129" type="qcurve"/>
      <point x="93" y="-110" type="line"/>
      <point x="53" y="-80"/>
      <point x="17" y="-80" type="qcurve"/>
      <point x="-35" y="-80"/>
      <point x="-42" y="-127" type="qcurve"/>
      <point x="-30" y="-173"/>
    </contour>
  </outline>
</glyph>
<glyph name="L" format="2">
  <advance width="640" height="1000"/>
  <unicode hex="004C"/>
  <outline>
    <contour>
      <point x="52" y="0" type="line"/>
      <point x="585" y="0" type="line"/>
      <point x="594" y="199" type="line"/>
      <point x="541" y="199" type="line"/>
      <point x="509" y="45" type="line"/>
      <point x="245" y="45" type="line"/>
      <point x="242" y="140"/>
      <point x="242" y="317" type="qcurve"/>
      <point x="242" y="387" type="line"/>
      <point x="242" y="587"/>
      <point x="245" y="683" type="qcurve"/>
      <point x="349" y="694" type="line"/>
      <point x="349" y="729" type="line"/>
      <point x="52" y="729" type="line"/>
      <point x="52" y="694" type="line"/>
      <point x="156" y="683" type="line"/>
      <point x="159" y="588"/>
      <point x="159" y="392" type="qcurve"/>
      <point x="159" y="336" type="line"/>
      <point x="159" y="143"/>
      <point x="156" y="47" type="qcurve"/>
      <point x="52" y="36" type="line"/>
    </contour>
  </outline>
</glyph>
<glyph name="O" format="2">
  <advance width="769" height="1000"/>
  <unicode hex="004F"/>
  <outline>
    <contour>
      <point x="385" y="-16" type="qcurve"/>
      <point x="471" y="-16"/>
      <point x="545" y="30" type="qcurve"/>
      <point x="621" y="77"/>
      <point x="665" y="161" type="qcurve"/>
      <point x="712" y="251"/>
      <point x="712" y="365" type="qcurve"/>
      <point x="712" y="540"/>
      <point x="612" y="647" type="qcurve"/>
      <point x="520" y="746"/>
      <point x="385" y="746" type="qcurve"/>
      <point x="298" y="746"/>
      <point x="223" y="700" type="qcurve"/>
      <point x="147" y="652"/>
      <point x="103" y="569" type="qcurve"/>
      <point x="55" y="479"/>
      <point x="55" y="365" type="qcurve"/>
      <point x="55" y="190"/>
      <point x="156" y="83" type="qcurve"/>
      <point x="249" y="-16"/>
    </contour>
    <contour>
      <point x="385" y="28" type="qcurve"/>
      <point x="273" y="28"/>
      <point x="210" y="132" type="qcurve"/>
      <point x="153" y="225"/>
      <point x="153" y="505"/>
      <point x="210" y="598" type="qcurve"/>
      <point x="273" y="701"/>
      <point x="385" y="701" type="qcurve"/>
      <point x="496" y="701"/>
      <point x="559" y="598" type="qcurve"/>
      <point x="615" y="505"/>
      <point x="615" y="225"/>
      <point x="559" y="132" type="qcurve"/>
      <point x="496" y="28"/>
    </contour>
  </outline>
</glyph>
<glyph name="Q" format="2">
  <advance width="769" height="1000"/>
  <unicode hex="0051"/>
  <outline>
    <contour>
      <point x="541" y="-230" type="qcurve"/>
      <point x="618" y="-230"/>
      <point x="671" y="-197" type="qcurve"/>
      <point x="661" y="-167" type="line"/>
      <point x="612" y="-183"/>
      <point x="573" y="-183" type="qcurve"/>
      <point x="504" y="-183"/>
      <point x="422" y="-94"/>
      <point x="421" y="-14" type="qcurve"/>
      <point x="544" y="1"/>
      <point x="625" y="100" type="qcurve"/>
      <point x="712" y="206"/>
      <point x="712" y="365" type="qcurve"/>
      <point x="712" y="540"/>
      <point x="612" y="647" type="qcurve"/>
      <point x="520" y="746"/>
      <point x="385" y="746" type="qcurve"/>
      <point x="298" y="746"/>
      <point x="223" y="700" type="qcurve"/>
      <point x="147" y="652"/>
      <point x="103" y="569" type="qcurve"/>
      <point x="55" y="479"/>
      <point x="55" y="365" type="qcurve"/>
      <point x="55" y="206"/>
      <point x="139" y="102" type="qcurve"/>
      <point x="217" y="6"/>
      <point x="337" y="-12" type="qcurve"/>
      <point x="338" y="-104"/>
      <point x="390" y="-164" type="qcurve"/>
      <point x="446" y="-230"/>
    </contour>
    <contour>
      <point x="385" y="28" type="qcurve"/>
      <point x="273" y="28"/>
      <point x="210" y="132" type="qcurve"/>
      <point x="153" y="225"/>
      <point x="153" y="505"/>
      <point x="210" y="598" type="qcurve"/>
      <point x="273" y="701"/>
      <point x="385" y="701" type="qcurve"/>
      <point x="496" y="701"/>
      <point x="559" y="598" type="qcurve"/>
      <point x="615" y="505"/>
      <point x="615" y="225"/>
      <point x="559" y="132" type="qcurve"/>
      <point x="496" y="28"/>
    </contour>
  </outline>
</glyph>
<glyph name="R" format="2">
  <advance width="707" height="1000"/>
  <unicode hex="0052"/>
  <outline>
    <contour>
      <point x="612" y="-10" type="qcurve"/>
      <point x="653" y="-10"/>
      <point x="689" y="0" type="qcurve"/>
      <point x="689" y="36" type="line"/>
      <point x="599" y="45" type="line"/>
      <point x="545" y="222" type="line"/>
      <point x="526" y="282"/>
      <point x="471" y="342"/>
      <point x="425" y="352" type="qcurve"/>
      <point x="512" y="368"/>
      <point x="562" y="420" type="qcurve"/>
      <point x="608" y="470"/>
      <point x="608" y="538" type="qcurve"/>
      <point x="608" y="629"/>
      <point x="473" y="729"/>
      <point x="350" y="729" type="qcurve"/>
      <point x="52" y="729" type="line"/>
      <point x="52" y="694" type="line"/>
      <point x="156" y="683" type="line"/>
      <point x="159" y="587"/>
      <point x="159" y="392" type="qcurve"/>
      <point x="159" y="337" type="line"/>
      <point x="159" y="142"/>
      <point x="156" y="47" type="qcurve"/>
      <point x="52" y="36" type="line"/>
      <point x="52" y="0" type="line"/>
      <point x="349" y="0" type="line"/>
      <point x="349" y="36" type="line"/>
      <point x="245" y="47" type="line"/>
      <point x="242" y="141"/>
      <point x="242" y="339" type="qcurve"/>
      <point x="309" y="339" type="line"/>
      <point x="380" y="339"/>
      <point x="410" y="319" type="qcurve"/>
      <point x="442" y="297"/>
      <point x="459" y="233" type="qcurve"/>
      <point x="509" y="53" type="line"/>
      <point x="518" y="19"/>
      <point x="564" y="-10"/>
    </contour>
    <contour>
      <point x="242" y="379" type="line"/>
      <point x="242" y="592"/>
      <point x="245" y="688" type="qcurve"/>
      <point x="348" y="688" type="line"/>
      <point x="521" y="688"/>
      <point x="521" y="539" type="qcurve"/>
      <point x="521" y="468"/>
      <point x="475" y="425" type="qcurve"/>
      <point x="426" y="379"/>
      <point x="341" y="379" type="qcurve"/>
    </contour>
  </outline>
</glyph>
<glyph name="S" format="2">
  <advance width="557" height="1000"/>
  <unicode hex="0053"/>
  <outline>
    <contour>
      <point x="257" y="-16" type="qcurve"/>
      <point x="369" y="-16"/>
      <point x="438" y="38" type="qcurve"/>
      <point x="510" y="94"/>
      <point x="510" y="188" type="qcurve"/>
      <point x="510" y="264"/>
      <point x="420" y="364"/>
      <point x="310" y="408" type="qcurve"/>
      <point x="267" y="424" type="line"/>
      <point x="204" y="448"/>
      <point x="174" y="482" type="qcurve"/>
      <point x="140" y="518"/>
      <point x="140" y="571" type="qcurve"/>
      <point x="140" y="634"/>
      <point x="185" y="668" type="qcurve"/>
      <point x="227" y="701"/>
      <point x="298" y="701" type="qcurve"/>
      <point x="352" y="701"/>
      <point x="394" y="676" type="qcurve"/>
      <point x="418" y="549" type="line"/>
      <point x="471" y="549" type="line"/>
      <point x="476" y="689" type="line"/>
      <point x="398" y="746"/>
      <point x="300" y="746" type="qcurve"/>
      <point x="198" y="746"/>
      <point x="133" y="695" type="qcurve"/>
      <point x="64" y="641"/>
      <point x="64" y="550" type="qcurve"/>
      <point x="64" y="475"/>
      <point x="114" y="421" type="qcurve"/>
      <point x="158" y="373"/>
      <point x="247" y="337" type="qcurve"/>
      <point x="288" y="321" type="line"/>
      <point x="368" y="289"/>
      <point x="400" y="257" type="qcurve"/>
      <point x="434" y="224"/>
      <point x="434" y="171" type="qcurve"/>
      <point x="434" y="103"/>
      <point x="384" y="65" type="qcurve"/>
      <point x="336" y="29"/>
      <point x="252" y="29" type="qcurve"/>
      <point x="183" y="29"/>
      <point x="129" y="60" type="qcurve"/>
      <point x="105" y="192" type="line"/>
      <point x="54" y="192" type="line"/>
      <point x="49" y="42" type="line"/>
      <point x="88" y="17"/>
      <point x="140" y="1" type="qcurve"/>
      <point x="199" y="-16"/>
    </contour>
  </outline>
</glyph>
<glyph name="X" format="2">
  <advance width="702" height="1000"/>
  <unicode hex="0058"/>
  <outline>
    <contour>
      <point x="15" y="0" type="line"/>
      <point x="263" y="0" type="line"/>
      <point x="263" y="36" type="line"/>
      <point x="168" y="49" type="line"/>
      <point x="336" y="321" type="line"/>
      <point x="499" y="46" type="line"/>
      <point x="396" y="36" type="line"/>
      <point x="396" y="0" type="line"/>
      <point x="688" y="0" type="line"/>
      <point x="688" y="36" type="line"/>
      <point x="594" y="46" type="line"/>
      <point x="387" y="394" type="line"/>
      <point x="571" y="681" type="line"/>
      <point x="669" y="694" type="line"/>
      <point x="669" y="729" type="line"/>
      <point x="420" y="729" type="line"/>
      <point x="420" y="694" type="line"/>
      <point x="520" y="681" type="line"/>
      <point x="366" y="429" type="line"/>
      <point x="214" y="683" type="line"/>
      <point x="318" y="694" type="line"/>
      <point x="318" y="729" type="line"/>
      <point x="24" y="729" type="line"/>
      <point x="24" y="694" type="line"/>
      <point x="120" y="683" type="line"/>
      <point x="315" y="356" type="line"/>
      <point x="118" y="49" type="line"/>
      <point x="15" y="36" type="line"/>
    </contour>
  </outline>
</glyph>
<glyph name="bracketleft" format="2">
  <advance width="341" height="1000"/>
  <unicode hex="005B"/>
  <outline>
    <contour>
      <point x="109" y="-173" type="qcurve"/>
      <point x="303" y="-173" type="line"/>
      <point x="303" y="-136" type="line"/>
      <point x="181" y="-124" type="line"/>
      <point x="178" y="-25"/>
      <point x="178" y="172" type="qcurve"/>
      <point x="178" y="433" type="line"/>
      <point x="178" y="631"/>
      <point x="180" y="728" type="qcurve"/>
      <point x="303" y="740" type="line"/>
      <point x="303" y="777" type="line"/>
      <point x="109" y="777" type="line"/>
      <point x="112" y="663"/>
      <point x="112" y="433" type="qcurve"/>
      <point x="112" y="172" type="line"/>
      <point x="112" y="-61"/>
    </contour>
  </outline>
</glyph>
<glyph name="backslash" format="2">
  <advance width="348" height="1000"/>
  <unicode hex="005C"/>
  <outline>
    <contour>
      <point x="293" y="-174" type="line"/>
      <point x="345" y="-174" type="line"/>
      <point x="53" y="772" type="line"/>
      <point x="3" y="772" type="line"/>
    </contour>
  </outline>
</glyph>
<glyph name="underscore" format="2">
  <advance width="555" height="1000"/>
  <unicode hex="005F"/>
  <outline>
    <contour>
      <point x="43" y="-64" type="line"/>
      <point x="512" y="-64" type="line"/>
      <point x="512" y="-7" type="line"/>
      <point x="43" y="-7" type="line"/>
    </contour>
  </outline>
</glyph>
<glyph name="grave" format="2">
  <advance width="435" height="1000"/>
  <unicode hex="0060"/>
  <outline>
    <contour>
      <point x="254" y="608" type="qcurve"/>
      <point x="276" y="624" type="line"/>
      <point x="263" y="643"/>
      <point x="239" y="682" type="qcurve"/>
      <point x="198" y="745"/>
      <point x="177" y="776" type="qcurve"/>
      <point x="151" y="819"/>
      <point x="124" y="819" type="qcurve"/>
      <point x="109" y="819"/>
      <point x="88" y="800"/>
      <point x="88" y="783" type="qcurve"/>
      <point x="88" y="760"/>
      <point x="124" y="728" type="qcurve"/>
      <point x="132" y="721"/>
      <point x="148" y="706" type="qcurve"/>
      <point x="218" y="641"/>
    </contour>
  </outline>
</glyph>
<glyph name="f" format="2">
  <advance width="385" height="1000"/>
  <unicode hex="0066"/>
  <outline>
    <contour>
      <point x="38" y="0" type="line"/>
      <point x="313" y="0" type="line"/>
      <point x="313" y="32" type="line"/>
      <point x="211" y="45" type="line"/>
      <point x="209" y="167"/>
      <point x="209" y="228" type="qcurve"/>
      <point x="209" y="468" type="line"/>
      <point x="364" y="468" type="line"/>
      <point x="364" y="514" type="line"/>
      <point x="207" y="514" type="line"/>
      <point x="203" y="667"/>
      <point x="247" y="732" type="qcurve"/>
      <point x="265" y="761"/>
      <point x="294" y="776" type="qcurve"/>
      <point x="323" y="753" type="line"/>
      <point x="363" y="722"/>
      <point x="398" y="722" type="qcurve"/>
      <point x="423" y="722"/>
      <point x="452" y="745"/>
      <point x="454" y="764" type="qcurve"/>
      <point x="446" y="790"/>
      <point x="418" y="804" type="qcurve"/>
      <point x="393" y="817"/>
      <point x="355" y="817" type="qcurve"/>
      <point x="268" y="817"/>
      <point x="210" y="752" type="qcurve"/>
      <point x="174" y="715"/>
      <point x="157" y="660" type="qcurve"/>
      <point x="139" y="605"/>
      <point x="134" y="517" type="qcurve"/>
      <point x="37" y="505" type="line"/>
      <point x="37" y="468" type="line"/>
      <point x="133" y="468" type="line"/>
      <point x="133" y="228" type="line"/>
      <point x="133" y="167"/>
      <point x="131" y="45" type="qcurve"/>
      <point x="38" y="32" type="line"/>
    </contour>
  </outline>
</glyph>
<glyph name="n" format="2">
  <advance width="658" height="1000"/>
  <unicode hex="006E"/>
  <outline>
    <contour>
      <point x="45" y="0" type="line"/>
      <point x="289" y="0" type="line"/>
      <point x="289" y="32" type="line"/>
      <point x="210" y="45" type="line"/>
      <point x="208" y="155"/>
      <point x="208" y="228" type="qcurve"/>
      <point x="208" y="386" type="line"/>
      <point x="295" y="466"/>
      <point x="372" y="466" type="qcurve"/>
      <point x="421" y="466"/>
      <point x="443" y="436" type="qcurve"/>
      <point x="466" y="404"/>
      <point x="466" y="328" type="qcurve"/>
      <point x="466" y="228" type="line"/>
      <point x="466" y="154"/>
      <point x="464" y="44" type="qcurve"/>
      <point x="379" y="32" type="line"/>
      <point x="379" y="0" type="line"/>
      <point x="624" y="0" type="line"/>
      <point x="624" y="32" type="line"/>
      <point x="545" y="45" type="line"/>
      <point x="542" y="128"/>
      <point x="542" y="228" type="qcurve"/>
      <point x="542" y="332" type="line"/>
      <point x="542" y="436"/>
      <point x="508" y="483" type="qcurve"/>
      <point x="475" y="528"/>
      <point x="405" y="528" type="qcurve"/>
      <point x="355" y="528"/>
      <point x="249" y="473"/>
      <point x="205" y="425" type="qcurve"/>
      <point x="197" y="517" type="line"/>
      <point x="183" y="527" type="line"/>
      <point x="39" y="474" type="line"/>
      <point x="39" y="442" type="line"/>
      <point x="128" y="435" type="line"/>
      <point x="128" y="432"/>
      <point x="128" y="425" type="qcurve"/>
      <point x="132" y="342"/>
      <point x="132" y="283" type="qcurve"/>
      <point x="132" y="228" type="line"/>
      <point x="132" y="128"/>
      <point x="129" y="44" type="qcurve"/>
      <point x="45" y="32" type="line"/>
    </contour>
  </outline>
</glyph>
<glyph name="p" format="2">
  <advance width="630" height="1000"/>
  <unicode hex="0070"/>
  <outline>
    <contour>
      <point x="40" y="-262" type="line"/>
      <point x="311" y="-262" type="line"/>
      <point x="311" y="-230" type="line"/>
      <point x="208" y="-217" type="line"/>
      <point x="205" y="-126"/>
      <point x="205" y="-32" type="qcurve"/>
      <point x="205" y="61" type="line"/>
      <point x="267" y="-14"/>
      <point x="358" y="-14" type="qcurve"/>
      <point x="455" y="-14"/>
      <point x="517" y="60" type="qcurve"/>
      <point x="579" y="136"/>
      <point x="579" y="261" type="qcurve"/>
      <point x="579" y="382"/>
      <point x="520" y="456" type="qcurve"/>
      <point x="462" y="528"/>
      <point x="373" y="528" type="qcurve"/>
      <point x="278" y="528"/>
      <point x="204" y="445" type="qcurve"/>
      <point x="198" y="517" type="line"/>
      <point x="184" y="527" type="line"/>
      <point x="39" y="474" type="line"/>
      <point x="39" y="442" type="line"/>
      <point x="129" y="435" type="line"/>
      <point x="133" y="372"/>
      <point x="133" y="282" type="qcurve"/>
      <point x="133" y="-34" type="line"/>
      <point x="133" y="-97"/>
      <point x="131" y="-217" type="qcurve"/>
      <point x="40" y="-230" type="line"/>
    </contour>
    <contour>
      <point x="341" y="37" type="qcurve"/>
      <point x="269" y="37"/>
      <point x="209" y="97" type="qcurve"/>
      <point x="209" y="413" type="line"/>
      <point x="281" y="478"/>
      <point x="350" y="478" type="qcurve"/>
      <point x="417" y="478"/>
      <point x="457" y="421" type="qcurve"/>
      <point x="499" y="360"/>
      <point x="499" y="145"/>
      <point x="452" y="88" type="qcurve"/>
      <point x="410" y="37"/>
    </contour>
  </outline>
</glyph>
<glyph name="q" format="2">
  <advance width="602" height="1000"/>
  <unicode hex="0071"/>
  <outline>
    <contour>
      <point x="328" y="-262" type="line"/>
      <point x="598" y="-262" type="line"/>
      <point x="598" y="-230" type="line"/>
      <point x="508" y="-217" type="line"/>
      <point x="505" y="-126"/>
      <point x="505" y="-32" type="qcurve"/>
      <point x="505" y="371" type="line"/>
      <point x="509" y="517" type="line"/>
      <point x="494" y="526" type="line"/>
      <point x="432" y="450" type="line"/>
      <point x="369" y="528"/>
      <point x="279" y="528" type="qcurve"/>
      <point x="180" y="528"/>
      <point x="116" y="452" type="qcurve"/>
      <point x="51" y="375"/>
      <point x="51" y="251" type="qcurve"/>
      <point x="51" y="134"/>
      <point x="173" y="-14"/>
      <point x="271" y="-14" type="qcurve"/>
      <point x="371" y="-14"/>
      <point x="433" y="74" type="qcurve"/>
      <point x="433" y="-32" type="line"/>
      <point x="433" y="-93"/>
      <point x="431" y="-217" type="qcurve"/>
      <point x="328" y="-230" type="line"/>
    </contour>
    <contour>
      <point x="292" y="36" type="qcurve"/>
      <point x="220" y="36"/>
      <point x="178" y="88" type="qcurve"/>
      <point x="132" y="145"/>
      <point x="132" y="253" type="qcurve"/>
      <point x="132" y="364"/>
      <point x="180" y="424" type="qcurve"/>
      <point x="223" y="478"/>
      <point x="293" y="478" type="qcurve"/>
      <point x="359" y="478"/>
      <point x="429" y="413" type="qcurve"/>
      <point x="429" y="109" type="line"/>
      <point x="395" y="70"/>
      <point x="331" y="36"/>
    </contour>
  </outline>
</glyph>
<glyph name="s" format="2">
  <advance width="470" height="1000"/>
  <unicode hex="0073"/>
  <outline>
    <contour>
      <point x="218" y="-14" type="qcurve"/>
      <point x="315" y="-14"/>
      <point x="372" y="32" type="qcurve"/>
      <point x="423" y="74"/>
      <point x="423" y="137" type="qcurve"/>
      <point x="423" y="188"/>
      <point x="390" y="225" type="qcurve"/>
      <point x="355" y="262"/>
      <point x="277" y="291" type="qcurve"/>
      <point x="238" y="305" type="line"/>
      <point x="180" y="327"/>
      <point x="159" y="346" type="qcurve"/>
      <point x="136" y="368"/>
      <point x="136" y="443"/>
      <point x="164" y="465" type="qcurve"/>
      <point x="193" y="488"/>
      <point x="246" y="488" type="qcurve"/>
      <point x="290" y="488"/>
      <point x="330" y="466" type="qcurve"/>
      <point x="348" y="377" type="line"/>
      <point x="392" y="377" type="line"/>
      <point x="396" y="485" type="line"/>
      <point x="322" y="528"/>
      <point x="246" y="528" type="qcurve"/>
      <point x="161" y="528"/>
      <point x="110" y="484" type="qcurve"/>
      <point x="63" y="443"/>
      <point x="63" y="382" type="qcurve"/>
      <point x="63" y="285"/>
      <point x="195" y="237" type="qcurve"/>
      <point x="245" y="218" type="line"/>
      <point x="301" y="197"/>
      <point x="324" y="176" type="qcurve"/>
      <point x="349" y="153"/>
      <point x="349" y="117" type="qcurve"/>
      <point x="349" y="75"/>
      <point x="317" y="51" type="qcurve"/>
      <point x="283" y="26"/>
      <point x="218" y="26" type="qcurve"/>
      <point x="167" y="26"/>
      <point x="124" y="45" type="qcurve"/>
      <point x="102" y="142" type="line"/>
      <point x="54" y="142" type="line"/>
      <point x="58" y="25" type="line"/>
      <point x="141" y="-14"/>
    </contour>
  </outline>
</glyph>
<glyph name="u" format="2">
  <advance width="639" height="1000"/>
  <unicode hex="0075"/>
  <outline>
    <contour>
      <point x="252" y="-14" type="qcurve"/>
      <point x="362" y="-14"/>
      <point x="447" y="91" type="qcurve"/>
      <point x="455" y="-9" type="line"/>
      <point x="597" y="0" type="line"/>
      <point x="597" y="32" type="line"/>
      <point x="520" y="44" type="line"/>
      <point x="520" y="358" type="line"/>
      <point x="524" y="510" type="line"/>
      <point x="513" y="521" type="line"/>
      <point x="365" y="508" type="line"/>
      <point x="365" y="476" type="line"/>
      <point x="447" y="462" type="line"/>
      <point x="445" y="130" type="line"/>
      <point x="368" y="50"/>
      <point x="282" y="50" type="qcurve"/>
      <point x="232" y="50"/>
      <point x="209" y="81" type="qcurve"/>
      <point x="185" y="114"/>
      <point x="185" y="190" type="qcurve"/>
      <point x="185" y="358" type="line"/>
      <point x="190" y="510" type="line"/>
      <point x="180" y="521" type="line"/>
      <point x="30" y="508" type="line"/>
      <point x="30" y="476" type="line"/>
      <point x="113" y="462" type="line"/>
      <point x="110" y="184" type="line"/>
      <point x="109" y="78"/>
      <point x="147" y="30" type="qcurve"/>
      <point x="181" y="-14"/>
    </contour>
  </outline>
</glyph>
<glyph name="v" format="2">
  <advance width="546" height="1000"/>
  <unicode hex="0076"/>
  <outline>
    <contour>
      <point x="258" y="-7" type="line"/>
      <point x="296" y="-7" type="line"/>
      <point x="474" y="467" type="line"/>
      <point x="537" y="479" type="line"/>
      <point x="537" y="514" type="line"/>
      <point x="335" y="514" type="line"/>
      <point x="335" y="479" type="line"/>
      <point x="426" y="466" type="line"/>
      <point x="294" y="90" type="line"/>
      <point x="151" y="468" type="line"/>
      <point x="247" y="479" type="line"/>
      <point x="247" y="514" type="line"/>
      <point x="-3" y="514" type="line"/>
      <point x="-3" y="479" type="line"/>
      <point x="63" y="470" type="line"/>
    </contour>
  </outline>
</glyph>
<glyph name="w" format="2">
  <advance width="829" height="1000"/>
  <unicode hex="0077"/>
  <outline>
    <contour>
      <point x="238" y="-7" type="line"/>
      <point x="271" y="-7" type="line"/>
      <point x="420" y="402" type="line"/>
      <point x="462" y="271"/>
      <point x="566" y="-7" type="qcurve"/>
      <point x="600" y="-7" type="line"/>
      <point x="758" y="467" type="line"/>
      <point x="821" y="479" type="line"/>
      <point x="821" y="514" type="line"/>
      <point x="622" y="514" type="line"/>
      <point x="622" y="479" type="line"/>
      <point x="709" y="466" type="line"/>
      <point x="599" y="104" type="line"/>
      <point x="465" y="467" type="line"/>
      <point x="549" y="479" type="line"/>
      <point x="549" y="514" type="line"/>
      <point x="320" y="514" type="line"/>
      <point x="320" y="479" type="line"/>
      <point x="403" y="467" type="line"/>
      <point x="272" y="104" type="line"/>
      <point x="150" y="468" type="line"/>
      <point x="238" y="479" type="line"/>
      <point x="238" y="514" type="line"/>
      <point x="-1" y="514" type="line"/>
      <point x="-1" y="479" type="line"/>
      <point x="64" y="469" type="line"/>
    </contour>
  </outline>
</glyph>
<glyph name="bar" format="2">
  <advance width="270" height="1000"/>
  <unicode hex="007C"/>
  <outline>
    <contour>
      <point x="109" y="-272" type="line"/>
      <point x="161" y="-272" type="line"/>
      <point x="161" y="815" type="line"/>
      <point x="109" y="815" type="line"/>
    </contour>
  </outline>
</glyph>
<glyph name="exclamdown" format="2">
  <advance width="303" height="1000"/>
  <unicode hex="00A1"/>
  <outline>
    <contour>
      <point x="152" y="-227" type="qcurve"/>
      <point x="203" y="-227"/>
      <point x="203" y="-170" type="qcurve"/>
      <point x="203" y="-138"/>
      <point x="190" y="0" type="qcurve"/>
      <point x="183" y="77"/>
      <point x="179" y="123" type="qcurve"/>
      <point x="167" y="299" type="line"/>
      <point x="136" y="299" type="line"/>
      <point x="124" y="123" type="line"/>
      <point x="120" y="77"/>
      <point x="113" y="0" type="qcurve"/>
      <point x="100" y="-138"/>
      <point x="100" y="-170" type="qcurve"/>
      <point x="100" y="-227"/>
    </contour>
    <contour>
      <point x="152" y="411" type="qcurve"/>
      <point x="177" y="411"/>
      <point x="213" y="447"/>
      <point x="213" y="496"/>
      <point x="177" y="533"/>
      <point x="126" y="533"/>
      <point x="90" y="496"/>
      <point x="90" y="447"/>
      <point x="126" y="411"/>
    </contour>
  </outline>
</glyph>
<glyph name="cent" format="2">
  <advance width="539" height="1000"/>
  <unicode hex="00A2"/>
  <outline>
    <contour>
      <point x="272" y="-50" type="line"/>
      <point x="310" y="-50" type="line"/>
      <point x="310" y="69" type="line"/>
      <point x="442" y="78"/>
      <point x="489" y="197" type="qcurve"/>
      <point x="468" y="207" type="line"/>
      <point x="440" y="169"/>
      <point x="398" y="148" type="qcurve"/>
      <point x="357" y="128"/>
      <point x="310" y="127" type="qcurve"/>
      <point x="310" y="576" type="line"/>
      <point x="339" y="574"/>
      <point x="369" y="564" type="qcurve"/>
      <point x="384" y="512" type="line"/>
      <point x="401" y="446"/>
      <point x="441" y="446" type="qcurve"/>
      <point x="480" y="446"/>
      <point x="487" y="482" type="qcurve"/>
      <point x="474" y="539"/>
      <point x="376" y="613"/>
      <point x="310" y="616" type="qcurve"/>
      <point x="310" y="719" type="line"/>
      <point x="272" y="719" type="line"/>
      <point x="272" y="614" type="line"/>
      <point x="179" y="604"/>
      <point x="117" y="532" type="qcurve"/>
      <point x="50" y="456"/>
      <point x="50" y="341" type="qcurve"/>
      <point x="50" y="223"/>
      <point x="172" y="74"/>
      <point x="272" y="68" type="qcurve"/>
    </contour>
    <contour>
      <point x="272" y="130" type="line"/>
      <point x="206" y="143"/>
      <point x="167" y="200" type="qcurve"/>
      <point x="128" y="259"/>
      <point x="128" y="443"/>
      <point x="169" y="504" type="qcurve"/>
      <point x="207" y="561"/>
      <point x="272" y="573" type="qcurve"/>
    </contour>
  </outline>
</glyph>
<glyph name="currency" format="2">
  <advance width="542" height="1000"/>
  <unicode hex="00A4"/>
  <outline>
    <contour>
      <point x="66" y="120" type="qcurve"/>
      <point x="81" y="120"/>
      <point x="95" y="134" type="qcurve"/>
      <point x="107" y="147"/>
      <point x="129" y="183" type="qcurve"/>
      <point x="155" y="224" type="line"/>
      <point x="204" y="184"/>
      <point x="272" y="184" type="qcurve"/>
      <point x="338" y="184"/>
      <point x="386" y="224" type="qcurve"/>
      <point x="413" y="183" type="line"/>
      <point x="449" y="120"/>
      <point x="476" y="120" type="qcurve"/>
      <point x="490" y="120"/>
      <point x="511" y="140"/>
      <point x="511" y="169"/>
      <point x="483" y="196"/>
      <point x="448" y="217" type="qcurve"/>
      <point x="406" y="243" type="line"/>
      <point x="449" y="291"/>
      <point x="449" y="360" type="qcurve"/>
      <point x="449" y="427"/>
      <point x="407" y="475" type="qcurve"/>
      <point x="448" y="501" type="line"/>
      <point x="511" y="538"/>
      <point x="511" y="564" type="qcurve"/>
      <point x="511" y="578"/>
      <point x="491" y="599"/>
      <point x="476" y="599" type="qcurve"/>
      <point x="450" y="599"/>
      <point x="413" y="536" type="qcurve"/>
      <point x="387" y="495" type="line"/>
      <point x="336" y="535"/>
      <point x="272" y="535" type="qcurve"/>
      <point x="204" y="535"/>
      <point x="155" y="495" type="qcurve"/>
      <point x="129" y="536" type="line"/>
      <point x="108" y="572"/>
      <point x="81" y="599"/>
      <point x="66" y="599" type="qcurve"/>
      <point x="52" y="599"/>
      <point x="32" y="579"/>
      <point x="32" y="550"/>
      <point x="60" y="522"/>
      <point x="95" y="501" type="qcurve"/>
      <point x="135" y="475" type="line"/>
      <point x="92" y="429"/>
      <point x="92" y="291"/>
      <point x="135" y="243" type="qcurve"/>
      <point x="93" y="217" type="line"/>
      <point x="59" y="197"/>
      <point x="32" y="169"/>
      <point x="32" y="154" type="qcurve"/>
      <point x="32" y="140"/>
      <point x="52" y="120"/>
    </contour>
    <contour>
      <point x="272" y="227" type="qcurve"/>
      <point x="218" y="227"/>
      <point x="142" y="302"/>
      <point x="142" y="417"/>
      <point x="217" y="491"/>
      <point x="272" y="491" type="qcurve"/>
      <point x="325" y="491"/>
      <point x="361" y="454" type="qcurve"/>
      <point x="399" y="417"/>
      <point x="399" y="303"/>
      <point x="325" y="227"/>
    </contour>
  </outline>
</glyph>
<glyph name="section" format="2">
  <advance width="1000" height="1000"/>
  <unicode hex="00A7"/>
  <outline>
    <contour>
      <point x="489" y="-112" type="qcurve"/>
      <point x="579" y="-112"/>
      <point x="632" y="-66" type="qcurve"/>
      <point x="683" y="-22"/>
      <point x="683" y="50" type="qcurve"/>
      <point x="683" y="112"/>
      <point x="640" y="152" type="qcurve"/>
      <point x="680" y="179"/>
      <point x="701" y="217" type="qcurve"/>
      <point x="722" y="253"/>
      <point x="722" y="291" type="qcurve"/>
      <point x="722" y="359"/>
      <point x="680" y="403" type="qcurve"/>
      <point x="637" y="448"/>
      <point x="531" y="489" type="qcurve"/>
      <point x="453" y="520"/>
      <point x="423" y="552" type="qcurve"/>
      <point x="396" y="581"/>
      <point x="396" y="626" type="qcurve"/>
      <point x="396" y="677"/>
      <point x="459" y="732"/>
      <point x="518" y="732" type="qcurve"/>
      <point x="558" y="732"/>
      <point x="595" y="718" type="qcurve"/>
      <point x="622" y="646" type="line"/>
      <point x="638" y="600"/>
      <point x="671" y="600" type="qcurve"/>
      <point x="686" y="600"/>
      <point x="708" y="618"/>
      <point x="709" y="635" type="qcurve"/>
      <point x="694" y="698"/>
      <point x="593" y="766"/>
      <point x="515" y="766" type="qcurve"/>
      <point x="427" y="766"/>
      <point x="377" y="722" type="qcurve"/>
      <point x="328" y="680"/>
      <point x="328" y="612" type="qcurve"/>
      <point x="328" y="548"/>
      <point x="367" y="505" type="qcurve"/>
      <point x="325" y="478"/>
      <point x="303" y="438" type="qcurve"/>
      <point x="281" y="401"/>
      <point x="281" y="359" type="qcurve"/>
      <point x="281" y="293"/>
      <point x="322" y="247" type="qcurve"/>
      <point x="365" y="200"/>
      <point x="462" y="165" type="qcurve"/>
      <point x="552" y="130"/>
      <point x="615" y="78"/>
      <point x="615" y="35" type="qcurve"/>
      <point x="615" y="-19"/>
      <point x="547" y="-78"/>
      <point x="484" y="-78" type="qcurve"/>
      <point x="448" y="-78"/>
      <point x="415" y="-64" type="qcurve"/>
      <point x="387" y="8" type="line"/>
      <point x="371" y="54"/>
      <point x="337" y="54" type="qcurve"/>
      <point x="323" y="54"/>
      <point x="313" y="46" type="qcurve"/>
      <point x="301" y="36"/>
      <point x="300" y="20" type="qcurve"/>
      <point x="315" y="-44"/>
      <point x="413" y="-112"/>
    </contour>
    <contour>
      <point x="619" y="169" type="qcurve"/>
      <point x="573" y="201"/>
      <point x="492" y="230" type="qcurve"/>
      <point x="405" y="262"/>
      <point x="337" y="330"/>
      <point x="337" y="385" type="qcurve"/>
      <point x="337" y="444"/>
      <point x="387" y="486" type="qcurve"/>
      <point x="427" y="451"/>
      <point x="508" y="421" type="qcurve"/>
      <point x="598" y="386"/>
      <point x="665" y="321"/>
      <point x="665" y="269" type="qcurve"/>
      <point x="665" y="214"/>
    </contour>
  </outline>
</glyph>
<glyph name="dieresis" format="2">
  <advance width="435" height="1000"/>
  <unicode hex="00A8"/>
  <outline>
    <contour>
      <point x="328" y="770" type="qcurve"/>
      <point x="305" y="770"/>
      <point x="272" y="739"/>
      <point x="272" y="692"/>
      <point x="305" y="661"/>
      <point x="352" y="661"/>
      <point x="385" y="692"/>
      <point x="385" y="739"/>
      <point x="352" y="770"/>
    </contour>
    <contour>
      <point x="107" y="770" type="qcurve"/>
      <point x="83" y="770"/>
      <point x="50" y="739"/>
      <point x="50" y="692"/>
      <point x="83" y="661"/>
      <point x="130" y="661"/>
      <point x="163" y="692"/>
      <point x="163" y="739"/>
      <point x="130" y="770"/>
    </contour>
  </outline>
</glyph>
<glyph name="ordfeminine" format="2">
  <advance width="376" height="1000"/>
  <unicode hex="00AA"/>
  <outline>
    <contour>
      <point x="127" y="455" type="qcurve"/>
      <point x="159" y="455"/>
      <point x="186" y="471" type="qcurve"/>
      <point x="207" y="483"/>
      <point x="239" y="517" type="qcurve"/>
      <point x="247" y="458"/>
      <point x="305" y="458" type="qcurve"/>
      <point x="347" y="458"/>
      <point x="367" y="499" type="qcurve"/>
      <point x="354" y="511" type="line"/>
      <point x="338" y="495"/>
      <point x="324" y="495" type="qcurve"/>
      <point x="300" y="495"/>
      <point x="300" y="535" type="qcurve"/>
      <point x="300" y="692" type="line"/>
      <point x="300" y="758"/>
      <point x="272" y="788" type="qcurve"/>
      <point x="245" y="817"/>
      <point x="187" y="817" type="qcurve"/>
      <point x="129" y="817"/>
      <point x="89" y="792" type="qcurve"/>
      <point x="51" y="767"/>
      <point x="41" y="726" type="qcurve"/>
      <point x="44" y="697"/>
      <point x="75" y="697" type="qcurve"/>
      <point x="107" y="697"/>
      <point x="114" y="738" type="qcurve"/>
      <point x="126" y="783" type="line"/>
      <point x="145" y="788"/>
      <point x="167" y="788" type="qcurve"/>
      <point x="206" y="788"/>
      <point x="221" y="770" type="qcurve"/>
      <point x="238" y="750"/>
      <point x="238" y="700" type="qcurve"/>
      <point x="238" y="678" type="line"/>
      <point x="180" y="664"/>
      <point x="153" y="655" type="qcurve"/>
      <point x="85" y="633"/>
      <point x="57" y="605" type="qcurve"/>
      <point x="32" y="581"/>
      <point x="32" y="545" type="qcurve"/>
      <point x="32" y="503"/>
      <point x="60" y="479" type="qcurve"/>
      <point x="86" y="455"/>
    </contour>
    <contour>
      <point x="154" y="500" type="qcurve"/>
      <point x="129" y="500"/>
      <point x="114" y="513" type="qcurve"/>
      <point x="96" y="528"/>
      <point x="96" y="555" type="qcurve"/>
      <point x="96" y="607"/>
      <point x="168" y="634" type="qcurve"/>
      <point x="183" y="639"/>
      <point x="227" y="651" type="qcurve"/>
      <point x="234" y="653"/>
      <point x="238" y="654" type="qcurve"/>
      <point x="238" y="542" type="line"/>
      <point x="204" y="517"/>
      <point x="190" y="510" type="qcurve"/>
      <point x="172" y="500"/>
    </contour>
  </outline>
</glyph>
<glyph name="logicalnot" format="2">
  <advance width="576" height="1000"/>
  <unicode hex="00AC"/>
  <outline>
    <contour>
      <point x="483" y="178" type="line"/>
      <point x="536" y="178" type="line"/>
      <point x="536" y="428" type="line"/>
      <point x="30" y="428" type="line"/>
      <point x="30" y="379" type="line"/>
      <point x="483" y="379" type="line"/>
    </contour>
  </outline>
</glyph>
<glyph name="registered" format="2">
  <advance width="498" height="1000"/>
  <unicode hex="00AE"/>
  <outline>
    <contour>
      <point x="249" y="346" type="qcurve"/>
      <point x="339" y="346"/>
      <point x="401" y="404" type="qcurve"/>
      <point x="465" y="464"/>
      <point x="465" y="657"/>
      <point x="400" y="717" type="qcurve"/>
      <point x="339" y="774"/>
      <point x="160" y="774"/>
      <point x="98" y="717" type="qcurve"/>
      <point x="33" y="657"/>
      <point x="33" y="464"/>
      <point x="97" y="404" type="qcurve"/>
      <point x="158" y="346"/>
    </contour>
    <contour>
      <point x="120" y="426" type="qcurve"/>
      <point x="65" y="479"/>
      <point x="65" y="643"/>
      <point x="120" y="696" type="qcurve"/>
      <point x="173" y="746"/>
      <point x="249" y="746" type="qcurve"/>
      <point x="325" y="746"/>
      <point x="378" y="696" type="qcurve"/>
      <point x="433" y="643"/>
      <point x="433" y="479"/>
      <point x="379" y="426" type="qcurve"/>
      <point x="326" y="374"/>
      <point x="173" y="374"/>
    </contour>
    <contour>
      <point x="333" y="452" type="qcurve"/>
      <point x="350" y="452"/>
      <point x="363" y="455" type="qcurve"/>
      <point x="363" y="471" type="line"/>
      <point x="336" y="473" type="line"/>
      <point x="324" y="522" type="line"/>
      <point x="317" y="554"/>
      <point x="277" y="562" type="qcurve"/>
      <point x="333" y="575"/>
      <point x="333" y="619" type="qcurve"/>
      <point x="333" y="644"/>
      <point x="290" y="674"/>
      <point x="251" y="674" type="qcurve"/>
      <point x="153" y="674" type="line"/>
      <point x="153" y="659" type="line"/>
      <point x="184" y="656" type="line"/>
      <point x="184" y="474" type="line"/>
      <point x="153" y="471" type="line"/>
      <point x="153" y="455" type="line"/>
      <point x="257" y="455" type="line"/>
      <point x="257" y="471" type="line"/>
      <point x="226" y="474" type="line"/>
      <point x="226" y="553" type="line"/>
      <point x="242" y="553" type="line"/>
      <point x="274" y="553"/>
      <point x="280" y="526" type="qcurve"/>
      <point x="292" y="477" type="line"/>
      <point x="296" y="463"/>
      <point x="313" y="452"/>
    </contour>
    <contour>
      <point x="226" y="570" type="line"/>
      <point x="226" y="658" type="line"/>
      <point x="242" y="658" type="line"/>
      <point x="289" y="658"/>
      <point x="289" y="615" type="qcurve"/>
      <point x="289" y="570"/>
      <point x="243" y="570" type="qcurve"/>
    </contour>
  </outline>
</glyph>
<glyph name="threesuperior" format="2">
  <advance width="395" height="1000"/>
  <unicode hex="00B3"/>
  <outline>
    <contour>
      <point x="191" y="457" type="qcurve"/>
      <point x="257" y="457"/>
      <point x="299" y="487" type="qcurve"/>
      <point x="346" y="520"/>
      <point x="346" y="580" type="qcurve"/>
      <point x="346" y="675"/>
      <point x="240" y="693" type="qcurve"/>
      <point x="279" y="704"/>
      <point x="327" y="761"/>
      <point x="327" y="800" type="qcurve"/>
      <point x="327" y="847"/>
      <point x="256" y="905"/>
      <point x="197" y="905" type="qcurve"/>
      <point x="144" y="905"/>
      <point x="110" y="883" type="qcurve"/>
      <point x="72" y="858"/>
      <point x="64" y="812" type="qcurve"/>
      <point x="75" y="790"/>
      <point x="97" y="790" type="qcurve"/>
      <point x="126" y="790"/>
      <point x="135" y="830" type="qcurve"/>
      <point x="144" y="870" type="line"/>
      <point x="161" y="874"/>
      <point x="179" y="874" type="qcurve"/>
      <point x="218" y="874"/>
      <point x="262" y="832"/>
      <point x="262" y="794" type="qcurve"/>
      <point x="262" y="753"/>
      <point x="212" y="710"/>
      <point x="166" y="710" type="qcurve"/>
      <point x="138" y="710" type="line"/>
      <point x="138" y="673" type="line"/>
      <point x="172" y="673" type="line"/>
      <point x="278" y="673"/>
      <point x="278" y="583" type="qcurve"/>
      <point x="278" y="538"/>
      <point x="224" y="487"/>
      <point x="174" y="487" type="qcurve"/>
      <point x="154" y="487"/>
      <point x="131" y="493" type="qcurve"/>
      <point x="122" y="533" type="line"/>
      <point x="111" y="577"/>
      <point x="84" y="577" type="qcurve"/>
      <point x="59" y="577"/>
      <point x="50" y="552" type="qcurve"/>
      <point x="68" y="457"/>
    </contour>
  </outline>
</glyph>
<glyph name="acute" format="2">
  <advance width="435" height="1000"/>
  <unicode hex="00B4"/>
  <outline>
    <contour>
      <point x="179" y="608" type="line"/>
      <point x="208" y="634"/>
      <point x="264" y="685" type="qcurve"/>
      <point x="295" y="714"/>
      <point x="311" y="728" type="qcurve"/>
      <point x="346" y="759"/>
      <point x="346" y="783" type="qcurve"/>
      <point x="346" y="800"/>
      <point x="335" y="810" type="qcurve"/>
      <point x="325" y="819"/>
      <point x="310" y="819" type="qcurve"/>
      <point x="284" y="819"/>
      <point x="258" y="776" type="qcurve"/>
      <point x="195" y="682"/>
      <point x="159" y="624" type="qcurve"/>
    </contour>
  </outline>
</glyph>
<glyph name="mu" format="2">
  <advance width="619" height="1000"/>
  <unicode hex="00B5"/>
  <outline>
    <contour>
      <point x="105" y="-207" type="line"/>
      <point x="180" y="-189" type="line"/>
      <point x="156" y="70" type="line"/>
      <point x="177" y="30"/>
      <point x="214" y="7" type="qcurve"/>
      <point x="248" y="-14"/>
      <point x="285" y="-14" type="qcurve"/>
      <point x="383" y="-14"/>
      <point x="438" y="116" type="qcurve"/>
      <point x="440" y="50"/>
      <point x="458" y="19" type="qcurve"/>
      <point x="477" y="-14"/>
      <point x="517" y="-14" type="qcurve"/>
      <point x="544" y="-14"/>
      <point x="567" y="1" type="qcurve"/>
      <point x="588" y="15"/>
      <point x="600" y="37" type="qcurve"/>
      <point x="592" y="60" type="line"/>
      <point x="566" y="48"/>
      <point x="546" y="48" type="qcurve"/>
      <point x="518" y="48"/>
      <point x="508" y="65" type="qcurve"/>
      <point x="497" y="83"/>
      <point x="496" y="133" type="qcurve"/>
      <point x="494" y="195"/>
      <point x="508" y="394" type="qcurve"/>
      <point x="514" y="472"/>
      <point x="517" y="519" type="qcurve"/>
      <point x="508" y="527" type="line"/>
      <point x="430" y="510" type="line"/>
      <point x="436" y="177" type="line"/>
      <point x="407" y="110"/>
      <point x="372" y="83" type="qcurve"/>
      <point x="340" y="57"/>
      <point x="293" y="57" type="qcurve"/>
      <point x="212" y="57"/>
      <point x="167" y="147" type="qcurve"/>
      <point x="168" y="205"/>
      <point x="177" y="359" type="qcurve"/>
      <point x="183" y="457"/>
      <point x="186" y="519" type="qcurve"/>
      <point x="176" y="527" type="line"/>
      <point x="99" y="510" type="line"/>
      <point x="114" y="104" type="line"/>
      <point x="95" y="-198" type="line"/>
    </contour>
  </outline>
</glyph>
<glyph name="paragraph" format="2">
  <advance width="1000" height="1000"/>
  <unicode hex="00B6"/>
  <outline>
    <contour>
      <point x="605" y="-139" type="qcurve"/>
      <point x="689" y="-139" type="line"/>
      <point x="686" y="-24"/>
      <point x="686" y="208" type="qcurve"/>
      <point x="686" y="400" type="line"/>
      <point x="686" y="603"/>
      <point x="688" y="703" type="qcurve"/>
      <point x="793" y="711" type="line"/>
      <point x="793" y="748" type="line"/>
      <point x="570" y="748" type="line"/>
      <point x="404" y="748"/>
      <point x="307" y="674" type="qcurve"/>
      <point x="208" y="597"/>
      <point x="208" y="322"/>
      <point x="306" y="243" type="qcurve"/>
      <point x="397" y="170"/>
      <point x="538" y="170" type="qcurve"/>
      <point x="538" y="708" type="line"/>
      <point x="608" y="708" type="line"/>
      <point x="608" y="208" type="line"/>
      <point x="608" y="-25"/>
    </contour>
  </outline>
</glyph>
<glyph name="periodcentered" format="2">
  <advance width="326" height="1000"/>
  <unicode hex="00B7"/>
  <outline>
    <contour>
      <point x="163" y="429" type="qcurve"/>
      <point x="135" y="429"/>
      <point x="97" y="390"/>
      <point x="97" y="335"/>
      <point x="135" y="296"/>
      <point x="191" y="296"/>
      <point x="229" y="335"/>
      <point x="229" y="390"/>
      <point x="191" y="429"/>
    </contour>
  </outline>
</glyph>
<glyph name="cedilla" format="2">
  <advance width="435" height="1000"/>
  <unicode hex="00B8"/>
  <outline>
    <contour>
      <point x="186" y="-238" type="qcurve"/>
      <point x="241" y="-238"/>
      <point x="272" y="-213" type="qcurve"/>
      <point x="301" y="-190"/>
      <point x="301" y="-152" type="qcurve"/>
      <point x="301" y="-115"/>
      <point x="272" y="-92" type="qcurve"/>
      <point x="244" y="-70"/>
      <point x="199" y="-65" type="qcurve"/>
      <point x="208" y="2" type="line"/>
      <point x="175" y="2" type="line"/>
      <point x="161" y="-91" type="line"/>
      <point x="204" y="-96"/>
      <point x="243" y="-124"/>
      <point x="243" y="-150" type="qcurve"/>
      <point x="243" y="-204"/>
      <point x="178" y="-204" type="qcurve"/>
      <point x="149" y="-204"/>
      <point x="125" y="-200" type="qcurve"/>
      <point x="118" y="-227" type="line"/>
      <point x="149" y="-238"/>
    </contour>
  </outline>
</glyph>
<glyph name="onesuperior" format="2">
  <advance width="395" height="1000"/>
  <unicode hex="00B9"/>
  <outline>
    <contour>
      <point x="72" y="465" type="line"/>
      <point x="336" y="465" type="line"/>
      <point x="336" y="492" type="line"/>
      <point x="238" y="507" type="line"/>
      <point x="238" y="897" type="line"/>
      <point x="228" y="903" type="line"/>
      <point x="85" y="870" type="line"/>
      <point x="85" y="837" type="line"/>
      <point x="173" y="845" type="line"/>
      <point x="173" y="507" type="line"/>
      <point x="72" y="492" type="line"/>
    </contour>
  </outline>
</glyph>
<glyph name="ordmasculine" format="2">
  <advance width="404" height="1000"/>
  <unicode hex="00BA"/>
  <outline>
    <contour>
      <point x="202" y="454" type="qcurve"/>
      <point x="271" y="454"/>
      <point x="319" y="502" type="qcurve"/>
      <point x="371" y="553"/>
      <point x="371" y="718"/>
      <point x="318" y="770" type="qcurve"/>
      <point x="270" y="817"/>
      <point x="134" y="817"/>
      <point x="85" y="770" type="qcurve"/>
      <point x="33" y="718"/>
      <point x="33" y="553"/>
      <point x="85" y="502" type="qcurve"/>
      <point x="133" y="454"/>
    </contour>
    <contour>
      <point x="202" y="487" type="qcurve"/>
      <point x="98" y="487"/>
      <point x="98" y="636" type="qcurve"/>
      <point x="98" y="709"/>
      <point x="152" y="785"/>
      <point x="252" y="785"/>
      <point x="279" y="747" type="qcurve"/>
      <point x="307" y="708"/>
      <point x="307" y="636" type="qcurve"/>
      <point x="307" y="562"/>
      <point x="279" y="524" type="qcurve"/>
      <point x="252" y="487"/>
    </contour>
  </outline>
</glyph>
<glyph name="guillemetright" format="2">
  <advance width="524" height="1000"/>
  <unicode hex="00BB"/>
  <outline>
    <contour>
      <point x="266" y="55" type="line"/>
      <point x="494" y="250" type="line"/>
      <point x="494" y="299" type="line"/>
      <point x="266" y="494" type="line"/>
      <point x="246" y="470" type="line"/>
      <point x="418" y="274" type="line"/>
      <point x="246" y="79" type="line"/>
    </contour>
    <contour>
      <point x="51" y="55" type="line"/>
      <point x="278" y="250" type="line"/>
      <point x="278" y="299" type="line"/>
      <point x="51" y="494" type="line"/>
      <point x="30" y="470" type="line"/>
      <point x="203" y="274" type="line"/>
      <point x="30" y="79" type="line"/>
    </contour>
  </outline>
</glyph>
<glyph name="onequarter" format="2">
  <advance width="935" height="1000"/>
  <unicode hex="00BC"/>
  <outline>
    <contour>
      <point x="253" y="-26" type="line"/>
      <point x="763" y="707" type="line"/>
      <point x="736" y="729" type="line"/>
      <point x="226" y="-4" type="line"/>
    </contour>
    <contour>
      <point x="75" y="278" type="line"/>
      <point x="339" y="278" type="line"/>
      <point x="339" y="305" type="line"/>
      <point x="241" y="320" type="line"/>
      <point x="241" y="710" type="line"/>
      <point x="232" y="716" type="line"/>
      <point x="88" y="683" type="line"/>
      <point x="88" y="650" type="line"/>
      <point x="176" y="658" type="line"/>
      <point x="176" y="320" type="line"/>
      <point x="75" y="305" type="line"/>
    </contour>
    <contour>
      <point x="712" y="0" type="line"/>
      <point x="772" y="0" type="line"/>
      <point x="772" y="117" type="line"/>
      <point x="845" y="117" type="line"/>
      <point x="845" y="168" type="line"/>
      <point x="772" y="168" type="line"/>
      <point x="772" y="438" type="line"/>
      <point x="729" y="438" type="line"/>
      <point x="524" y="159" type="line"/>
      <point x="524" y="117" type="line"/>
      <point x="712" y="117" type="line"/>
    </contour>
    <contour>
      <point x="568" y="168" type="line"/>
      <point x="712" y="372" type="line"/>
      <point x="712" y="168" type="line"/>
    </contour>
  </outline>
</glyph>
<glyph name="Agrave" format="2">
  <advance width="719" height="1000"/>
  <unicode hex="00C0"/>
  <outline>
    <contour>
      <point x="8" y="0" type="line"/>
      <point x="248" y="0" type="line"/>
      <point x="248" y="36" type="line"/>
      <point x="143" y="49" type="line"/>
      <point x="208" y="246" type="line"/>
      <point x="465" y="246" type="line"/>
      <point x="531" y="47" type="line"/>
      <point x="421" y="36" type="line"/>
      <point x="421" y="0" type="line"/>
      <point x="710" y="0" type="line"/>
      <point x="710" y="36" type="line"/>
      <point x="620" y="46" type="line"/>
      <point x="385" y="736" type="line"/>
      <point x="329" y="736" type="line"/>
      <point x="98" y="48" type="line"/>
      <point x="8" y="36" type="line"/>
    </contour>
    <contour>
      <point x="222" y="287" type="line"/>
      <point x="336" y="633" type="line"/>
      <point x="451" y="287" type="line"/>
    </contour>
    <contour>
      <point x="404" y="787" type="qcurve"/>
      <point x="421" y="808" type="line"/>
      <point x="317" y="909" type="line"/>
      <point x="276" y="949"/>
      <point x="253" y="949" type="qcurve"/>
      <point x="238" y="949"/>
      <point x="217" y="931"/>
      <point x="217" y="916" type="qcurve"/>
      <point x="217" y="891"/>
      <point x="272" y="860" type="qcurve"/>
      <point x="311" y="838"/>
      <point x="395" y="792" type="qcurve"/>
      <point x="401" y="789"/>
    </contour>
  </outline>
</glyph>
<glyph name="Atilde" format="2">
  <advance width="719" height="1000"/>
  <unicode hex="00C3"/>
  <outline>
    <contour>
      <point x="8" y="0" type="line"/>
      <point x="248" y="0" type="line"/>
      <point x="248" y="36" type="line"/>
      <point x="143" y="49" type="line"/>
      <point x="208" y="246" type="line"/>
      <point x="465" y="246" type="line"/>
      <point x="531" y="47" type="line"/>
      <point x="421" y="36" type="line"/>
      <point x="421" y="0" type="line"/>
      <point x="710" y="0" type="line"/>
      <point x="710" y="36" type="line"/>
      <point x="620" y="46" type="line"/>
      <point x="385" y="736" type="line"/>
      <point x="329" y="736" type="line"/>
      <point x="98" y="48" type="line"/>
      <point x="8" y="36" type="line"/>
    </contour>
    <contour>
      <point x="222" y="287" type="line"/>
      <point x="336" y="633" type="line"/>
      <point x="451" y="287" type="line"/>
    </contour>
    <contour>
      <point x="437" y="790" type="qcurve"/>
      <point x="525" y="790"/>
      <point x="547" y="921" type="qcurve"/>
      <point x="522" y="928" type="line"/>
      <point x="507" y="885"/>
      <point x="491" y="865" type="qcurve"/>
      <point x="472" y="842"/>
      <point x="445" y="842" type="qcurve"/>
      <point x="428" y="842"/>
      <point x="410" y="853" type="qcurve"/>
      <point x="400" y="860"/>
      <point x="380" y="879" type="qcurve"/>
      <point x="369" y="889"/>
      <point x="363" y="894" type="qcurve"/>
      <point x="340" y="913"/>
      <point x="325" y="921" type="qcurve"/>
      <point x="302" y="933"/>
      <point x="275" y="933" type="qcurve"/>
      <point x="185" y="933"/>
      <point x="165" y="802" type="qcurve"/>
      <point x="191" y="794" type="line"/>
      <point x="218" y="880"/>
      <point x="267" y="880" type="qcurve"/>
      <point x="285" y="880"/>
      <point x="302" y="869" type="qcurve"/>
      <point x="313" y="862"/>
      <point x="333" y="843" type="qcurve"/>
      <point x="344" y="834"/>
      <point x="349" y="829" type="qcurve"/>
      <point x="371" y="810"/>
      <point x="386" y="802" type="qcurve"/>
      <point x="409" y="790"/>
    </contour>
  </outline>
</glyph>
<glyph name="Adieresis" format="2">
  <advance width="719" height="1000"/>
  <unicode hex="00C4"/>
  <outline>
    <contour>
      <point x="8" y="0" type="line"/>
      <point x="248" y="0" type="line"/>
      <point x="248" y="36" type="line"/>
      <point x="143" y="49" type="line"/>
      <point x="208" y="246" type="line"/>
      <point x="465" y="246" type="line"/>
      <point x="531" y="47" type="line"/>
      <point x="421" y="36" type="line"/>
      <point x="421" y="0" type="line"/>
      <point x="710" y="0" type="line"/>
      <point x="710" y="36" type="line"/>
      <point x="620" y="46" type="line"/>
      <point x="385" y="736" type="line"/>
      <point x="329" y="736" type="line"/>
      <point x="98" y="48" type="line"/>
      <point x="8" y="36" type="line"/>
    </contour>
    <contour>
      <point x="222" y="287" type="line"/>
      <point x="336" y="633" type="line"/>
      <point x="451" y="287" type="line"/>
    </contour>
    <contour>
      <point x="236" y="920" type="qcurve"/>
      <point x="214" y="920"/>
      <point x="180" y="889"/>
      <point x="180" y="843"/>
      <point x="214" y="813"/>
      <point x="259" y="813"/>
      <point x="291" y="843"/>
      <point x="291" y="889"/>
      <point x="259" y="920"/>
    </contour>
    <contour>
      <point x="474" y="813" type="qcurve"/>
      <point x="496" y="813"/>
      <point x="529" y="843"/>
      <point x="529" y="889"/>
      <point x="496" y="920"/>
      <point x="474" y="920" type="qcurve"/>
      <point x="451" y="920"/>
      <point x="418" y="889"/>
      <point x="418" y="843"/>
      <point x="450" y="813"/>
    </contour>
  </outline>
</glyph>
<glyph name="Aring" format="2">
  <advance width="719" height="1000"/>
  <unicode hex="00C5"/>
  <outline>
    <contour>
      <point x="8" y="0" type="line"/>
      <point x="248" y="0" type="line"/>
      <point x="248" y="36" type="line"/>
      <point x="143" y="49" type="line"/>
      <point x="208" y="246" type="line"/>
      <point x="465" y="246" type="line"/>
      <point x="531" y="47" type="line"/>
      <point x="421" y="36" type="line"/>
      <point x="421" y="0" type="line"/>
      <point x="710" y="0" type="line"/>
      <point x="710" y="36" type="line"/>
      <point x="620" y="46" type="line"/>
      <point x="385" y="736" type="line"/>
      <point x="329" y="736" type="line"/>
      <point x="98" y="48" type="line"/>
      <point x="8" y="36" type="line"/>
    </contour>
    <contour>
      <point x="222" y="287" type="line"/>
      <point x="336" y="633" type="line"/>
      <point x="451" y="287" type="line"/>
    </contour>
    <contour>
      <point x="357" y="785" type="qcurve"/>
      <point x="397" y="785"/>
      <point x="427" y="812" type="qcurve"/>
      <point x="458" y="840"/>
      <point x="458" y="883" type="qcurve"/>
      <point x="458" y="928"/>
      <point x="427" y="956" type="qcurve"/>
      <point x="398" y="982"/>
      <point x="357" y="982" type="qcurve"/>
      <point x="316" y="982"/>
      <point x="287" y="955" type="qcurve"/>
      <point x="255" y="927"/>
      <point x="255" y="839"/>
      <point x="287" y="811" type="qcurve"/>
      <point x="316" y="785"/>
    </contour>
    <contour>
      <point x="357" y="817" type="qcurve"/>
      <point x="329" y="817"/>
      <point x="312" y="838" type="qcurve"/>
      <point x="297" y="856"/>
      <point x="297" y="909"/>
      <point x="313" y="927" type="qcurve"/>
      <point x="330" y="947"/>
      <point x="383" y="947"/>
      <point x="400" y="927" type="qcurve"/>
      <point x="416" y="909"/>
      <point x="416" y="857"/>
      <point x="400" y="838" type="qcurve"/>
      <point x="383" y="817"/>
    </contour>
  </outline>
</glyph>
<glyph name="Ccedilla" format="2">
  <advance width="690" height="1000"/>
  <unicode hex="00C7"/>
  <outline>
    <contour>
      <point x="401" y="-238" type="qcurve"/>
      <point x="456" y="-238"/>
      <point x="487" y="-213" type="qcurve"/>
      <point x="516" y="-190"/>
      <point x="516" y="-152" type="qcurve"/>
      <point x="516" y="-115"/>
      <point x="487" y="-92" type="qcurve"/>
      <point x="459" y="-70"/>
      <point x="414" y="-65" type="qcurve"/>
      <point x="421" y="-16" type="line"/>
      <point x="544" y="-16"/>
      <point x="638" y="38" type="qcurve"/>
      <point x="641" y="196" type="line"/>
      <point x="587" y="196" type="line"/>
      <point x="563" y="60" type="line"/>
      <point x="500" y="29"/>
      <point x="425" y="29" type="qcurve"/>
      <point x="303" y="29"/>
      <point x="229" y="116" type="qcurve"/>
      <point x="153" y="206"/>
      <point x="153" y="365" type="qcurve"/>
      <point x="153" y="522"/>
      <point x="233" y="613" type="qcurve"/>
      <point x="309" y="701"/>
      <point x="432" y="701" type="qcurve"/>
      <point x="495" y="701"/>
      <point x="553" y="670" type="qcurve"/>
      <point x="577" y="535" type="line"/>
      <point x="632" y="535" type="line"/>
      <point x="628" y="692" type="line"/>
      <point x="537" y="746"/>
      <point x="421" y="746" type="qcurve"/>
      <point x="263" y="746"/>
      <point x="55" y="531"/>
      <point x="55" y="365" type="qcurve"/>
      <point x="55" y="206"/>
      <point x="238" y="-3"/>
      <point x="387" y="-15" type="qcurve"/>
      <point x="376" y="-91" type="line"/>
      <point x="420" y="-96"/>
      <point x="459" y="-124"/>
      <point x="459" y="-150" type="qcurve"/>
      <point x="459" y="-204"/>
      <point x="393" y="-204" type="qcurve"/>
      <point x="365" y="-204"/>
      <point x="340" y="-200" type="qcurve"/>
      <point x="334" y="-227" type="line"/>
      <point x="363" y="-238"/>
    </contour>
  </outline>
</glyph>
<glyph name="Ntilde" format="2">
  <advance width="798" height="1000"/>
  <unicode hex="00D1"/>
  <outline>
    <contour>
      <point x="628" y="-8" type="line"/>
      <point x="661" y="-8" type="line"/>
      <point x="662" y="681" type="line"/>
      <point x="755" y="694" type="line"/>
      <point x="755" y="729" type="line"/>
      <point x="499" y="729" type="line"/>
      <point x="499" y="694" type="line"/>
      <point x="616" y="680" type="line"/>
      <point x="617" y="150" type="line"/>
      <point x="203" y="729" type="line"/>
      <point x="47" y="729" type="line"/>
      <point x="47" y="695" type="line"/>
      <point x="129" y="685" type="line"/>
      <point x="138" y="672" type="line"/>
      <point x="137" y="48" type="line"/>
      <point x="43" y="36" type="line"/>
      <point x="43" y="0" type="line"/>
      <point x="300" y="0" type="line"/>
      <point x="300" y="36" type="line"/>
      <point x="184" y="49" type="line"/>
      <point x="183" y="609" type="line"/>
    </contour>
    <contour>
      <point x="485" y="782" type="qcurve"/>
      <point x="574" y="782"/>
      <point x="596" y="913" type="qcurve"/>
      <point x="570" y="921" type="line"/>
      <point x="542" y="835"/>
      <point x="494" y="835" type="qcurve"/>
      <point x="475" y="835"/>
      <point x="456" y="847" type="qcurve"/>
      <point x="445" y="855"/>
      <point x="424" y="875" type="qcurve"/>
      <point x="416" y="882"/>
      <point x="412" y="886" type="qcurve"/>
      <point x="367" y="925"/>
      <point x="323" y="925" type="qcurve"/>
      <point x="233" y="925"/>
      <point x="213" y="794" type="qcurve"/>
      <point x="239" y="786" type="line"/>
      <point x="265" y="872"/>
      <point x="315" y="872" type="qcurve"/>
      <point x="334" y="872"/>
      <point x="353" y="859" type="qcurve"/>
      <point x="365" y="852"/>
      <point x="386" y="831" type="qcurve"/>
      <point x="393" y="824"/>
      <point x="397" y="821" type="qcurve"/>
      <point x="442" y="782"/>
    </contour>
  </outline>
</glyph>
<glyph name="Ograve" format="2">
  <advance width="769" height="1000"/>
  <unicode hex="00D2"/>
  <outline>
    <contour>
      <point x="385" y="-16" type="qcurve"/>
      <point x="471" y="-16"/>
      <point x="545" y="30" type="qcurve"/>
      <point x="621" y="77"/>
      <point x="665" y="161" type="qcurve"/>
      <point x="712" y="251"/>
      <point x="712" y="365" type="qcurve"/>
      <point x="712" y="540"/>
      <point x="612" y="647" type="qcurve"/>
      <point x="520" y="746"/>
      <point x="385" y="746" type="qcurve"/>
      <point x="298" y="746"/>
      <point x="223" y="700" type="qcurve"/>
      <point x="147" y="652"/>
      <point x="103" y="569" type="qcurve"/>
      <point x="55" y="479"/>
      <point x="55" y="365" type="qcurve"/>
      <point x="55" y="190"/>
      <point x="156" y="83" type="qcurve"/>
      <point x="249" y="-16"/>
    </contour>
    <contour>
      <point x="385" y="28" type="qcurve"/>
      <point x="273" y="28"/>
      <point x="210" y="132" type="qcurve"/>
      <point x="153" y="225"/>
      <point x="153" y="505"/>
      <point x="210" y="598" type="qcurve"/>
      <point x="273" y="701"/>
      <point x="385" y="701" type="qcurve"/>
      <point x="496" y="701"/>
      <point x="559" y="598" type="qcurve"/>
      <point x="615" y="505"/>
      <point x="615" y="225"/>
      <point x="559" y="132" type="qcurve"/>
      <point x="496" y="28"/>
    </contour>
    <contour>
      <point x="434" y="787" type="qcurve"/>
      <point x="449" y="808" type="line"/>
      <point x="414" y="843"/>
      <point x="346" y="909" type="qcurve"/>
      <point x="305" y="949"/>
      <point x="283" y="949" type="qcurve"/>
      <point x="268" y="949"/>
      <point x="247" y="931"/>
      <point x="247" y="916" type="qcurve"/>
      <point x="247" y="890"/>
      <point x="301" y="860" type="qcurve"/>
      <point x="374" y="819"/>
    </contour>
  </outline>
</glyph>
<glyph name="Oslash" format="2">
  <advance width="769" height="1000"/>
  <unicode hex="00D8"/>
  <outline>
    <contour>
      <point x="99" y="-21" type="line"/>
      <point x="171" y="68" type="line"/>
      <point x="261" y="-16"/>
      <point x="385" y="-16" type="qcurve"/>
      <point x="471" y="-16"/>
      <point x="545" y="30" type="qcurve"/>
      <point x="621" y="77"/>
      <point x="665" y="161" type="qcurve"/>
      <point x="712" y="251"/>
      <point x="712" y="365" type="qcurve"/>
      <point x="712" y="526"/>
      <point x="626" y="632" type="qcurve"/>
      <point x="699" y="723" type="line"/>
      <point x="662" y="752" type="line"/>
      <point x="593" y="666" type="line"/>
      <point x="505" y="746"/>
      <point x="385" y="746" type="qcurve"/>
      <point x="298" y="746"/>
      <point x="223" y="700" type="qcurve"/>
      <point x="147" y="652"/>
      <point x="103" y="569" type="qcurve"/>
      <point x="55" y="479"/>
      <point x="55" y="365" type="qcurve"/>
      <point x="55" y="207"/>
      <point x="138" y="103" type="qcurve"/>
      <point x="62" y="9" type="line"/>
    </contour>
    <contour>
      <point x="385" y="28" type="qcurve"/>
      <point x="277" y="28"/>
      <point x="215" y="123" type="qcurve"/>
      <point x="574" y="568" type="line"/>
      <point x="615" y="483"/>
      <point x="615" y="365" type="qcurve"/>
      <point x="615" y="225"/>
      <point x="559" y="132" type="qcurve"/>
      <point x="496" y="28"/>
    </contour>
    <contour>
      <point x="191" y="168" type="line"/>
      <point x="153" y="251"/>
      <point x="153" y="365" type="qcurve"/>
      <point x="153" y="505"/>
      <point x="210" y="598" type="qcurve"/>
      <point x="273" y="701"/>
      <point x="385" y="701" type="qcurve"/>
      <point x="486" y="701"/>
      <point x="549" y="612" type="qcurve"/>
    </contour>
  </outline>
</glyph>
<glyph name="ccedilla" format="2">
  <advance width="529" height="1000"/>
  <unicode hex="00E7"/>
  <outline>
    <contour>
      <point x="285" y="-238" type="qcurve"/>
      <point x="340" y="-238"/>
      <point x="371" y="-213" type="qcurve"/>
      <point x="400" y="-190"/>
      <point x="400" y="-152" type="qcurve"/>
      <point x="400" y="-115"/>
      <point x="371" y="-92" type="qcurve"/>
      <point x="343" y="-70"/>
      <point x="298" y="-65" type="qcurve"/>
      <point x="305" y="-14" type="line"/>
      <point x="438" y="-7"/>
      <point x="489" y="114" type="qcurve"/>
      <point x="468" y="124" type="line"/>
      <point x="441" y="85"/>
      <point x="360" y="42"/>
      <point x="312" y="42" type="qcurve"/>
      <point x="230" y="42"/>
      <point x="180" y="101" type="qcurve"/>
      <point x="128" y="161"/>
      <point x="128" y="368"/>
      <point x="177" y="429" type="qcurve"/>
      <point x="224" y="488"/>
      <point x="301" y="488" type="qcurve"/>
      <point x="333" y="488"/>
      <point x="369" y="476" type="qcurve"/>
      <point x="391" y="401" type="line"/>
      <point x="403" y="358"/>
      <point x="442" y="358" type="qcurve"/>
      <point x="480" y="358"/>
      <point x="486" y="395" type="qcurve"/>
      <point x="472" y="454"/>
      <point x="367" y="528"/>
      <point x="298" y="528" type="qcurve"/>
      <point x="196" y="528"/>
      <point x="125" y="456" type="qcurve"/>
      <point x="49" y="380"/>
      <point x="49" y="257" type="qcurve"/>
      <point x="49" y="139"/>
      <point x="170" y="-6"/>
      <point x="272" y="-13" type="qcurve"/>
      <point x="260" y="-91" type="line"/>
      <point x="303" y="-96"/>
      <point x="342" y="-124"/>
      <point x="342" y="-150" type="qcurve"/>
      <point x="342" y="-204"/>
      <point x="277" y="-204" type="qcurve"/>
      <point x="248" y="-204"/>
      <point x="224" y="-200" type="qcurve"/>
      <point x="217" y="-227" type="line"/>
      <point x="248" y="-238"/>
    </contour>
  </outline>
</glyph>
<glyph name="iacute" format="2">
  <advance width="325" height="1000"/>
  <unicode hex="00ED"/>
  <outline>
    <contour>
      <point x="41" y="0" type="line"/>
      <point x="285" y="0" type="line"/>
      <point x="285" y="32" type="line"/>
      <point x="206" y="45" type="line"/>
      <point x="204" y="155"/>
      <point x="204" y="228" type="qcurve"/>
      <point x="204" y="375" type="line"/>
      <point x="208" y="517" type="line"/>
      <point x="193" y="527" type="line"/>
      <point x="36" y="475" type="line"/>
      <point x="36" y="442" type="line"/>
      <point x="126" y="436" type="line"/>
      <point x="129" y="366"/>
      <point x="129" y="284" type="qcurve"/>
      <point x="129" y="228" type="line"/>
      <point x="129" y="155"/>
      <point x="127" y="45" type="qcurve"/>
      <point x="41" y="32" type="line"/>
    </contour>
    <contour>
      <point x="148" y="608" type="line"/>
      <point x="152" y="612"/>
      <point x="161" y="620" type="qcurve"/>
      <point x="241" y="693"/>
      <point x="279" y="728" type="qcurve"/>
      <point x="314" y="758"/>
      <point x="314" y="783" type="qcurve"/>
      <point x="314" y="800"/>
      <point x="293" y="819"/>
      <point x="278" y="819" type="qcurve"/>
      <point x="253" y="819"/>
      <point x="226" y="776" type="qcurve"/>
      <point x="182" y="711"/>
      <point x="127" y="624" type="qcurve"/>
    </contour>
  </outline>
</glyph>
<glyph name="eth" format="2">
  <advance width="591" height="1000"/>
  <unicode hex="00F0"/>
  <outline>
    <contour>
      <point x="286" y="-14" type="qcurve"/>
      <point x="402" y="-14"/>
      <point x="534" y="153"/>
      <point x="534" y="300" type="qcurve"/>
      <point x="534" y="531"/>
      <point x="379" y="684" type="qcurve"/>
      <point x="534" y="763" type="line"/>
      <point x="517" y="797" type="line"/>
      <point x="350" y="711" type="line"/>
      <point x="282" y="770"/>
      <point x="184" y="817" type="qcurve"/>
      <point x="166" y="788" type="line"/>
      <point x="249" y="738"/>
      <point x="303" y="687" type="qcurve"/>
      <point x="157" y="611" type="line"/>
      <point x="172" y="578" type="line"/>
      <point x="331" y="659" type="line"/>
      <point x="412" y="569"/>
      <point x="445" y="437" type="qcurve"/>
      <point x="394" y="514"/>
      <point x="289" y="514" type="qcurve"/>
      <point x="191" y="514"/>
      <point x="124" y="446" type="qcurve"/>
      <point x="51" y="373"/>
      <point x="51" y="253" type="qcurve"/>
      <point x="51" y="130"/>
      <point x="122" y="55" type="qcurve"/>
      <point x="188" y="-14"/>
    </contour>
    <contour>
      <point x="293" y="26" type="qcurve"/>
      <point x="221" y="26"/>
      <point x="179" y="84" type="qcurve"/>
      <point x="136" y="144"/>
      <point x="136" y="249" type="qcurve"/>
      <point x="136" y="356"/>
      <point x="219" y="474"/>
      <point x="293" y="474" type="qcurve"/>
      <point x="366" y="474"/>
      <point x="408" y="419" type="qcurve"/>
      <point x="452" y="361"/>
      <point x="452" y="253" type="qcurve"/>
      <point x="452" y="146"/>
      <point x="412" y="87" type="qcurve"/>
      <point x="370" y="26"/>
    </contour>
  </outline>
</glyph>
<glyph name="ntilde" format="2">
  <advance width="658" height="1000"/>
  <unicode hex="00F1"/>
  <outline>
    <contour>
      <point x="45" y="0" type="line"/>
      <point x="289" y="0" type="line"/>
      <point x="289" y="32" type="line"/>
      <point x="210" y="45" type="line"/>
      <point x="208" y="155"/>
      <point x="208" y="228" type="qcurve"/>
      <point x="208" y="386" type="line"/>
      <point x="295" y="466"/>
      <point x="372" y="466" type="qcurve"/>
      <point x="421" y="466"/>
      <point x="443" y="436" type="qcurve"/>
      <point x="466" y="404"/>
      <point x="466" y="328" type="qcurve"/>
      <point x="466" y="228" type="line"/>
      <point x="466" y="154"/>
      <point x="464" y="44" type="qcurve"/>
      <point x="379" y="32" type="line"/>
      <point x="379" y="0" type="line"/>
      <point x="624" y="0" type="line"/>
      <point x="624" y="32" type="line"/>
      <point x="545" y="45" type="line"/>
      <point x="542" y="128"/>
      <point x="542" y="228" type="qcurve"/>
      <point x="542" y="332" type="line"/>
      <point x="542" y="436"/>
      <point x="508" y="483" type="qcurve"/>
      <point x="475" y="528"/>
      <point x="405" y="528" type="qcurve"/>
      <point x="355" y="528"/>
      <point x="249" y="473"/>
      <point x="205" y="425" type="qcurve"/>
      <point x="197" y="517" type="line"/>
      <point x="183" y="527" type="line"/>
      <point x="39" y="474" type="line"/>
      <point x="39" y="442" type="line"/>
      <point x="128" y="435" type="line"/>
      <point x="128" y="432"/>
      <point x="128" y="425" type="qcurve"/>
      <point x="132" y="342"/>
      <point x="132" y="283" type="qcurve"/>
      <point x="132" y="228" type="line"/>
      <point x="132" y="128"/>
      <point x="129" y="44" type="qcurve"/>
      <point x="45" y="32" type="line"/>
    </contour>
    <contour>
      <point x="401" y="628" type="qcurve"/>
      <point x="479" y="628"/>
      <point x="501" y="759" type="qcurve"/>
      <point x="477" y="766" type="line"/>
      <point x="454" y="680"/>
      <point x="409" y="680" type="qcurve"/>
      <point x="393" y="680"/>
      <point x="377" y="691" type="qcurve"/>
      <point x="367" y="698"/>
      <point x="350" y="717" type="qcurve"/>
      <point x="340" y="727"/>
      <point x="335" y="732" type="qcurve"/>
      <point x="294" y="771"/>
      <point x="255" y="771" type="qcurve"/>
      <point x="175" y="771"/>
      <point x="155" y="640" type="qcurve"/>
      <point x="179" y="632" type="line"/>
      <point x="202" y="719"/>
      <point x="248" y="719" type="qcurve"/>
      <point x="264" y="719"/>
      <point x="280" y="707" type="qcurve"/>
      <point x="290" y="700"/>
      <point x="308" y="682" type="qcurve"/>
      <point x="317" y="672"/>
      <point x="322" y="667" type="qcurve"/>
      <point x="359" y="628"/>
    </contour>
  </outline>
</glyph>
<glyph name="ograve" format="2">
  <advance width="594" height="1000"/>
  <unicode hex="00F2"/>
  <outline>
    <contour>
      <point x="128" y="53" type="qcurve"/>
      <point x="196" y="-14"/>
      <point x="397" y="-14"/>
      <point x="466" y="53" type="qcurve"/>
      <point x="542" y="127"/>
      <point x="542" y="384"/>
      <point x="465" y="460" type="qcurve"/>
      <point x="396" y="528"/>
      <point x="297" y="528" type="qcurve"/>
      <point x="197" y="528"/>
      <point x="128" y="460" type="qcurve"/>
      <point x="51" y="384"/>
      <point x="51" y="127"/>
    </contour>
    <contour>
      <point x="179" y="84" type="qcurve"/>
      <point x="136" y="144"/>
      <point x="136" y="366"/>
      <point x="221" y="488"/>
      <point x="297" y="488" type="qcurve"/>
      <point x="373" y="488"/>
      <point x="458" y="366"/>
      <point x="458" y="144"/>
      <point x="415" y="84" type="qcurve"/>
      <point x="373" y="26"/>
      <point x="220" y="26"/>
    </contour>
    <contour>
      <point x="324" y="608" type="qcurve"/>
      <point x="346" y="624" type="line"/>
      <point x="247" y="776" type="line"/>
      <point x="220" y="819"/>
      <point x="193" y="819" type="qcurve"/>
      <point x="179" y="819"/>
      <point x="169" y="810" type="qcurve"/>
      <point x="158" y="800"/>
      <point x="158" y="783" type="qcurve"/>
      <point x="158" y="759"/>
      <point x="193" y="728" type="qcurve"/>
      <point x="211" y="712"/>
      <point x="248" y="678" type="qcurve"/>
      <point x="298" y="631"/>
    </contour>
  </outline>
</glyph>
<glyph name="oacute" format="2">
  <advance width="594" height="1000"/>
  <unicode hex="00F3"/>
  <outline>
    <contour>
      <point x="128" y="53" type="qcurve"/>
      <point x="196" y="-14"/>
      <point x="397" y="-14"/>
      <point x="466" y="53" type="qcurve"/>
      <point x="542" y="127"/>
      <point x="542" y="384"/>
      <point x="465" y="460" type="qcurve"/>
      <point x="396" y="528"/>
      <point x="297" y="528" type="qcurve"/>
      <point x="197" y="528"/>
      <point x="128" y="460" type="qcurve"/>
      <point x="51" y="384"/>
      <point x="51" y="127"/>
    </contour>
    <contour>
      <point x="179" y="84" type="qcurve"/>
      <point x="136" y="144"/>
      <point x="136" y="366"/>
      <point x="221" y="488"/>
      <point x="297" y="488" type="qcurve"/>
      <point x="373" y="488"/>
      <point x="458" y="366"/>
      <point x="458" y="144"/>
      <point x="415" y="84" type="qcurve"/>
      <point x="373" y="26"/>
      <point x="220" y="26"/>
    </contour>
    <contour>
      <point x="275" y="608" type="line"/>
      <point x="304" y="634"/>
      <point x="360" y="685" type="qcurve"/>
      <point x="391" y="714"/>
      <point x="407" y="728" type="qcurve"/>
      <point x="441" y="758"/>
      <point x="441" y="783" type="qcurve"/>
      <point x="441" y="800"/>
      <point x="420" y="819"/>
      <point x="405" y="819" type="qcurve"/>
      <point x="380" y="819"/>
      <point x="353" y="776" type="qcurve"/>
      <point x="344" y="762"/>
      <point x="324" y="732" type="qcurve"/>
      <point x="277" y="661"/>
      <point x="254" y="624" type="qcurve"/>
    </contour>
  </outline>
</glyph>
<glyph name="otilde" format="2">
  <advance width="594" height="1000"/>
  <unicode hex="00F5"/>
  <outline>
    <contour>
      <point x="128" y="53" type="qcurve"/>
      <point x="196" y="-14"/>
      <point x="397" y="-14"/>
      <point x="466" y="53" type="qcurve"/>
      <point x="542" y="127"/>
      <point x="542" y="384"/>
      <point x="465" y="460" type="qcurve"/>
      <point x="396" y="528"/>
      <point x="297" y="528" type="qcurve"/>
      <point x="197" y="528"/>
      <point x="128" y="460" type="qcurve"/>
      <point x="51" y="384"/>
      <point x="51" y="127"/>
    </contour>
    <contour>
      <point x="179" y="84" type="qcurve"/>
      <point x="136" y="144"/>
      <point x="136" y="366"/>
      <point x="221" y="488"/>
      <point x="297" y="488" type="qcurve"/>
      <point x="373" y="488"/>
      <point x="458" y="366"/>
      <point x="458" y="144"/>
      <point x="415" y="84" type="qcurve"/>
      <point x="373" y="26"/>
      <point x="220" y="26"/>
    </contour>
    <contour>
      <point x="370" y="628" type="qcurve"/>
      <point x="448" y="628"/>
      <point x="470" y="759" type="qcurve"/>
      <point x="446" y="766" type="line"/>
      <point x="423" y="680"/>
      <point x="377" y="680" type="qcurve"/>
      <point x="361" y="680"/>
      <point x="345" y="692" type="qcurve"/>
      <point x="335" y="699"/>
      <point x="317" y="717" type="qcurve"/>
      <point x="308" y="727"/>
      <point x="303" y="732" type="qcurve"/>
      <point x="264" y="771"/>
      <point x="224" y="771" type="qcurve"/>
      <point x="144" y="771"/>
      <point x="124" y="640" type="qcurve"/>
      <point x="148" y="632" type="line"/>
      <point x="171" y="719"/>
      <point x="216" y="719" type="qcurve"/>
      <point x="232" y="719"/>
      <point x="248" y="708" type="qcurve"/>
      <point x="258" y="701"/>
      <point x="275" y="682" type="qcurve"/>
      <point x="285" y="672"/>
      <point x="290" y="667" type="qcurve"/>
      <point x="329" y="628"/>
    </contour>
  </outline>
</glyph>
<glyph name="odieresis" format="2">
  <advance width="594" height="1000"/>
  <unicode hex="00F6"/>
  <outline>
    <contour>
      <point x="128" y="53" type="qcurve"/>
      <point x="196" y="-14"/>
      <point x="397" y="-14"/>
      <point x="466" y="53" type="qcurve"/>
      <point x="542" y="127"/>
      <point x="542" y="384"/>
      <point x="465" y="460" type="qcurve"/>
      <point x="396" y="528"/>
      <point x="297" y="528" type="qcurve"/>
      <point x="197" y="528"/>
      <point x="128" y="460" type="qcurve"/>
      <point x="51" y="384"/>
      <point x="51" y="127"/>
    </contour>
    <contour>
      <point x="179" y="84" type="qcurve"/>
      <point x="136" y="144"/>
      <point x="136" y="366"/>
      <point x="221" y="488"/>
      <point x="297" y="488" type="qcurve"/>
      <point x="373" y="488"/>
      <point x="458" y="366"/>
      <point x="458" y="144"/>
      <point x="415" y="84" type="qcurve"/>
      <point x="373" y="26"/>
      <point x="220" y="26"/>
    </contour>
    <contour>
      <point x="186" y="770" type="qcurve"/>
      <point x="162" y="770"/>
      <point x="129" y="739"/>
      <point x="129" y="692"/>
      <point x="162" y="661"/>
      <point x="209" y="661"/>
      <point x="242" y="692"/>
      <point x="242" y="739"/>
      <point x="209" y="770"/>
    </contour>
    <contour>
      <point x="408" y="770" type="qcurve"/>
      <point x="384" y="770"/>
      <point x="351" y="739"/>
      <point x="351" y="692"/>
      <point x="384" y="661"/>
      <point x="431" y="661"/>
      <point x="464" y="692"/>
      <point x="464" y="739"/>
      <point x="431" y="770"/>
    </contour>
  </outline>
</glyph>
<glyph name="divide" format="2">
  <advance width="1000" height="1000"/>
  <unicode hex="00F7"/>
  <outline>
    <contour>
      <point x="120" y="346" type="line"/>
      <point x="880" y="346" type="line"/>
      <point x="880" y="390" type="line"/>
      <point x="120" y="390" type="line"/>
    </contour>
    <contour>
      <point x="500" y="164" type="qcurve"/>
      <point x="471" y="164"/>
      <point x="431" y="124"/>
      <point x="431" y="67"/>
      <point x="471" y="27"/>
      <point x="529" y="27"/>
      <point x="569" y="67"/>
      <point x="569" y="124"/>
      <point x="529" y="164"/>
    </contour>
    <contour>
      <point x="500" y="709" type="qcurve"/>
      <point x="471" y="709"/>
      <point x="431" y="669"/>
      <point x="431" y="612"/>
      <point x="471" y="572"/>
      <point x="529" y="572"/>
      <point x="569" y="612"/>
      <point x="569" y="669"/>
      <point x="529" y="709"/>
    </contour>
  </outline>
</glyph>
<glyph name="oslash" format="2">
  <advance width="594" height="1000"/>
  <unicode hex="00F8"/>
  <outline>
    <contour>
      <point x="89" y="-23" type="line"/>
      <point x="140" y="41" type="line"/>
      <point x="207" y="-14"/>
      <point x="297" y="-14" type="qcurve"/>
      <point x="397" y="-14"/>
      <point x="466" y="53" type="qcurve"/>
      <point x="542" y="127"/>
      <point x="542" y="255" type="qcurve"/>
      <point x="542" y="376"/>
      <point x="472" y="453" type="qcurve"/>
      <point x="526" y="520" type="line"/>
      <point x="497" y="542" type="line"/>
      <point x="445" y="477" type="line"/>
      <point x="381" y="528"/>
      <point x="297" y="528" type="qcurve"/>
      <point x="197" y="528"/>
      <point x="128" y="460" type="qcurve"/>
      <point x="51" y="384"/>
      <point x="51" y="255" type="qcurve"/>
      <point x="51" y="140"/>
      <point x="114" y="67" type="qcurve"/>
      <point x="60" y="0" type="line"/>
    </contour>
    <contour>
      <point x="297" y="26" type="qcurve"/>
      <point x="220" y="26"/>
      <point x="177" y="86" type="qcurve"/>
      <point x="430" y="401" type="line"/>
      <point x="458" y="343"/>
      <point x="458" y="255" type="qcurve"/>
      <point x="458" y="144"/>
      <point x="415" y="84" type="qcurve"/>
      <point x="373" y="26"/>
    </contour>
    <contour>
      <point x="158" y="122" type="line"/>
      <point x="136" y="177"/>
      <point x="136" y="255" type="qcurve"/>
      <point x="136" y="366"/>
      <point x="221" y="488"/>
      <point x="297" y="488" type="qcurve"/>
      <point x="368" y="488"/>
      <point x="410" y="434" type="qcurve"/>
    </contour>
  </outline>
</glyph>
<glyph name="uacute" format="2">
  <advance width="639" height="1000"/>
  <unicode hex="00FA"/>
  <outline>
    <contour>
      <point x="252" y="-14" type="qcurve"/>
      <point x="362" y="-14"/>
      <point x="447" y="91" type="qcurve"/>
      <point x="455" y="-9" type="line"/>
      <point x="597" y="0" type="line"/>
      <point x="597" y="32" type="line"/>
      <point x="520" y="44" type="line"/>
      <point x="520" y="358" type="line"/>
      <point x="524" y="510" type="line"/>
      <point x="513" y="521" type="line"/>
      <point x="365" y="508" type="line"/>
      <point x="365" y="476" type="line"/>
      <point x="447" y="462" type="line"/>
      <point x="445" y="130" type="line"/>
      <point x="368" y="50"/>
      <point x="282" y="50" type="qcurve"/>
      <point x="232" y="50"/>
      <point x="209" y="81" type="qcurve"/>
      <point x="185" y="114"/>
      <point x="185" y="190" type="qcurve"/>
      <point x="185" y="358" type="line"/>
      <point x="190" y="510" type="line"/>
      <point x="180" y="521" type="line"/>
      <point x="30" y="508" type="line"/>
      <point x="30" y="476" type="line"/>
      <point x="113" y="462" type="line"/>
      <point x="110" y="184" type="line"/>
      <point x="109" y="78"/>
      <point x="147" y="30" type="qcurve"/>
      <point x="181" y="-14"/>
    </contour>
    <contour>
      <point x="286" y="608" type="line"/>
      <point x="330" y="647"/>
      <point x="412" y="724" type="qcurve"/>
      <point x="415" y="727"/>
      <point x="417" y="728" type="qcurve"/>
      <point x="452" y="758"/>
      <point x="452" y="783" type="qcurve"/>
      <point x="452" y="800"/>
      <point x="431" y="819"/>
      <point x="416" y="819" type="qcurve"/>
      <point x="391" y="819"/>
      <point x="364" y="776" type="qcurve"/>
      <point x="355" y="762"/>
      <point x="335" y="732" type="qcurve"/>
      <point x="288" y="661"/>
      <point x="265" y="624" type="qcurve"/>
    </contour>
  </outline>
</glyph>
<glyph name="thorn" format="2">
  <advance width="608" height="1000"/>
  <unicode hex="00FE"/>
  <outline>
    <contour>
      <point x="16" y="-262" type="line"/>
      <point x="287" y="-262" type="line"/>
      <point x="287" y="-230" type="line"/>
      <point x="185" y="-217" type="line"/>
      <point x="183" y="-97"/>
      <point x="183" y="-34" type="qcurve"/>
      <point x="183" y="62" type="line"/>
      <point x="245" y="-14"/>
      <point x="335" y="-14" type="qcurve"/>
      <point x="432" y="-14"/>
      <point x="494" y="62" type="qcurve"/>
      <point x="557" y="138"/>
      <point x="557" y="263" type="qcurve"/>
      <point x="557" y="384"/>
      <point x="497" y="457" type="qcurve"/>
      <point x="439" y="528"/>
      <point x="349" y="528" type="qcurve"/>
      <point x="256" y="528"/>
      <point x="183" y="448" type="qcurve"/>
      <point x="183" y="644" type="line"/>
      <point x="186" y="798" type="line"/>
      <point x="171" y="807" type="line"/>
      <point x="17" y="765" type="line"/>
      <point x="17" y="734" type="line"/>
      <point x="110" y="725" type="line"/>
      <point x="110" y="-34" type="line"/>
      <point x="110" y="-97"/>
      <point x="108" y="-217" type="qcurve"/>
      <point x="16" y="-230" type="line"/>
    </contour>
    <contour>
      <point x="321" y="37" type="qcurve"/>
      <point x="250" y="37"/>
      <point x="185" y="99" type="qcurve"/>
      <point x="185" y="413" type="line"/>
      <point x="256" y="478"/>
      <point x="326" y="478" type="qcurve"/>
      <point x="394" y="478"/>
      <point x="434" y="422" type="qcurve"/>
      <point x="475" y="363"/>
      <point x="475" y="257" type="qcurve"/>
      <point x="475" y="148"/>
      <point x="429" y="90" type="qcurve"/>
      <point x="388" y="37"/>
    </contour>
  </outline>
</glyph>
<glyph name="Abreve" format="2">
  <advance width="719" height="1000"/>
  <unicode hex="0102"/>
  <outline>
    <contour>
      <point x="8" y="0" type="line"/>
      <point x="248" y="0" type="line"/>
      <point x="248" y="36" type="line"/>
      <point x="143" y="49" type="line"/>
      <point x="208" y="246" type="line"/>
      <point x="465" y="246" type="line"/>
      <point x="531" y="47" type="line"/>
      <point x="421" y="36" type="line"/>
      <point x="421" y="0" type="line"/>
      <point x="710" y="0" type="line"/>
      <point x="710" y="36" type="line"/>
      <point x="620" y="46" type="line"/>
      <point x="385" y="736" type="line"/>
      <point x="329" y="736" type="line"/>
      <point x="98" y="48" type="line"/>
      <point x="8" y="36" type="line"/>
    </contour>
    <contour>
      <point x="222" y="287" type="line"/>
      <point x="336" y="633" type="line"/>
      <point x="451" y="287" type="line"/>
    </contour>
    <contour>
      <point x="359" y="789" type="qcurve"/>
      <point x="425" y="789"/>
      <point x="468" y="833" type="qcurve"/>
      <point x="504" y="871"/>
      <point x="513" y="925" type="qcurve"/>
      <point x="487" y="935" type="line"/>
      <point x="451" y="847"/>
      <point x="359" y="847" type="qcurve"/>
      <point x="312" y="847"/>
      <point x="278" y="872" type="qcurve"/>
      <point x="246" y="895"/>
      <point x="232" y="935" type="qcurve"/>
      <point x="205" y="925" type="line"/>
      <point x="214" y="871"/>
      <point x="251" y="833" type="qcurve"/>
      <point x="293" y="789"/>
    </contour>
  </outline>
</glyph>
<glyph name="dcroat" format="2">
  <advance width="617" height="1000"/>
  <unicode hex="0111"/>
  <outline>
    <contour>
      <point x="272" y="-14" type="qcurve"/>
      <point x="367" y="-14"/>
      <point x="428" y="66" type="qcurve"/>
      <point x="434" y="-10" type="line"/>
      <point x="598" y="0" type="line"/>
      <point x="598" y="32" type="line"/>
      <point x="502" y="43" type="line"/>
      <point x="502" y="600" type="line"/>
      <point x="595" y="600" type="line"/>
      <point x="595" y="640" type="line"/>
      <point x="502" y="640" type="line"/>
      <point x="505" y="798" type="line"/>
      <point x="491" y="807" type="line"/>
      <point x="335" y="765" type="line"/>
      <point x="335" y="734" type="line"/>
      <point x="429" y="726" type="line"/>
      <point x="429" y="640" type="line"/>
      <point x="224" y="640" type="line"/>
      <point x="224" y="600" type="line"/>
      <point x="429" y="600" type="line"/>
      <point x="429" y="441" type="line"/>
      <point x="367" y="514"/>
      <point x="279" y="514" type="qcurve"/>
      <point x="181" y="514"/>
      <point x="116" y="439" type="qcurve"/>
      <point x="51" y="363"/>
      <point x="51" y="243" type="qcurve"/>
      <point x="51" y="129"/>
      <point x="174" y="-14"/>
    </contour>
    <contour>
      <point x="292" y="36" type="qcurve"/>
      <point x="220" y="36"/>
      <point x="178" y="87" type="qcurve"/>
      <point x="132" y="142"/>
      <point x="132" y="246" type="qcurve"/>
      <point x="132" y="351"/>
      <point x="181" y="410" type="qcurve"/>
      <point x="225" y="464"/>
      <point x="296" y="464" type="qcurve"/>
      <point x="360" y="464"/>
      <point x="426" y="402" type="qcurve"/>
      <point x="426" y="106" type="line"/>
      <point x="393" y="68"/>
      <point x="331" y="36"/>
    </contour>
  </outline>
</glyph>
<glyph name="Ebreve" format="2">
  <advance width="651" height="1000"/>
  <unicode hex="0114"/>
  <outline>
    <contour>
      <point x="53" y="0" type="line"/>
      <point x="601" y="0" type="line"/>
      <point x="608" y="182" type="line"/>
      <point x="566" y="182" type="line"/>
      <point x="538" y="34" type="line"/>
      <point x="245" y="34" type="line"/>
      <point x="244" y="129"/>
      <point x="244" y="354" type="qcurve"/>
      <point x="423" y="354" type="line"/>
      <point x="435" y="249" type="line"/>
      <point x="470" y="249" type="line"/>
      <point x="470" y="492" type="line"/>
      <point x="435" y="492" type="line"/>
      <point x="422" y="386" type="line"/>
      <point x="244" y="386" type="line"/>
      <point x="244" y="597"/>
      <point x="245" y="693" type="qcurve"/>
      <point x="520" y="693" type="line"/>
      <point x="548" y="548" type="line"/>
      <point x="590" y="548" type="line"/>
      <point x="583" y="728" type="line"/>
      <point x="53" y="728" type="line"/>
      <point x="53" y="699" type="line"/>
      <point x="158" y="690" type="line"/>
      <point x="160" y="591"/>
      <point x="160" y="391" type="qcurve"/>
      <point x="160" y="336" type="line"/>
      <point x="160" y="137"/>
      <point x="158" y="39" type="qcurve"/>
      <point x="53" y="29" type="line"/>
    </contour>
    <contour>
      <point x="363" y="801" type="qcurve"/>
      <point x="431" y="801"/>
      <point x="475" y="849" type="qcurve"/>
      <point x="515" y="893"/>
      <point x="524" y="961" type="qcurve"/>
      <point x="502" y="968" type="line"/>
      <point x="468" y="856"/>
      <point x="363" y="856" type="qcurve"/>
      <point x="260" y="856"/>
      <point x="224" y="968" type="qcurve"/>
      <point x="203" y="961" type="line"/>
      <point x="211" y="893"/>
      <point x="251" y="849" type="qcurve"/>
      <point x="295" y="801"/>
    </contour>
  </outline>
</glyph>
<glyph name="Ecaron" format="2">
  <advance width="655" height="1000"/>
  <unicode hex="011A"/>
  <outline>
    <contour>
      <point x="52" y="0" type="line"/>
      <point x="607" y="0" type="line"/>
      <point x="614" y="189" type="line"/>
      <point x="564" y="189" type="line"/>
      <point x="538" y="45" type="line"/>
      <point x="245" y="45" type="line"/>
      <point x="242" y="142"/>
      <point x="242" y="351" type="qcurve"/>
      <point x="418" y="351" type="line"/>
      <point x="432" y="246" type="line"/>
      <point x="473" y="246" type="line"/>
      <point x="473" y="499" type="line"/>
      <point x="432" y="499" type="line"/>
      <point x="417" y="391" type="line"/>
      <point x="242" y="391" type="line"/>
      <point x="242" y="591"/>
      <point x="245" y="685" type="qcurve"/>
      <point x="518" y="685" type="line"/>
      <point x="545" y="541" type="line"/>
      <point x="594" y="541" type="line"/>
      <point x="587" y="729" type="line"/>
      <point x="52" y="729" type="line"/>
      <point x="52" y="694" type="line"/>
      <point x="156" y="683" type="line"/>
      <point x="159" y="587"/>
      <point x="159" y="392" type="qcurve"/>
      <point x="159" y="337" type="line"/>
      <point x="159" y="142"/>
      <point x="156" y="47" type="qcurve"/>
      <point x="52" y="36" type="line"/>
    </contour>
    <contour>
      <point x="336" y="796" type="line"/>
      <point x="403" y="796" type="line"/>
      <point x="515" y="924" type="line"/>
      <point x="496" y="941" type="line"/>
      <point x="371" y="848" type="line"/>
      <point x="245" y="941" type="line"/>
      <point x="224" y="924" type="line"/>
    </contour>
  </outline>
</glyph>
<glyph name="itilde" format="2">
  <advance width="325" height="1000"/>
  <unicode hex="0129"/>
  <outline>
    <contour>
      <point x="41" y="0" type="line"/>
      <point x="285" y="0" type="line"/>
      <point x="285" y="32" type="line"/>
      <point x="206" y="45" type="line"/>
      <point x="204" y="155"/>
      <point x="204" y="228" type="qcurve"/>
      <point x="204" y="375" type="line"/>
      <point x="208" y="517" type="line"/>
      <point x="193" y="527" type="line"/>
      <point x="36" y="475" type="line"/>
      <point x="36" y="442" type="line"/>
      <point x="126" y="436" type="line"/>
      <point x="129" y="366"/>
      <point x="129" y="284" type="qcurve"/>
      <point x="129" y="228" type="line"/>
      <point x="129" y="155"/>
      <point x="127" y="45" type="qcurve"/>
      <point x="41" y="32" type="line"/>
    </contour>
    <contour>
      <point x="235" y="628" type="qcurve"/>
      <point x="313" y="628"/>
      <point x="335" y="759" type="qcurve"/>
      <point x="311" y="766" type="line"/>
      <point x="288" y="680"/>
      <point x="242" y="680" type="qcurve"/>
      <point x="226" y="680"/>
      <point x="210" y="692" type="qcurve"/>
      <point x="200" y="699"/>
      <point x="182" y="717" type="qcurve"/>
      <point x="173" y="727"/>
      <point x="168" y="732" type="qcurve"/>
      <point x="129" y="771"/>
      <point x="89" y="771" type="qcurve"/>
      <point x="9" y="771"/>
      <point x="-11" y="640" type="qcurve"/>
      <point x="13" y="632" type="line"/>
      <point x="36" y="719"/>
      <point x="82" y="719" type="qcurve"/>
      <point x="98" y="719"/>
      <point x="114" y="707" type="qcurve"/>
      <point x="124" y="700"/>
      <point x="142" y="680" type="qcurve"/>
      <point x="151" y="671"/>
      <point x="155" y="667" type="qcurve"/>
      <point x="194" y="628"/>
    </contour>
  </outline>
</glyph>
<glyph name="Imacron" format="2">
  <advance width="401" height="1000"/>
  <unicode hex="012A"/>
  <outline>
    <contour>
      <point x="52" y="0" type="line"/>
      <point x="349" y="0" type="line"/>
      <point x="349" y="36" type="line"/>
      <point x="245" y="47" type="line"/>
      <point x="242" y="143"/>
      <point x="242" y="337" type="qcurve"/>
      <point x="242" y="392" type="line"/>
      <point x="242" y="588"/>
      <point x="245" y="683" type="qcurve"/>
      <point x="349" y="694" type="line"/>
      <point x="349" y="729" type="line"/>
      <point x="52" y="729" type="line"/>
      <point x="52" y="694" type="line"/>
      <point x="156" y="683" type="line"/>
      <point x="159" y="587"/>
      <point x="159" y="392" type="qcurve"/>
      <point x="159" y="337" type="line"/>
      <point x="159" y="142"/>
      <point x="156" y="47" type="qcurve"/>
      <point x="52" y="36" type="line"/>
    </contour>
    <contour>
      <point x="38" y="828" type="line"/>
      <point x="363" y="828" type="line"/>
      <point x="363" y="884" type="line"/>
      <point x="38" y="884" type="line"/>
    </contour>
  </outline>
</glyph>
<glyph name="Ibreve" format="2">
  <advance width="404" height="1000"/>
  <unicode hex="012C"/>
  <outline>
    <contour>
      <point x="53" y="0" type="line"/>
      <point x="350" y="0" type="line"/>
      <point x="350" y="29" type="line"/>
      <point x="245" y="39" type="line"/>
      <point x="244" y="137"/>
      <point x="244" y="337" type="qcurve"/>
      <point x="244" y="391" type="line"/>
      <point x="244" y="592"/>
      <point x="245" y="690" type="qcurve"/>
      <point x="350" y="699" type="line"/>
      <point x="350" y="728" type="line"/>
      <point x="53" y="728" type="line"/>
      <point x="53" y="699" type="line"/>
      <point x="158" y="690" type="line"/>
      <point x="160" y="591"/>
      <point x="160" y="391" type="qcurve"/>
      <point x="160" y="336" type="line"/>
      <point x="160" y="137"/>
      <point x="158" y="39" type="qcurve"/>
      <point x="53" y="29" type="line"/>
    </contour>
    <contour>
      <point x="203" y="801" type="qcurve"/>
      <point x="271" y="801"/>
      <point x="315" y="849" type="qcurve"/>
      <point x="355" y="893"/>
      <point x="364" y="961" type="qcurve"/>
      <point x="342" y="968" type="line"/>
      <point x="308" y="856"/>
      <point x="203" y="856" type="qcurve"/>
      <point x="100" y="856"/>
      <point x="64" y="968" type="qcurve"/>
      <point x="43" y="961" type="line"/>
      <point x="51" y="893"/>
      <point x="91" y="849" type="qcurve"/>
      <point x="135" y="801"/>
    </contour>
  </outline>
</glyph>
<glyph name="ibreve" format="2">
  <advance width="331" height="1000"/>
  <unicode hex="012D"/>
  <outline>
    <contour>
      <point x="44" y="0" type="line"/>
      <point x="288" y="0" type="line"/>
      <point x="288" y="28" type="line"/>
      <point x="210" y="36" type="line"/>
      <point x="208" y="148"/>
      <point x="208" y="228" type="qcurve"/>
      <point x="208" y="380" type="line"/>
      <point x="212" y="519" type="line"/>
      <point x="198" y="526" type="line"/>
      <point x="38" y="488" type="line"/>
      <point x="38" y="463" type="line"/>
      <point x="128" y="459" type="line"/>
      <point x="132" y="383"/>
      <point x="132" y="288" type="qcurve"/>
      <point x="132" y="228" type="line"/>
      <point x="132" y="148"/>
      <point x="130" y="36" type="qcurve"/>
      <point x="44" y="28" type="line"/>
    </contour>
    <contour>
      <point x="167" y="627" type="qcurve"/>
      <point x="235" y="627"/>
      <point x="279" y="675" type="qcurve"/>
      <point x="319" y="719"/>
      <point x="328" y="787" type="qcurve"/>
      <point x="306" y="794" type="line"/>
      <point x="272" y="682"/>
      <point x="167" y="682" type="qcurve"/>
      <point x="64" y="682"/>
      <point x="28" y="794" type="qcurve"/>
      <point x="7" y="787" type="line"/>
      <point x="15" y="719"/>
      <point x="55" y="675" type="qcurve"/>
      <point x="99" y="627"/>
    </contour>
  </outline>
</glyph>
<glyph name="Obreve" format="2">
  <advance width="769" height="1000"/>
  <unicode hex="014E"/>
  <outline>
    <contour>
      <point x="385" y="-16" type="qcurve"/>
      <point x="471" y="-16"/>
      <point x="545" y="30" type="qcurve"/>
      <point x="621" y="77"/>
      <point x="665" y="161" type="qcurve"/>
      <point x="712" y="251"/>
      <point x="712" y="365" type="qcurve"/>
      <point x="712" y="540"/>
      <point x="612" y="647" type="qcurve"/>
      <point x="520" y="746"/>
      <point x="385" y="746" type="qcurve"/>
      <point x="298" y="746"/>
      <point x="223" y="700" type="qcurve"/>
      <point x="147" y="652"/>
      <point x="103" y="569" type="qcurve"/>
      <point x="55" y="479"/>
      <point x="55" y="365" type="qcurve"/>
      <point x="55" y="190"/>
      <point x="156" y="83" type="qcurve"/>
      <point x="249" y="-16"/>
    </contour>
    <contour>
      <point x="385" y="28" type="qcurve"/>
      <point x="273" y="28"/>
      <point x="210" y="132" type="qcurve"/>
      <point x="153" y="225"/>
      <point x="153" y="505"/>
      <point x="210" y="598" type="qcurve"/>
      <point x="273" y="701"/>
      <point x="385" y="701" type="qcurve"/>
      <point x="496" y="701"/>
      <point x="559" y="598" type="qcurve"/>
      <point x="615" y="505"/>
      <point x="615" y="225"/>
      <point x="559" y="132" type="qcurve"/>
      <point x="496" y="28"/>
    </contour>
    <contour>
      <point x="385" y="809" type="qcurve"/>
      <point x="450" y="809"/>
      <point x="493" y="853" type="qcurve"/>
      <point x="529" y="890"/>
      <point x="538" y="945" type="qcurve"/>
      <point x="512" y="953" type="line"/>
      <point x="476" y="865"/>
      <point x="385" y="865" type="qcurve"/>
      <point x="338" y="865"/>
      <point x="304" y="890" type="qcurve"/>
      <point x="272" y="913"/>
      <point x="257" y="953" type="qcurve"/>
      <point x="230" y="945" type="line"/>
      <point x="239" y="890"/>
      <point x="276" y="853" type="qcurve"/>
      <point x="318" y="809"/>
    </contour>
  </outline>
</glyph>
<glyph name="Odoubleacute" format="2">
  <advance width="766" height="1000"/>
  <unicode hex="0150"/>
  <outline>
    <contour>
      <point x="383" y="-16" type="qcurve"/>
      <point x="520" y="-16"/>
      <point x="612" y="85" type="qcurve"/>
      <point x="709" y="191"/>
      <point x="709" y="363" type="qcurve"/>
      <point x="709" y="538"/>
      <point x="612" y="644" type="qcurve"/>
      <point x="521" y="744"/>
      <point x="383" y="744" type="qcurve"/>
      <point x="246" y="744"/>
      <point x="154" y="642" type="qcurve"/>
      <point x="57" y="535"/>
      <point x="57" y="363" type="qcurve"/>
      <point x="57" y="189"/>
      <point x="154" y="84" type="qcurve"/>
      <point x="245" y="-16"/>
    </contour>
    <contour>
      <point x="383" y="18" type="qcurve"/>
      <point x="273" y="18"/>
      <point x="208" y="120" type="qcurve"/>
      <point x="148" y="215"/>
      <point x="148" y="511"/>
      <point x="208" y="607" type="qcurve"/>
      <point x="273" y="710"/>
      <point x="383" y="710" type="qcurve"/>
      <point x="494" y="710"/>
      <point x="558" y="607" type="qcurve"/>
      <point x="618" y="511"/>
      <point x="618" y="215"/>
      <point x="558" y="120" type="qcurve"/>
      <point x="494" y="18"/>
    </contour>
    <contour>
      <point x="289" y="783" type="line"/>
      <point x="294" y="788"/>
      <point x="305" y="798" type="qcurve"/>
      <point x="377" y="867"/>
      <point x="415" y="898" type="qcurve"/>
      <point x="456" y="931"/>
      <point x="456" y="957" type="qcurve"/>
      <point x="456" y="972"/>
      <point x="436" y="990"/>
      <point x="423" y="990" type="qcurve"/>
      <point x="400" y="990"/>
      <point x="370" y="946" type="qcurve"/>
      <point x="356" y="924"/>
      <point x="325" y="877" type="qcurve"/>
      <point x="289" y="824"/>
      <point x="272" y="797" type="qcurve"/>
    </contour>
    <contour>
      <point x="422" y="783" type="line"/>
      <point x="433" y="794"/>
      <point x="456" y="815" type="qcurve"/>
      <point x="516" y="872"/>
      <point x="548" y="898" type="qcurve"/>
      <point x="590" y="932"/>
      <point x="590" y="957" type="qcurve"/>
      <point x="590" y="972"/>
      <point x="570" y="990"/>
      <point x="556" y="990" type="qcurve"/>
      <point x="532" y="990"/>
      <point x="504" y="946" type="qcurve"/>
      <point x="493" y="929"/>
      <point x="468" y="893" type="qcurve"/>
      <point x="426" y="830"/>
      <point x="405" y="797" type="qcurve"/>
    </contour>
  </outline>
</glyph>
<glyph name="OE" format="2">
  <advance width="1012" height="1000"/>
  <unicode hex="0152"/>
  <outline>
    <contour>
      <point x="415" y="-16" type="qcurve"/>
      <point x="472" y="-16"/>
      <point x="549" y="0" type="qcurve"/>
      <point x="964" y="0" type="line"/>
      <point x="971" y="189" type="line"/>
      <point x="922" y="189" type="line"/>
      <point x="895" y="45" type="line"/>
      <point x="602" y="45" type="line"/>
      <point x="600" y="142"/>
      <point x="600" y="351" type="qcurve"/>
      <point x="774" y="351" type="line"/>
      <point x="787" y="246" type="line"/>
      <point x="828" y="246" type="line"/>
      <point x="828" y="499" type="line"/>
      <point x="787" y="499" type="line"/>
      <point x="773" y="391" type="line"/>
      <point x="600" y="391" type="line"/>
      <point x="600" y="591"/>
      <point x="602" y="685" type="qcurve"/>
      <point x="874" y="685" type="line"/>
      <point x="901" y="541" type="line"/>
      <point x="950" y="541" type="line"/>
      <point x="944" y="729" type="line"/>
      <point x="549" y="729" type="line"/>
      <point x="467" y="746"/>
      <point x="415" y="746" type="qcurve"/>
      <point x="260" y="746"/>
      <point x="160" y="645" type="qcurve"/>
      <point x="55" y="539"/>
      <point x="55" y="191"/>
      <point x="160" y="85" type="qcurve"/>
      <point x="260" y="-16"/>
    </contour>
    <contour>
      <point x="423" y="28" type="qcurve"/>
      <point x="287" y="28"/>
      <point x="216" y="131" type="qcurve"/>
      <point x="153" y="221"/>
      <point x="153" y="508"/>
      <point x="216" y="598" type="qcurve"/>
      <point x="287" y="701"/>
      <point x="423" y="701" type="qcurve"/>
      <point x="473" y="701"/>
      <point x="513" y="690" type="qcurve"/>
      <point x="515" y="592"/>
      <point x="515" y="392" type="qcurve"/>
      <point x="515" y="337" type="line"/>
      <point x="515" y="137"/>
      <point x="513" y="40" type="qcurve"/>
      <point x="474" y="28"/>
    </contour>
  </outline>
</glyph>
<glyph name="ubreve" format="2">
  <advance width="639" height="1000"/>
  <unicode hex="016D"/>
  <outline>
    <contour>
      <point x="252" y="-14" type="qcurve"/>
      <point x="362" y="-14"/>
      <point x="447" y="91" type="qcurve"/>
      <point x="455" y="-9" type="line"/>
      <point x="597" y="0" type="line"/>
      <point x="597" y="32" type="line"/>
      <point x="520" y="44" type="line"/>
      <point x="520" y="358" type="line"/>
      <point x="524" y="510" type="line"/>
      <point x="513" y="521" type="line"/>
      <point x="365" y="508" type="line"/>
      <point x="365" y="476" type="line"/>
      <point x="447" y="462" type="line"/>
      <point x="445" y="130" type="line"/>
      <point x="368" y="50"/>
      <point x="282" y="50" type="qcurve"/>
      <point x="232" y="50"/>
      <point x="209" y="81" type="qcurve"/>
      <point x="185" y="114"/>
      <point x="185" y="190" type="qcurve"/>
      <point x="185" y="358" type="line"/>
      <point x="190" y="510" type="line"/>
      <point x="180" y="521" type="line"/>
      <point x="30" y="508" type="line"/>
      <point x="30" y="476" type="line"/>
      <point x="113" y="462" type="line"/>
      <point x="110" y="184" type="line"/>
      <point x="109" y="78"/>
      <point x="147" y="30" type="qcurve"/>
      <point x="181" y="-14"/>
    </contour>
    <contour>
      <point x="320" y="627" type="qcurve"/>
      <point x="388" y="627"/>
      <point x="432" y="675" type="qcurve"/>
      <point x="473" y="719"/>
      <point x="480" y="787" type="qcurve"/>
      <point x="455" y="796" type="line"/>
      <point x="419" y="689"/>
      <point x="320" y="689" type="qcurve"/>
      <point x="221" y="689"/>
      <point x="184" y="796" type="qcurve"/>
      <point x="159" y="787" type="line"/>
      <point x="166" y="719"/>
      <point x="207" y="675" type="qcurve"/>
      <point x="251" y="627"/>
    </contour>
  </outline>
</glyph>
<glyph name="Udoubleacute" format="2">
  <advance width="796" height="1000"/>
  <unicode hex="0170"/>
  <outline>
    <contour>
      <point x="402" y="-16" type="qcurve"/>
      <point x="655" y="-16"/>
      <point x="656" y="285" type="qcurve"/>
      <point x="657" y="687" type="line"/>
      <point x="755" y="699" type="line"/>
      <point x="755" y="728" type="line"/>
      <point x="496" y="728" type="line"/>
      <point x="496" y="699" type="line"/>
      <point x="619" y="687" type="line"/>
      <point x="619" y="306" type="line"/>
      <point x="620" y="163"/>
      <point x="570" y="99" type="qcurve"/>
      <point x="523" y="38"/>
      <point x="418" y="38" type="qcurve"/>
      <point x="227" y="38"/>
      <point x="227" y="291" type="qcurve"/>
      <point x="227" y="391" type="line"/>
      <point x="227" y="592"/>
      <point x="229" y="690" type="qcurve"/>
      <point x="338" y="699" type="line"/>
      <point x="338" y="728" type="line"/>
      <point x="46" y="728" type="line"/>
      <point x="46" y="699" type="line"/>
      <point x="142" y="691" type="line"/>
      <point x="143" y="592"/>
      <point x="143" y="391" type="qcurve"/>
      <point x="143" y="276" type="line"/>
      <point x="143" y="-16"/>
    </contour>
    <contour>
      <point x="325" y="783" type="line"/>
      <point x="330" y="788"/>
      <point x="341" y="798" type="qcurve"/>
      <point x="413" y="867"/>
      <point x="451" y="898" type="qcurve"/>
      <point x="492" y="931"/>
      <point x="492" y="957" type="qcurve"/>
      <point x="492" y="972"/>
      <point x="472" y="990"/>
      <point x="459" y="990" type="qcurve"/>
      <point x="436" y="990"/>
      <point x="406" y="946" type="qcurve"/>
      <point x="392" y="924"/>
      <point x="361" y="877" type="qcurve"/>
      <point x="325" y="824"/>
      <point x="308" y="797" type="qcurve"/>
    </contour>
    <contour>
      <point x="458" y="783" type="line"/>
      <point x="469" y="794"/>
      <point x="492" y="815" type="qcurve"/>
      <point x="552" y="872"/>
      <point x="584" y="898" type="qcurve"/>
      <point x="626" y="932"/>
      <point x="626" y="957" type="qcurve"/>
      <point x="626" y="972"/>
      <point x="606" y="990"/>
      <point x="592" y="990" type="qcurve"/>
      <point x="568" y="990"/>
      <point x="540" y="946" type="qcurve"/>
      <point x="529" y="929"/>
      <point x="504" y="893" type="qcurve"/>
      <point x="462" y="830"/>
      <point x="441" y="797" type="qcurve"/>
    </contour>
  </outline>
</glyph>
<glyph name="udoubleacute" format="2">
  <advance width="651" height="1000"/>
  <unicode hex="0171"/>
  <outline>
    <contour>
      <point x="261" y="-15" type="qcurve"/>
      <point x="367" y="-15"/>
      <point x="454" y="94" type="qcurve"/>
      <point x="458" y="-9" type="line"/>
      <point x="609" y="0" type="line"/>
      <point x="609" y="27" type="line"/>
      <point x="532" y="35" type="line"/>
      <point x="532" y="358" type="line"/>
      <point x="536" y="510" type="line"/>
      <point x="525" y="522" type="line"/>
      <point x="373" y="506" type="line"/>
      <point x="373" y="480" type="line"/>
      <point x="456" y="469" type="line"/>
      <point x="453" y="126" type="line"/>
      <point x="379" y="41"/>
      <point x="294" y="41" type="qcurve"/>
      <point x="243" y="41"/>
      <point x="219" y="73" type="qcurve"/>
      <point x="192" y="108"/>
      <point x="192" y="185" type="qcurve"/>
      <point x="192" y="358" type="line"/>
      <point x="198" y="510" type="line"/>
      <point x="187" y="522" type="line"/>
      <point x="33" y="507" type="line"/>
      <point x="33" y="481" type="line"/>
      <point x="118" y="469" type="line"/>
      <point x="114" y="186" type="line"/>
      <point x="113" y="78"/>
      <point x="152" y="30" type="qcurve"/>
      <point x="187" y="-15"/>
    </contour>
    <contour>
      <point x="231" y="609" type="line"/>
      <point x="236" y="614"/>
      <point x="247" y="624" type="qcurve"/>
      <point x="319" y="693"/>
      <point x="357" y="724" type="qcurve"/>
      <point x="398" y="757"/>
      <point x="398" y="783" type="qcurve"/>
      <point x="398" y="798"/>
      <point x="378" y="816"/>
      <point x="365" y="816" type="qcurve"/>
      <point x="342" y="816"/>
      <point x="312" y="772" type="qcurve"/>
      <point x="298" y="750"/>
      <point x="267" y="703" type="qcurve"/>
      <point x="231" y="650"/>
      <point x="214" y="623" type="qcurve"/>
    </contour>
    <contour>
      <point x="364" y="609" type="line"/>
      <point x="375" y="620"/>
      <point x="398" y="641" type="qcurve"/>
      <point x="458" y="698"/>
      <point x="490" y="724" type="qcurve"/>
      <point x="532" y="758"/>
      <point x="532" y="783" type="qcurve"/>
      <point x="532" y="798"/>
      <point x="512" y="816"/>
      <point x="498" y="816" type="qcurve"/>
      <point x="474" y="816"/>
      <point x="446" y="772" type="qcurve"/>
      <point x="435" y="755"/>
      <point x="410" y="719" type="qcurve"/>
      <point x="368" y="656"/>
      <point x="347" y="623" type="qcurve"/>
    </contour>
  </outline>
</glyph>
<glyph name="Ibar" format="2">
  <advance width="404" height="1000"/>
  <unicode hex="0197"/>
  <outline>
    <contour>
      <point x="53" y="0" type="line"/>
      <point x="350" y="0" type="line"/>
      <point x="350" y="29" type="line"/>
      <point x="245" y="39" type="line"/>
      <point x="244" y="137"/>
      <point x="244" y="337" type="qcurve"/>
      <point x="244" y="391" type="line"/>
      <point x="352" y="391" type="line"/>
      <point x="352" y="427" type="line"/>
      <point x="244" y="427" type="line"/>
      <point x="244" y="604"/>
      <point x="245" y="690" type="qcurve"/>
      <point x="350" y="699" type="line"/>
      <point x="350" y="728" type="line"/>
      <point x="53" y="728" type="line"/>
      <point x="53" y="699" type="line"/>
      <point x="158" y="690" type="line"/>
      <point x="160" y="603"/>
      <point x="160" y="427" type="qcurve"/>
      <point x="56" y="427" type="line"/>
      <point x="56" y="391" type="line"/>
      <point x="160" y="391" type="line"/>
      <point x="160" y="336" type="line"/>
      <point x="160" y="137"/>
      <point x="158" y="39" type="qcurve"/>
      <point x="53" y="29" type="line"/>
    </contour>
  </outline>
</glyph>
<glyph name="Acaron" format="2">
  <advance width="719" height="1000"/>
  <unicode hex="01CD"/>
  <outline>
    <contour>
      <point x="8" y="0" type="line"/>
      <point x="248" y="0" type="line"/>
      <point x="248" y="36" type="line"/>
      <point x="143" y="49" type="line"/>
      <point x="208" y="246" type="line"/>
      <point x="465" y="246" type="line"/>
      <point x="531" y="47" type="line"/>
      <point x="421" y="36" type="line"/>
      <point x="421" y="0" type="line"/>
      <point x="710" y="0" type="line"/>
      <point x="710" y="36" type="line"/>
      <point x="620" y="46" type="line"/>
      <point x="385" y="736" type="line"/>
      <point x="329" y="736" type="line"/>
      <point x="98" y="48" type="line"/>
      <point x="8" y="36" type="line"/>
    </contour>
    <contour>
      <point x="222" y="287" type="line"/>
      <point x="336" y="633" type="line"/>
      <point x="451" y="287" type="line"/>
    </contour>
    <contour>
      <point x="321" y="796" type="line"/>
      <point x="388" y="796" type="line"/>
      <point x="500" y="924" type="line"/>
      <point x="480" y="941" type="line"/>
      <point x="355" y="848" type="line"/>
      <point x="229" y="941" type="line"/>
      <point x="209" y="924" type="line"/>
    </contour>
  </outline>
</glyph>
<glyph name="Ucaron" format="2">
  <advance width="792" height="1000"/>
  <unicode hex="01D3"/>
  <outline>
    <contour>
      <point x="401" y="-16" type="qcurve"/>
      <point x="520" y="-16"/>
      <point x="585" y="56" type="qcurve"/>
      <point x="655" y="134"/>
      <point x="655" y="290" type="qcurve"/>
      <point x="657" y="682" type="line"/>
      <point x="752" y="694" type="line"/>
      <point x="752" y="729" type="line"/>
      <point x="492" y="729" type="line"/>
      <point x="492" y="694" type="line"/>
      <point x="610" y="680" type="line"/>
      <point x="611" y="318" type="line"/>
      <point x="611" y="174"/>
      <point x="562" y="110" type="qcurve"/>
      <point x="516" y="48"/>
      <point x="414" y="48" type="qcurve"/>
      <point x="323" y="48"/>
      <point x="277" y="103" type="qcurve"/>
      <point x="226" y="164"/>
      <point x="226" y="299" type="qcurve"/>
      <point x="226" y="391" type="line"/>
      <point x="226" y="587"/>
      <point x="227" y="682" type="qcurve"/>
      <point x="340" y="694" type="line"/>
      <point x="340" y="729" type="line"/>
      <point x="46" y="729" type="line"/>
      <point x="46" y="694" type="line"/>
      <point x="139" y="684" type="line"/>
      <point x="141" y="587"/>
      <point x="141" y="391" type="qcurve"/>
      <point x="141" y="275" type="line"/>
      <point x="141" y="127"/>
      <point x="213" y="53" type="qcurve"/>
      <point x="280" y="-16"/>
    </contour>
    <contour>
      <point x="386" y="796" type="line"/>
      <point x="452" y="796" type="line"/>
      <point x="565" y="924" type="line"/>
      <point x="545" y="941" type="line"/>
      <point x="419" y="848" type="line"/>
      <point x="293" y="941" type="line"/>
      <point x="274" y="924" type="line"/>
    </contour>
  </outline>
</glyph>
<glyph name="udieresisgrave" format="2">
  <advance width="639" height="1000"/>
  <unicode hex="01DC"/>
  <outline>
    <contour>
      <point x="252" y="-14" type="qcurve"/>
      <point x="362" y="-14"/>
      <point x="447" y="91" type="qcurve"/>
      <point x="455" y="-9" type="line"/>
      <point x="597" y="0" type="line"/>
      <point x="597" y="32" type="line"/>
      <point x="520" y="44" type="line"/>
      <point x="520" y="358" type="line"/>
      <point x="524" y="510" type="line"/>
      <point x="513" y="521" type="line"/>
      <point x="365" y="508" type="line"/>
      <point x="365" y="476" type="line"/>
      <point x="447" y="462" type="line"/>
      <point x="445" y="130" type="line"/>
      <point x="368" y="50"/>
      <point x="282" y="50" type="qcurve"/>
      <point x="232" y="50"/>
      <point x="209" y="81" type="qcurve"/>
      <point x="185" y="114"/>
      <point x="185" y="190" type="qcurve"/>
      <point x="185" y="358" type="line"/>
      <point x="190" y="510" type="line"/>
      <point x="180" y="521" type="line"/>
      <point x="30" y="508" type="line"/>
      <point x="30" y="476" type="line"/>
      <point x="113" y="462" type="line"/>
      <point x="110" y="184" type="line"/>
      <point x="109" y="78"/>
      <point x="147" y="30" type="qcurve"/>
      <point x="181" y="-14"/>
    </contour>
    <contour>
      <point x="158" y="674" type="qcurve"/>
      <point x="158" y="651"/>
      <point x="190" y="621"/>
      <point x="235" y="621"/>
      <point x="267" y="651"/>
      <point x="267" y="674" type="qcurve"/>
      <point x="267" y="696"/>
      <point x="235" y="726"/>
      <point x="212" y="726" type="qcurve"/>
      <point x="190" y="726"/>
      <point x="158" y="696"/>
    </contour>
    <contour>
      <point x="326" y="727" type="line"/>
      <point x="346" y="745" type="line"/>
      <point x="286" y="857" type="line"/>
      <point x="267" y="898"/>
      <point x="235" y="898" type="qcurve"/>
      <point x="221" y="898"/>
      <point x="201" y="879"/>
      <point x="201" y="863" type="qcurve"/>
      <point x="201" y="839"/>
      <point x="228" y="815" type="qcurve"/>
    </contour>
    <contour>
      <point x="372" y="674" type="qcurve"/>
      <point x="372" y="651"/>
      <point x="404" y="621"/>
      <point x="450" y="621"/>
      <point x="482" y="651"/>
      <point x="482" y="674" type="qcurve"/>
      <point x="482" y="696"/>
      <point x="450" y="726"/>
      <point x="427" y="726" type="qcurve"/>
      <point x="404" y="726"/>
      <point x="372" y="696"/>
    </contour>
  </outline>
</glyph>
<glyph name="Ngrave" format="2">
  <advance width="798" height="1000"/>
  <unicode hex="01F8"/>
  <outline>
    <contour>
      <point x="628" y="-8" type="line"/>
      <point x="661" y="-8" type="line"/>
      <point x="662" y="681" type="line"/>
      <point x="755" y="694" type="line"/>
      <point x="755" y="729" type="line"/>
      <point x="499" y="729" type="line"/>
      <point x="499" y="694" type="line"/>
      <point x="616" y="680" type="line"/>
      <point x="617" y="150" type="line"/>
      <point x="203" y="729" type="line"/>
      <point x="47" y="729" type="line"/>
      <point x="47" y="695" type="line"/>
      <point x="129" y="685" type="line"/>
      <point x="138" y="672" type="line"/>
      <point x="137" y="48" type="line"/>
      <point x="43" y="36" type="line"/>
      <point x="43" y="0" type="line"/>
      <point x="300" y="0" type="line"/>
      <point x="300" y="36" type="line"/>
      <point x="184" y="49" type="line"/>
      <point x="183" y="609" type="line"/>
    </contour>
    <contour>
      <point x="422" y="787" type="qcurve"/>
      <point x="437" y="808" type="line"/>
      <point x="402" y="843"/>
      <point x="334" y="909" type="qcurve"/>
      <point x="291" y="949"/>
      <point x="270" y="949" type="qcurve"/>
      <point x="255" y="949"/>
      <point x="234" y="931"/>
      <point x="234" y="916" type="qcurve"/>
      <point x="234" y="890"/>
      <point x="288" y="860" type="qcurve"/>
      <point x="302" y="852"/>
      <point x="331" y="837" type="qcurve"/>
      <point x="391" y="803"/>
    </contour>
  </outline>
</glyph>
<glyph name="ngrave" format="2">
  <advance width="658" height="1000"/>
  <unicode hex="01F9"/>
  <outline>
    <contour>
      <point x="45" y="0" type="line"/>
      <point x="289" y="0" type="line"/>
      <point x="289" y="32" type="line"/>
      <point x="210" y="45" type="line"/>
      <point x="208" y="155"/>
      <point x="208" y="228" type="qcurve"/>
      <point x="208" y="386" type="line"/>
      <point x="295" y="466"/>
      <point x="372" y="466" type="qcurve"/>
      <point x="421" y="466"/>
      <point x="443" y="436" type="qcurve"/>
      <point x="466" y="404"/>
      <point x="466" y="328" type="qcurve"/>
      <point x="466" y="228" type="line"/>
      <point x="466" y="154"/>
      <point x="464" y="44" type="qcurve"/>
      <point x="379" y="32" type="line"/>
      <point x="379" y="0" type="line"/>
      <point x="624" y="0" type="line"/>
      <point x="624" y="32" type="line"/>
      <point x="545" y="45" type="line"/>
      <point x="542" y="128"/>
      <point x="542" y="228" type="qcurve"/>
      <point x="542" y="332" type="line"/>
      <point x="542" y="436"/>
      <point x="508" y="483" type="qcurve"/>
      <point x="475" y="528"/>
      <point x="405" y="528" type="qcurve"/>
      <point x="355" y="528"/>
      <point x="249" y="473"/>
      <point x="205" y="425" type="qcurve"/>
      <point x="197" y="517" type="line"/>
      <point x="183" y="527" type="line"/>
      <point x="39" y="474" type="line"/>
      <point x="39" y="442" type="line"/>
      <point x="128" y="435" type="line"/>
      <point x="128" y="432"/>
      <point x="128" y="425" type="qcurve"/>
      <point x="132" y="342"/>
      <point x="132" y="283" type="qcurve"/>
      <point x="132" y="228" type="line"/>
      <point x="132" y="128"/>
      <point x="129" y="44" type="qcurve"/>
      <point x="45" y="32" type="line"/>
    </contour>
    <contour>
      <point x="353" y="608" type="qcurve"/>
      <point x="375" y="624" type="line"/>
      <point x="362" y="643"/>
      <point x="338" y="682" type="qcurve"/>
      <point x="297" y="745"/>
      <point x="276" y="776" type="qcurve"/>
      <point x="250" y="819"/>
      <point x="223" y="819" type="qcurve"/>
      <point x="208" y="819"/>
      <point x="187" y="800"/>
      <point x="187" y="783" type="qcurve"/>
      <point x="187" y="760"/>
      <point x="223" y="728" type="qcurve"/>
      <point x="231" y="721"/>
      <point x="247" y="706" type="qcurve"/>
      <point x="317" y="641"/>
    </contour>
  </outline>
</glyph>
<glyph name="alpha" format="2">
  <advance width="602" height="1000"/>
  <unicode hex="0251"/>
  <outline>
    <contour>
      <point x="267" y="-14" type="qcurve"/>
      <point x="371" y="-14"/>
      <point x="435" y="79" type="qcurve"/>
      <point x="450" y="-12"/>
      <point x="525" y="-12" type="qcurve"/>
      <point x="576" y="-12"/>
      <point x="611" y="38" type="qcurve"/>
      <point x="592" y="59" type="line"/>
      <point x="571" y="35"/>
      <point x="548" y="35" type="qcurve"/>
      <point x="504" y="35"/>
      <point x="504" y="111" type="qcurve"/>
      <point x="504" y="371" type="line"/>
      <point x="508" y="517" type="line"/>
      <point x="494" y="526" type="line"/>
      <point x="433" y="452" type="line"/>
      <point x="376" y="528"/>
      <point x="293" y="528" type="qcurve"/>
      <point x="185" y="528"/>
      <point x="51" y="373"/>
      <point x="51" y="245" type="qcurve"/>
      <point x="51" y="125"/>
      <point x="111" y="54" type="qcurve"/>
      <point x="170" y="-14"/>
    </contour>
    <contour>
      <point x="291" y="37" type="qcurve"/>
      <point x="221" y="37"/>
      <point x="178" y="91" type="qcurve"/>
      <point x="132" y="148"/>
      <point x="132" y="251" type="qcurve"/>
      <point x="132" y="364"/>
      <point x="182" y="424" type="qcurve"/>
      <point x="226" y="478"/>
      <point x="301" y="478" type="qcurve"/>
      <point x="337" y="478"/>
      <point x="365" y="465" type="qcurve"/>
      <point x="395" y="450"/>
      <point x="429" y="415" type="qcurve"/>
      <point x="429" y="111" type="line"/>
      <point x="395" y="71"/>
      <point x="331" y="37"/>
    </contour>
  </outline>
</glyph>
<glyph name="gscript" format="2">
  <advance width="603" height="1000"/>
  <unicode hex="0261"/>
  <outline>
    <contour>
      <point x="251" y="-273" type="qcurve"/>
      <point x="384" y="-273"/>
      <point x="450" y="-186" type="qcurve"/>
      <point x="481" y="-144"/>
      <point x="504" y="-20"/>
      <point x="504" y="108" type="qcurve"/>
      <point x="504" y="371" type="line"/>
      <point x="508" y="517" type="line"/>
      <point x="494" y="526" type="line"/>
      <point x="433" y="452" type="line"/>
      <point x="376" y="528"/>
      <point x="293" y="528" type="qcurve"/>
      <point x="186" y="528"/>
      <point x="119" y="451" type="qcurve"/>
      <point x="51" y="373"/>
      <point x="51" y="245" type="qcurve"/>
      <point x="51" y="124"/>
      <point x="111" y="54" type="qcurve"/>
      <point x="170" y="-14"/>
      <point x="267" y="-14" type="qcurve"/>
      <point x="367" y="-14"/>
      <point x="429" y="71" type="qcurve"/>
      <point x="429" y="-32"/>
      <point x="415" y="-131"/>
      <point x="396" y="-161" type="qcurve"/>
      <point x="375" y="-197"/>
      <point x="335" y="-217" type="qcurve"/>
      <point x="301" y="-233"/>
      <point x="262" y="-233" type="qcurve"/>
      <point x="213" y="-233"/>
      <point x="177" y="-221" type="qcurve"/>
      <point x="159" y="-160" type="line"/>
      <point x="149" y="-124"/>
      <point x="138" y="-111" type="qcurve"/>
      <point x="126" y="-96"/>
      <point x="103" y="-96" type="qcurve"/>
      <point x="72" y="-96"/>
      <point x="58" y="-127" type="qcurve"/>
      <point x="91" y="-273"/>
    </contour>
    <contour>
      <point x="291" y="37" type="qcurve"/>
      <point x="220" y="37"/>
      <point x="178" y="90" type="qcurve"/>
      <point x="132" y="147"/>
      <point x="132" y="251" type="qcurve"/>
      <point x="132" y="366"/>
      <point x="182" y="425" type="qcurve"/>
      <point x="226" y="478"/>
      <point x="301" y="478" type="qcurve"/>
      <point x="337" y="478"/>
      <point x="365" y="465" type="qcurve"/>
      <point x="395" y="450"/>
      <point x="429" y="415" type="qcurve"/>
      <point x="429" y="111" type="line"/>
      <point x="395" y="71"/>
      <point x="331" y="37"/>
    </contour>
  </outline>
</glyph>
<glyph name="ibar" format="2">
  <advance width="331" height="1000"/>
  <unicode hex="0268"/>
  <outline>
    <contour>
      <point x="44" y="0" type="line"/>
      <point x="288" y="0" type="line"/>
      <point x="288" y="28" type="line"/>
      <point x="210" y="36" type="line"/>
      <point x="208" y="148"/>
      <point x="208" y="228" type="qcurve"/>
      <point x="208" y="267" type="line"/>
      <point x="311" y="267" type="line"/>
      <point x="311" y="303" type="line"/>
      <point x="208" y="303" type="line"/>
      <point x="208" y="380" type="line"/>
      <point x="212" y="519" type="line"/>
      <point x="198" y="526" type="line"/>
      <point x="38" y="488" type="line"/>
      <point x="38" y="463" type="line"/>
      <point x="128" y="459" type="line"/>
      <point x="132" y="390"/>
      <point x="132" y="303" type="qcurve"/>
      <point x="30" y="303" type="line"/>
      <point x="30" y="267" type="line"/>
      <point x="132" y="267" type="line"/>
      <point x="132" y="228" type="line"/>
      <point x="132" y="148"/>
      <point x="130" y="36" type="qcurve"/>
      <point x="44" y="28" type="line"/>
    </contour>
    <contour>
      <point x="165" y="780" type="qcurve"/>
      <point x="141" y="780"/>
      <point x="108" y="749"/>
      <point x="108" y="701"/>
      <point x="141" y="670"/>
      <point x="189" y="670"/>
      <point x="223" y="701"/>
      <point x="223" y="749"/>
      <point x="189" y="780"/>
    </contour>
  </outline>
</glyph>
<glyph name="caronmod" format="2">
  <advance width="600" height="1000"/>
  <unicode hex="02C7"/>
  <outline>
    <contour>
      <point x="251" y="463" type="line"/>
      <point x="350" y="463" type="line"/>
      <point x="542" y="799" type="line"/>
      <point x="523" y="817" type="line"/>
      <point x="301" y="570" type="line"/>
      <point x="78" y="817" type="line"/>
      <point x="58" y="799" type="line"/>
    </contour>
  </outline>
</glyph>
<glyph name="acutemod" format="2">
  <advance width="600" height="1000"/>
  <unicode hex="02CA"/>
  <outline>
    <contour>
      <point x="177" y="470" type="qcurve"/>
      <point x="210" y="497"/>
      <point x="338" y="620" type="qcurve"/>
      <point x="386" y="665"/>
      <point x="414" y="692" type="qcurve"/>
      <point x="532" y="805" type="line"/>
      <point x="514" y="826" type="line"/>
      <point x="379" y="736" type="line"/>
      <point x="345" y="714"/>
      <point x="288" y="676" type="qcurve"/>
      <point x="142" y="581"/>
      <point x="110" y="555" type="qcurve"/>
      <point x="56" y="514"/>
      <point x="122" y="425"/>
    </contour>
  </outline>
</glyph>
<glyph name="gravemod" format="2">
  <advance width="600" height="1000"/>
  <unicode hex="02CB"/>
  <outline>
    <contour>
      <point x="511" y="431" type="line"/>
      <point x="529" y="453" type="line"/>
      <point x="414" y="568" type="line"/>
      <point x="363" y="619"/>
      <point x="291" y="693" type="qcurve"/>
      <point x="209" y="776"/>
      <point x="184" y="798" type="qcurve"/>
      <point x="131" y="842"/>
      <point x="96" y="800" type="qcurve"/>
      <point x="63" y="759"/>
      <point x="115" y="714" type="qcurve"/>
      <point x="142" y="690"/>
      <point x="253" y="614" type="qcurve"/>
      <point x="329" y="561"/>
      <point x="379" y="526" type="qcurve"/>
    </contour>
  </outline>
</glyph>
<glyph name="gravecomb" format="2">
  <advance width="0" height="1000"/>
  <unicode hex="0300"/>
  <outline>
    <contour>
      <point x="-161" y="609" type="qcurve"/>
      <point x="-143" y="623" type="line"/>
      <point x="-169" y="660"/>
      <point x="-220" y="738" type="qcurve"/>
      <point x="-234" y="760"/>
      <point x="-242" y="772" type="qcurve"/>
      <point x="-271" y="816"/>
      <point x="-295" y="816" type="qcurve"/>
      <point x="-309" y="816"/>
      <point x="-330" y="798"/>
      <point x="-330" y="783" type="qcurve"/>
      <point x="-330" y="761"/>
      <point x="-287" y="724" type="qcurve"/>
      <point x="-242" y="686"/>
    </contour>
  </outline>
</glyph>
<glyph name="acutecomb" format="2">
  <advance width="0" height="1000"/>
  <unicode hex="0301"/>
  <outline>
    <contour>
      <point x="-231" y="609" type="line"/>
      <point x="-223" y="617"/>
      <point x="-207" y="632" type="qcurve"/>
      <point x="-140" y="694"/>
      <point x="-105" y="724" type="qcurve"/>
      <point x="-63" y="760"/>
      <point x="-63" y="783" type="qcurve"/>
      <point x="-63" y="798"/>
      <point x="-83" y="816"/>
      <point x="-96" y="816" type="qcurve"/>
      <point x="-121" y="816"/>
      <point x="-149" y="772" type="qcurve"/>
      <point x="-214" y="676"/>
      <point x="-248" y="623" type="qcurve"/>
    </contour>
  </outline>
</glyph>
<glyph name="circumflexcomb" format="2">
  <advance width="0" height="1000"/>
  <unicode hex="0302"/>
  <outline>
    <contour>
      <point x="-337" y="599" type="line"/>
      <point x="-205" y="724" type="line"/>
      <point x="-74" y="599" type="line"/>
      <point x="-58" y="614" type="line"/>
      <point x="-189" y="796" type="line"/>
      <point x="-222" y="796" type="line"/>
      <point x="-353" y="614" type="line"/>
    </contour>
  </outline>
</glyph>
<glyph name="macroncomb" format="2">
  <advance width="0" height="1000"/>
  <unicode hex="0304"/>
  <outline>
    <contour>
      <point x="-352" y="666" type="line"/>
      <point x="-66" y="666" type="line"/>
      <point x="-66" y="717" type="line"/>
      <point x="-352" y="717" type="line"/>
    </contour>
  </outline>
</glyph>
<glyph name="brevecomb" format="2">
  <advance width="0" height="1000"/>
  <unicode hex="0306"/>
  <outline>
    <contour>
      <point x="-204" y="627" type="qcurve"/>
      <point x="-136" y="627"/>
      <point x="-92" y="675" type="qcurve"/>
      <point x="-52" y="719"/>
      <point x="-43" y="787" type="qcurve"/>
      <point x="-65" y="794" type="line"/>
      <point x="-99" y="682"/>
      <point x="-204" y="682" type="qcurve"/>
      <point x="-307" y="682"/>
      <point x="-343" y="794" type="qcurve"/>
      <point x="-364" y="787" type="line"/>
      <point x="-356" y="719"/>
      <point x="-316" y="675" type="qcurve"/>
      <point x="-272" y="627"/>
    </contour>
  </outline>
</glyph>
<glyph name="doubleacutecomb" format="2">
  <advance width="0" height="1000"/>
  <unicode hex="030B"/>
  <outline>
    <contour>
      <point x="-167" y="609" type="line"/>
      <point x="-156" y="620"/>
      <point x="-133" y="641" type="qcurve"/>
      <point x="-73" y="698"/>
      <point x="-41" y="724" type="qcurve"/>
      <point x="1" y="758"/>
      <point x="1" y="783" type="qcurve"/>
      <point x="1" y="798"/>
      <point x="-19" y="816"/>
      <point x="-33" y="816" type="qcurve"/>
      <point x="-56" y="816"/>
      <point x="-86" y="772" type="qcurve"/>
      <point x="-100" y="750"/>
      <point x="-131" y="703" type="qcurve"/>
      <point x="-167" y="650"/>
      <point x="-184" y="623" type="qcurve"/>
    </contour>
    <contour>
      <point x="-300" y="609" type="line"/>
      <point x="-295" y="614"/>
      <point x="-284" y="624" type="qcurve"/>
      <point x="-212" y="693"/>
      <point x="-174" y="724" type="qcurve"/>
      <point x="-133" y="757"/>
      <point x="-133" y="783" type="qcurve"/>
      <point x="-133" y="798"/>
      <point x="-153" y="816"/>
      <point x="-166" y="816" type="qcurve"/>
      <point x="-189" y="816"/>
      <point x="-219" y="772" type="qcurve"/>
      <point x="-233" y="750"/>
      <point x="-264" y="703" type="qcurve"/>
      <point x="-300" y="650"/>
      <point x="-317" y="623" type="qcurve"/>
    </contour>
  </outline>
</glyph>
<glyph name="dotaboverightcomb" format="2">
  <advance width="0" height="1000"/>
  <unicode hex="0358"/>
  <outline>
    <contour>
      <point x="-80" y="447" type="qcurve"/>
      <point x="-57" y="447"/>
      <point x="-23" y="479"/>
      <point x="-23" y="526"/>
      <point x="-57" y="557"/>
      <point x="-104" y="557"/>
      <point x="-137" y="527"/>
      <point x="-137" y="479"/>
      <point x="-104" y="447"/>
    </contour>
  </outline>
</glyph>
<glyph name="Delta-grek" format="2">
  <advance width="688" height="1000"/>
  <unicode hex="0394"/>
  <outline>
    <contour>
      <point x="30" y="0" type="line"/>
      <point x="654" y="0" type="line"/>
      <point x="654" y="38" type="line"/>
      <point x="374" y="736" type="line"/>
      <point x="318" y="736" type="line"/>
      <point x="30" y="38" type="line"/>
    </contour>
    <contour>
      <point x="92" y="74" type="line"/>
      <point x="324" y="638" type="line"/>
      <point x="549" y="74" type="line"/>
    </contour>
  </outline>
</glyph>
<glyph name="Eta-grek" format="2">
  <advance width="859" height="1000"/>
  <unicode hex="0397"/>
  <outline>
    <contour>
      <point x="52" y="0" type="line"/>
      <point x="349" y="0" type="line"/>
      <point x="349" y="36" type="line"/>
      <point x="245" y="47" type="line"/>
      <point x="242" y="141"/>
      <point x="242" y="355" type="qcurve"/>
      <point x="616" y="355" type="line"/>
      <point x="616" y="140"/>
      <point x="614" y="46" type="qcurve"/>
      <point x="510" y="36" type="line"/>
      <point x="510" y="0" type="line"/>
      <point x="808" y="0" type="line"/>
      <point x="808" y="36" type="line"/>
      <point x="703" y="47" type="line"/>
      <point x="701" y="143"/>
      <point x="701" y="337" type="qcurve"/>
      <point x="701" y="392" type="line"/>
      <point x="701" y="588"/>
      <point x="703" y="683" type="qcurve"/>
      <point x="808" y="694" type="line"/>
      <point x="808" y="729" type="line"/>
      <point x="510" y="729" type="line"/>
      <point x="510" y="694" type="line"/>
      <point x="614" y="683" type="line"/>
      <point x="616" y="589"/>
      <point x="616" y="397" type="qcurve"/>
      <point x="242" y="397" type="line"/>
      <point x="242" y="590"/>
      <point x="245" y="683" type="qcurve"/>
      <point x="349" y="694" type="line"/>
      <point x="349" y="729" type="line"/>
      <point x="52" y="729" type="line"/>
      <point x="52" y="694" type="line"/>
      <point x="156" y="683" type="line"/>
      <point x="159" y="587"/>
      <point x="159" y="392" type="qcurve"/>
      <point x="159" y="337" type="line"/>
      <point x="159" y="142"/>
      <point x="156" y="47" type="qcurve"/>
      <point x="52" y="36" type="line"/>
    </contour>
  </outline>
</glyph>
<glyph name="Theta-grek" format="2">
  <advance width="769" height="1000"/>
  <unicode hex="0398"/>
  <outline>
    <contour>
      <point x="385" y="-16" type="qcurve"/>
      <point x="472" y="-16"/>
      <point x="546" y="30" type="qcurve"/>
      <point x="622" y="77"/>
      <point x="666" y="161" type="qcurve"/>
      <point x="713" y="251"/>
      <point x="713" y="365" type="qcurve"/>
      <point x="713" y="540"/>
      <point x="613" y="647" type="qcurve"/>
      <point x="520" y="746"/>
      <point x="385" y="746" type="qcurve"/>
      <point x="298" y="746"/>
      <point x="223" y="700" type="qcurve"/>
      <point x="147" y="652"/>
      <point x="103" y="569" type="qcurve"/>
      <point x="55" y="479"/>
      <point x="55" y="365" type="qcurve"/>
      <point x="55" y="190"/>
      <point x="156" y="83" type="qcurve"/>
      <point x="249" y="-16"/>
    </contour>
    <contour>
      <point x="206" y="132" type="qcurve"/>
      <point x="150" y="224"/>
      <point x="150" y="506"/>
      <point x="206" y="598" type="qcurve"/>
      <point x="270" y="701"/>
      <point x="385" y="701" type="qcurve"/>
      <point x="500" y="701"/>
      <point x="563" y="598" type="qcurve"/>
      <point x="619" y="506"/>
      <point x="619" y="223"/>
      <point x="563" y="132" type="qcurve"/>
      <point x="500" y="28"/>
      <point x="270" y="28"/>
    </contour>
    <contour>
      <point x="232" y="273" type="line"/>
      <point x="272" y="273" type="line"/>
      <point x="284" y="342" type="line"/>
      <point x="486" y="342" type="line"/>
      <point x="497" y="273" type="line"/>
      <point x="537" y="273" type="line"/>
      <point x="537" y="471" type="line"/>
      <point x="497" y="471" type="line"/>
      <point x="485" y="400" type="line"/>
      <point x="284" y="400" type="line"/>
      <point x="272" y="471" type="line"/>
      <point x="232" y="471" type="line"/>
    </contour>
  </outline>
</glyph>
<glyph name="Mu-grek" format="2">
  <advance width="979" height="1000"/>
  <unicode hex="039C"/>
  <outline>
    <contour>
      <point x="45" y="0" type="line"/>
      <point x="286" y="0" type="line"/>
      <point x="286" y="36" type="line"/>
      <point x="189" y="48" type="line"/>
      <point x="189" y="403" type="line"/>
      <point x="188" y="435" type="line"/>
      <point x="185" y="565"/>
      <point x="184" y="631" type="qcurve"/>
      <point x="446" y="0" type="line"/>
      <point x="487" y="0" type="line"/>
      <point x="739" y="635" type="line"/>
      <point x="738" y="334" type="line"/>
      <point x="738" y="296"/>
      <point x="737" y="219" type="qcurve"/>
      <point x="737" y="104"/>
      <point x="736" y="46" type="qcurve"/>
      <point x="638" y="36" type="line"/>
      <point x="638" y="0" type="line"/>
      <point x="927" y="0" type="line"/>
      <point x="927" y="36" type="line"/>
      <point x="823" y="46" type="line"/>
      <point x="821" y="143"/>
      <point x="821" y="337" type="qcurve"/>
      <point x="821" y="392" type="line"/>
      <point x="821" y="588"/>
      <point x="823" y="683" type="qcurve"/>
      <point x="927" y="694" type="line"/>
      <point x="927" y="729" type="line"/>
      <point x="729" y="729" type="line"/>
      <point x="483" y="109" type="line"/>
      <point x="228" y="729" type="line"/>
      <point x="42" y="729" type="line"/>
      <point x="42" y="694" type="line"/>
      <point x="143" y="682" type="line"/>
      <point x="142" y="48" type="line"/>
      <point x="45" y="36" type="line"/>
    </contour>
  </outline>
</glyph>
<glyph name="Xi-grek" format="2">
  <advance width="636" height="1000"/>
  <unicode hex="039E"/>
  <outline>
    <contour>
      <point x="51" y="0" type="line"/>
      <point x="585" y="0" type="line"/>
      <point x="594" y="189" type="line"/>
      <point x="547" y="189" type="line"/>
      <point x="526" y="71" type="line"/>
      <point x="110" y="71" type="line"/>
      <point x="90" y="189" type="line"/>
      <point x="43" y="189" type="line"/>
    </contour>
    <contour>
      <point x="138" y="265" type="line"/>
      <point x="177" y="265" type="line"/>
      <point x="190" y="342" type="line"/>
      <point x="446" y="342" type="line"/>
      <point x="459" y="265" type="line"/>
      <point x="498" y="265" type="line"/>
      <point x="498" y="476" type="line"/>
      <point x="459" y="476" type="line"/>
      <point x="445" y="403" type="line"/>
      <point x="190" y="403" type="line"/>
      <point x="177" y="476" type="line"/>
      <point x="138" y="476" type="line"/>
    </contour>
    <contour>
      <point x="59" y="540" type="line"/>
      <point x="105" y="540" type="line"/>
      <point x="126" y="659" type="line"/>
      <point x="510" y="659" type="line"/>
      <point x="530" y="540" type="line"/>
      <point x="577" y="540" type="line"/>
      <point x="570" y="729" type="line"/>
      <point x="66" y="729" type="line"/>
    </contour>
  </outline>
</glyph>
<glyph name="Pi-grek" format="2">
  <advance width="844" height="1000"/>
  <unicode hex="03A0"/>
  <outline>
    <contour>
      <point x="52" y="0" type="line"/>
      <point x="349" y="0" type="line"/>
      <point x="349" y="36" type="line"/>
      <point x="245" y="47" type="line"/>
      <point x="242" y="144"/>
      <point x="242" y="364" type="qcurve"/>
      <point x="242" y="392" type="line"/>
      <point x="242" y="589"/>
      <point x="245" y="684" type="qcurve"/>
      <point x="598" y="684" type="line"/>
      <point x="600" y="588"/>
      <point x="600" y="392" type="qcurve"/>
      <point x="600" y="364" type="line"/>
      <point x="600" y="142"/>
      <point x="598" y="46" type="qcurve"/>
      <point x="495" y="36" type="line"/>
      <point x="495" y="0" type="line"/>
      <point x="791" y="0" type="line"/>
      <point x="791" y="36" type="line"/>
      <point x="686" y="47" type="line"/>
      <point x="685" y="143"/>
      <point x="685" y="337" type="qcurve"/>
      <point x="685" y="392" type="line"/>
      <point x="685" y="588"/>
      <point x="686" y="683" type="qcurve"/>
      <point x="791" y="694" type="line"/>
      <point x="791" y="729" type="line"/>
      <point x="53" y="729" type="line"/>
      <point x="53" y="694" type="line"/>
      <point x="156" y="683" type="line"/>
      <point x="159" y="587"/>
      <point x="159" y="392" type="qcurve"/>
      <point x="159" y="337" type="line"/>
      <point x="159" y="142"/>
      <point x="156" y="47" type="qcurve"/>
      <point x="52" y="36" type="line"/>
    </contour>
  </outline>
</glyph>
<glyph name="Rho-grek" format="2">
  <advance width="637" height="1000"/>
  <unicode hex="03A1"/>
  <outline>
    <contour>
      <point x="52" y="0" type="line"/>
      <point x="352" y="0" type="line"/>
      <point x="352" y="36" type="line"/>
      <point x="245" y="47" type="line"/>
      <point x="242" y="131"/>
      <point x="242" y="295" type="qcurve"/>
      <point x="305" y="295" type="line"/>
      <point x="458" y="295"/>
      <point x="536" y="359" type="qcurve"/>
      <point x="605" y="416"/>
      <point x="605" y="614"/>
      <point x="539" y="670" type="qcurve"/>
      <point x="470" y="729"/>
      <point x="340" y="729" type="qcurve"/>
      <point x="52" y="729" type="line"/>
      <point x="52" y="694" type="line"/>
      <point x="156" y="683" type="line"/>
      <point x="159" y="587"/>
      <point x="159" y="392" type="qcurve"/>
      <point x="159" y="337" type="line"/>
      <point x="159" y="142"/>
      <point x="156" y="47" type="qcurve"/>
      <point x="52" y="36" type="line"/>
    </contour>
    <contour>
      <point x="242" y="335" type="line"/>
      <point x="242" y="392" type="line"/>
      <point x="242" y="592"/>
      <point x="245" y="688" type="qcurve"/>
      <point x="324" y="688" type="line"/>
      <point x="517" y="688"/>
      <point x="517" y="515" type="qcurve"/>
      <point x="517" y="335"/>
      <point x="314" y="335" type="qcurve"/>
    </contour>
  </outline>
</glyph>
<glyph name="Sigma-grek" format="2">
  <advance width="591" height="1000"/>
  <unicode hex="03A3"/>
  <outline>
    <contour>
      <point x="25" y="0" type="line"/>
      <point x="550" y="0" type="line"/>
      <point x="558" y="218" type="line"/>
      <point x="504" y="218" type="line"/>
      <point x="476" y="75" type="line"/>
      <point x="103" y="75" type="line"/>
      <point x="351" y="385" type="line"/>
      <point x="136" y="685" type="line"/>
      <point x="454" y="685" type="line"/>
      <point x="485" y="539" type="line"/>
      <point x="538" y="539" type="line"/>
      <point x="530" y="729" type="line"/>
      <point x="38" y="729" type="line"/>
      <point x="38" y="696" type="line"/>
      <point x="276" y="363" type="line"/>
      <point x="25" y="51" type="line"/>
    </contour>
  </outline>
</glyph>
<glyph name="Upsilon-grek" format="2">
  <advance width="688" height="1000"/>
  <unicode hex="03A5"/>
  <outline>
    <contour>
      <point x="186" y="0" type="line"/>
      <point x="505" y="0" type="line"/>
      <point x="505" y="36" type="line"/>
      <point x="390" y="47" type="line"/>
      <point x="388" y="119"/>
      <point x="388" y="288" type="qcurve"/>
      <point x="579" y="680" type="line"/>
      <point x="675" y="694" type="line"/>
      <point x="675" y="729" type="line"/>
      <point x="427" y="729" type="line"/>
      <point x="427" y="694" type="line"/>
      <point x="532" y="681" type="line"/>
      <point x="367" y="334" type="line"/>
      <point x="202" y="682" type="line"/>
      <point x="311" y="694" type="line"/>
      <point x="311" y="729" type="line"/>
      <point x="21" y="729" type="line"/>
      <point x="21" y="694" type="line"/>
      <point x="106" y="684" type="line"/>
      <point x="303" y="287" type="line"/>
      <point x="303" y="118"/>
      <point x="301" y="47" type="qcurve"/>
      <point x="186" y="36" type="line"/>
    </contour>
  </outline>
</glyph>
<glyph name="Omega-grek" format="2">
  <advance width="797" height="1000"/>
  <unicode hex="03A9"/>
  <outline>
    <contour>
      <point x="57" y="0" type="line"/>
      <point x="347" y="0" type="line"/>
      <point x="347" y="59" type="line"/>
      <point x="264" y="124"/>
      <point x="218" y="216" type="qcurve"/>
      <point x="171" y="309"/>
      <point x="171" y="414" type="qcurve"/>
      <point x="171" y="542"/>
      <point x="233" y="621" type="qcurve"/>
      <point x="296" y="701"/>
      <point x="399" y="701" type="qcurve"/>
      <point x="502" y="701"/>
      <point x="626" y="542"/>
      <point x="626" y="414" type="qcurve"/>
      <point x="626" y="309"/>
      <point x="579" y="216" type="qcurve"/>
      <point x="534" y="124"/>
      <point x="451" y="59" type="qcurve"/>
      <point x="451" y="0" type="line"/>
      <point x="740" y="0" type="line"/>
      <point x="751" y="182" type="line"/>
      <point x="698" y="182" type="line"/>
      <point x="673" y="66" type="line"/>
      <point x="514" y="66" type="line"/>
      <point x="514" y="68" type="line"/>
      <point x="605" y="135"/>
      <point x="657" y="219" type="qcurve"/>
      <point x="713" y="312"/>
      <point x="713" y="415" type="qcurve"/>
      <point x="713" y="571"/>
      <point x="616" y="663" type="qcurve"/>
      <point x="528" y="746"/>
      <point x="399" y="746" type="qcurve"/>
      <point x="270" y="746"/>
      <point x="182" y="663" type="qcurve"/>
      <point x="85" y="570"/>
      <point x="85" y="414" type="qcurve"/>
      <point x="85" y="312"/>
      <point x="142" y="219" type="qcurve"/>
      <point x="193" y="135"/>
      <point x="284" y="68" type="qcurve"/>
      <point x="284" y="66" type="line"/>
      <point x="124" y="66" type="line"/>
      <point x="99" y="182" type="line"/>
      <point x="46" y="182" type="line"/>
    </contour>
  </outline>
</glyph>
<glyph name="alpha-grek" format="2">
  <advance width="604" height="1000"/>
  <unicode hex="03B1"/>
  <outline>
    <contour>
      <point x="262" y="-14" type="qcurve"/>
      <point x="376" y="-14"/>
      <point x="425" y="84" type="qcurve"/>
      <point x="437" y="-14"/>
      <point x="501" y="-14" type="qcurve"/>
      <point x="553" y="-14"/>
      <point x="585" y="37" type="qcurve"/>
      <point x="576" y="60" type="line"/>
      <point x="554" y="48"/>
      <point x="529" y="48" type="qcurve"/>
      <point x="503" y="48"/>
      <point x="492" y="65" type="qcurve"/>
      <point x="479" y="84"/>
      <point x="479" y="132" type="qcurve"/>
      <point x="479" y="239"/>
      <point x="516" y="514" type="qcurve"/>
      <point x="503" y="523" type="line"/>
      <point x="436" y="507" type="line"/>
      <point x="429" y="434" type="line"/>
      <point x="383" y="528"/>
      <point x="282" y="528" type="qcurve"/>
      <point x="191" y="528"/>
      <point x="123" y="457" type="qcurve"/>
      <point x="47" y="379"/>
      <point x="47" y="254" type="qcurve"/>
      <point x="47" y="125"/>
      <point x="110" y="53" type="qcurve"/>
      <point x="168" y="-14"/>
    </contour>
    <contour>
      <point x="276" y="28" type="qcurve"/>
      <point x="208" y="28"/>
      <point x="168" y="89" type="qcurve"/>
      <point x="125" y="155"/>
      <point x="125" y="273" type="qcurve"/>
      <point x="125" y="366"/>
      <point x="165" y="425" type="qcurve"/>
      <point x="207" y="487"/>
      <point x="279" y="487" type="qcurve"/>
      <point x="329" y="487"/>
      <point x="406" y="423"/>
      <point x="425" y="363" type="qcurve"/>
      <point x="416" y="191" type="line"/>
      <point x="413" y="119"/>
      <point x="371" y="73" type="qcurve"/>
      <point x="331" y="28"/>
    </contour>
  </outline>
</glyph>
<glyph name="beta-grek" format="2">
  <advance width="616" height="1000"/>
  <unicode hex="03B2"/>
  <outline>
    <contour>
      <point x="105" y="-207" type="line"/>
      <point x="180" y="-189" type="line"/>
      <point x="168" y="76" type="line"/>
      <point x="231" y="-14"/>
      <point x="348" y="-14" type="qcurve"/>
      <point x="440" y="-14"/>
      <point x="503" y="44" type="qcurve"/>
      <point x="571" y="106"/>
      <point x="571" y="209" type="qcurve"/>
      <point x="571" y="304"/>
      <point x="512" y="357" type="qcurve"/>
      <point x="454" y="409"/>
      <point x="344" y="417" type="qcurve"/>
      <point x="428" y="439"/>
      <point x="475" y="504" type="qcurve"/>
      <point x="515" y="559"/>
      <point x="515" y="626" type="qcurve"/>
      <point x="515" y="710"/>
      <point x="460" y="760" type="qcurve"/>
      <point x="407" y="807"/>
      <point x="326" y="807" type="qcurve"/>
      <point x="225" y="807"/>
      <point x="163" y="735" type="qcurve"/>
      <point x="101" y="663"/>
      <point x="101" y="540" type="qcurve"/>
      <point x="100" y="8" type="line"/>
      <point x="93" y="-198" type="line"/>
    </contour>
    <contour>
      <point x="329" y="48" type="qcurve"/>
      <point x="249" y="48"/>
      <point x="174" y="107" type="qcurve"/>
      <point x="174" y="566" type="line"/>
      <point x="174" y="662"/>
      <point x="213" y="714" type="qcurve"/>
      <point x="250" y="766"/>
      <point x="317" y="766" type="qcurve"/>
      <point x="374" y="766"/>
      <point x="439" y="690"/>
      <point x="439" y="624" type="qcurve"/>
      <point x="439" y="476"/>
      <point x="265" y="441" type="qcurve"/>
      <point x="275" y="390" type="line"/>
      <point x="388" y="395"/>
      <point x="445" y="342" type="qcurve"/>
      <point x="495" y="296"/>
      <point x="495" y="213" type="qcurve"/>
      <point x="495" y="137"/>
      <point x="452" y="93" type="qcurve"/>
      <point x="408" y="48"/>
    </contour>
  </outline>
</glyph>
<glyph name="gamma-grek" format="2">
  <advance width="529" height="1000"/>
  <unicode hex="03B3"/>
  <outline>
    <contour>
      <point x="226" y="-207" type="line"/>
      <point x="298" y="-189" type="line"/>
      <point x="294" y="13" type="line"/>
      <point x="485" y="333"/>
      <point x="485" y="472" type="qcurve"/>
      <point x="485" y="499"/>
      <point x="479" y="517" type="qcurve"/>
      <point x="470" y="528"/>
      <point x="447" y="528" type="qcurve"/>
      <point x="398" y="528"/>
      <point x="398" y="462" type="qcurve"/>
      <point x="398" y="432"/>
      <point x="408" y="344" type="qcurve"/>
      <point x="367" y="222"/>
      <point x="283" y="65" type="qcurve"/>
      <point x="246" y="224"/>
      <point x="196" y="378" type="qcurve"/>
      <point x="167" y="466"/>
      <point x="137" y="498" type="qcurve"/>
      <point x="114" y="523"/>
      <point x="77" y="523" type="qcurve"/>
      <point x="34" y="524"/>
      <point x="0" y="484" type="qcurve"/>
      <point x="10" y="459" type="line"/>
      <point x="21" y="462"/>
      <point x="41" y="462" type="qcurve"/>
      <point x="70" y="462"/>
      <point x="105" y="415"/>
      <point x="130" y="343" type="qcurve"/>
      <point x="135" y="329"/>
      <point x="145" y="300" type="qcurve"/>
      <point x="210" y="118"/>
      <point x="236" y="12" type="qcurve"/>
      <point x="217" y="-198" type="line"/>
    </contour>
  </outline>
</glyph>
<glyph name="delta-grek" format="2">
  <advance width="565" height="1000"/>
  <unicode hex="03B4"/>
  <outline>
    <contour>
      <point x="278" y="-14" type="qcurve"/>
      <point x="383" y="-14"/>
      <point x="453" y="68" type="qcurve"/>
      <point x="517" y="143"/>
      <point x="517" y="245" type="qcurve"/>
      <point x="517" y="338"/>
      <point x="478" y="399" type="qcurve"/>
      <point x="438" y="461"/>
      <point x="328" y="535" type="qcurve"/>
      <point x="240" y="592"/>
      <point x="211" y="621" type="qcurve"/>
      <point x="171" y="658"/>
      <point x="171" y="696" type="qcurve"/>
      <point x="171" y="738"/>
      <point x="207" y="755" type="qcurve"/>
      <point x="240" y="771"/>
      <point x="311" y="771" type="qcurve"/>
      <point x="380" y="708" type="line"/>
      <point x="420" y="672"/>
      <point x="451" y="672" type="qcurve"/>
      <point x="472" y="672"/>
      <point x="498" y="699"/>
      <point x="497" y="722" type="qcurve"/>
      <point x="463" y="764"/>
      <point x="408" y="786" type="qcurve"/>
      <point x="356" y="807"/>
      <point x="297" y="807" type="qcurve"/>
      <point x="216" y="807"/>
      <point x="165" y="778" type="qcurve"/>
      <point x="110" y="747"/>
      <point x="110" y="690" type="qcurve"/>
      <point x="110" y="641"/>
      <point x="155" y="595" type="qcurve"/>
      <point x="189" y="559"/>
      <point x="265" y="511" type="qcurve"/>
      <point x="160" y="494"/>
      <point x="102" y="419" type="qcurve"/>
      <point x="47" y="348"/>
      <point x="47" y="246" type="qcurve"/>
      <point x="47" y="131"/>
      <point x="177" y="-14"/>
    </contour>
    <contour>
      <point x="399" y="83" type="qcurve"/>
      <point x="358" y="26"/>
      <point x="216" y="26"/>
      <point x="171" y="88" type="qcurve"/>
      <point x="125" y="152"/>
      <point x="125" y="254" type="qcurve"/>
      <point x="125" y="351"/>
      <point x="164" y="406" type="qcurve"/>
      <point x="205" y="464"/>
      <point x="296" y="489" type="qcurve"/>
      <point x="380" y="433"/>
      <point x="410" y="378" type="qcurve"/>
      <point x="438" y="326"/>
      <point x="438" y="138"/>
    </contour>
  </outline>
</glyph>
<glyph name="zeta-grek" format="2">
  <advance width="450" height="1000"/>
  <unicode hex="03B6"/>
  <outline>
    <contour>
      <point x="217" y="-204" type="line"/>
      <point x="323" y="-203"/>
      <point x="383" y="-158" type="qcurve"/>
      <point x="437" y="-116"/>
      <point x="437" y="-54" type="qcurve"/>
      <point x="437" y="34"/>
      <point x="317" y="63" type="qcurve"/>
      <point x="243" y="82" type="line"/>
      <point x="177" y="97"/>
      <point x="150" y="127" type="qcurve"/>
      <point x="125" y="154"/>
      <point x="125" y="199" type="qcurve"/>
      <point x="125" y="288"/>
      <point x="203" y="423" type="qcurve"/>
      <point x="266" y="533"/>
      <point x="428" y="748" type="qcurve"/>
      <point x="426" y="795" type="line"/>
      <point x="70" y="803" type="line"/>
      <point x="70" y="734" type="line"/>
      <point x="369" y="740" type="line"/>
      <point x="213" y="540"/>
      <point x="140" y="419" type="qcurve"/>
      <point x="49" y="269"/>
      <point x="49" y="185" type="qcurve"/>
      <point x="49" y="119"/>
      <point x="115" y="40"/>
      <point x="184" y="23" type="qcurve"/>
      <point x="289" y="-2" type="line"/>
      <point x="346" y="-16"/>
      <point x="367" y="-33" type="qcurve"/>
      <point x="385" y="-47"/>
      <point x="385" y="-71" type="qcurve"/>
      <point x="385" y="-132"/>
      <point x="214" y="-148" type="qcurve"/>
    </contour>
  </outline>
</glyph>
<glyph name="iota-grek" format="2">
  <advance width="303" height="1000"/>
  <unicode hex="03B9"/>
  <outline>
    <contour>
      <point x="203" y="-14" type="qcurve"/>
      <point x="256" y="-14"/>
      <point x="285" y="38" type="qcurve"/>
      <point x="276" y="60" type="line"/>
      <point x="250" y="48"/>
      <point x="228" y="48" type="qcurve"/>
      <point x="202" y="48"/>
      <point x="190" y="65" type="qcurve"/>
      <point x="177" y="84"/>
      <point x="176" y="133" type="qcurve"/>
      <point x="175" y="191"/>
      <point x="188" y="371" type="qcurve"/>
      <point x="194" y="460"/>
      <point x="198" y="517" type="qcurve"/>
      <point x="188" y="526" type="line"/>
      <point x="111" y="510" type="line"/>
      <point x="113" y="125" type="line"/>
      <point x="113" y="-14"/>
    </contour>
  </outline>
</glyph>
<glyph name="nu-grek" format="2">
  <advance width="529" height="1000"/>
  <unicode hex="03BD"/>
  <outline>
    <contour>
      <point x="239" y="-2" type="qcurve"/>
      <point x="283" y="-1" type="line"/>
      <point x="368" y="136"/>
      <point x="421" y="253" type="qcurve"/>
      <point x="485" y="394"/>
      <point x="485" y="472" type="qcurve"/>
      <point x="485" y="497"/>
      <point x="480" y="517" type="qcurve"/>
      <point x="469" y="528"/>
      <point x="448" y="528" type="qcurve"/>
      <point x="399" y="528"/>
      <point x="399" y="461" type="qcurve"/>
      <point x="399" y="432"/>
      <point x="408" y="343" type="qcurve"/>
      <point x="371" y="235"/>
      <point x="281" y="61" type="qcurve"/>
      <point x="259" y="184"/>
      <point x="196" y="379" type="qcurve"/>
      <point x="171" y="457"/>
      <point x="116" y="523"/>
      <point x="78" y="523" type="qcurve"/>
      <point x="32" y="523"/>
      <point x="0" y="485" type="qcurve"/>
      <point x="10" y="460" type="line"/>
      <point x="30" y="464"/>
      <point x="42" y="464" type="qcurve"/>
      <point x="69" y="464"/>
      <point x="103" y="423"/>
      <point x="122" y="370" type="qcurve"/>
      <point x="128" y="353"/>
      <point x="140" y="320" type="qcurve"/>
      <point x="212" y="117"/>
    </contour>
  </outline>
</glyph>
<glyph name="pi-grek" format="2">
  <advance width="645" height="1000"/>
  <unicode hex="03C0"/>
  <outline>
    <contour>
      <point x="508" y="-14" type="qcurve"/>
      <point x="563" y="-14"/>
      <point x="597" y="41" type="qcurve"/>
      <point x="589" y="63" type="line"/>
      <point x="565" y="51"/>
      <point x="537" y="51" type="qcurve"/>
      <point x="505" y="51"/>
      <point x="491" y="69" type="qcurve"/>
      <point x="474" y="90"/>
      <point x="473" y="141" type="qcurve"/>
      <point x="465" y="451" type="line"/>
      <point x="615" y="448" type="line"/>
      <point x="612" y="514" type="line"/>
      <point x="229" y="514" type="line"/>
      <point x="153" y="514"/>
      <point x="108" y="503" type="qcurve"/>
      <point x="64" y="492"/>
      <point x="22" y="463" type="qcurve"/>
      <point x="28" y="430" type="line"/>
      <point x="191" y="450" type="line"/>
      <point x="187" y="232"/>
      <point x="171" y="87" type="qcurve"/>
      <point x="116" y="85"/>
      <point x="76" y="78" type="qcurve"/>
      <point x="54" y="62"/>
      <point x="54" y="34" type="qcurve"/>
      <point x="54" y="12"/>
      <point x="85" y="-13"/>
      <point x="110" y="-13" type="qcurve"/>
      <point x="206" y="-13"/>
      <point x="216" y="104" type="qcurve"/>
      <point x="228" y="226"/>
      <point x="230" y="452" type="qcurve"/>
      <point x="414" y="452" type="line"/>
      <point x="405" y="234"/>
      <point x="405" y="116" type="qcurve"/>
      <point x="405" y="48"/>
      <point x="455" y="-14"/>
    </contour>
  </outline>
</glyph>
